<?xml version="1.0" encoding="UTF-8"?><svg id="Capa_1" xmlns="http://www.w3.org/2000/svg" viewBox="0 0 510.55 510.55"><defs><style>.cls-1{fill:#fff;}</style></defs><path class="cls-1" d="M195.18,474.68c-.74.46-.43,1.66,1.5,1.57l1.51-1.88-3,.32Z"/><path class="cls-1" d="M207.81,479.24c2.32-.83,5.01-2.37,3.65-4.27-2.33,1.78-2.82.95-5.37,3.08-1.94.12-3.31-.87-2.93-1.57-.71.46-2.94-.65-4.06.52,2.38,1.7,5.55,2.03,8.93.93.68.48-.04.95-.22,1.31Z"/><path class="cls-1" d="M391.75,449.41l-1.19.4c.36-.05.76-.19,1.19-.4Z"/><path class="cls-1" d="M469.86,362.84c-.27.87-.22,1.3-.07,1.41.17-.84.3-1.54.07-1.41Z"/><path class="cls-1" d="M477.88,343.76c-.17.42-.28.77-.42,1.15.29-.41.5-.84.42-1.15Z"/><path class="cls-1" d="M391.75,449.41c1.03-.32,2.04-.69,3.03-1.08-.15-.68-1.6.48-3.03,1.08Z"/><path class="cls-1" d="M233.82,475.51c-.65.08-1.19.25-1.69.48.53-.07,1.05-.13,1.58-.17.03-.11.06-.2.11-.31Z"/><path class="cls-1" d="M344.6,471.64l-.92.27c-.21.3-.38.63-.54,1l1.46-1.27Z"/><path class="cls-1" d="M305.63,480.89c.91-.06.95-1.77,1.17-2.56-.39.78-1,1.19-1.76,1.44.04.32.21.68.59,1.12Z"/><path class="cls-1" d="M242.56,482.44l-1.11.23c.29-.07.78-.14,1.11-.23Z"/><path class="cls-1" d="M371.68,461.9c.16.2.39.34.58.4-.09-.19-.3-.32-.58-.4Z"/><path class="cls-1" d="M145.79,454.02c-.09.08-.1.17-.16.25.28-.02.4-.08.16-.25Z"/><path class="cls-1" d="M181.95,481.72l-.62-.15c-.17.27-.35.54-.46.83l1.08-.68Z"/><path class="cls-1" d="M484.34,306.46c-.02.07-.02.1-.04.17.16,1,.14.44.04-.17Z"/><path class="cls-1" d="M294.15,59.94c3.61,2.05-6.5,1.01-.98,3.5-.46-.73,5.63-1.84.98-3.5Z"/><path class="cls-1" d="M234.83,475.76c.53,0,1.06-.01,1.6,0-.73-.06-1.22-.06-1.6,0Z"/><path class="cls-1" d="M293.17,63.45h0s.57.26.57.26c-.23-.11-.37-.17-.57-.26Z"/><path class="cls-1" d="M473.46,221.57c-.25.23-.4.61-.54,1,.16-.06.33-.3.54-1Z"/><path class="cls-1" d="M480.37,284.58c.04-.53.1-1.06.12-1.59-.1.63-.13,1.14-.12,1.59Z"/><path class="cls-1" d="M462.62,190.2c-.14-.86-.03-1.21-.63-2.24-.05.13-.07.25-.08.4.36.33.66.82.71,1.84Z"/><path class="cls-1" d="M448.8,158.42c-.02.22.01.48.01.73.19.29.41.63.6.93l-.61-1.66Z"/><path class="cls-1" d="M79.13,382.22c-.08.85-.32,1.49-.61,2.05.81-1.01,3.48,2.98.61-2.05Z"/><path class="cls-1" d="M233.82,476.46c.2-.42.49-.62,1.01-.7-.39,0-.75.03-1.12.06-.1.25-.13.48.11.64Z"/><path class="cls-1" d="M449.57,193.16c-.5-1.65-.96-3.31-1.49-4.95.36,1.4.87,3.21,1.49,4.95Z"/><path class="cls-1" d="M102.92,162.61l-.6,1.06c.32-.34.55-.7.6-1.06Z"/><path class="cls-1" d="M442,174.27c.14-1.07.02-2.09-.22-3.09-.21-.13-.42-.3-.65-.34l.87,3.43Z"/><path class="cls-1" d="M78.51,384.28s.01-.02.01-.02c0,0,0,0-.01.02Z"/><path class="cls-1" d="M100.63,410.43c-2.95-3.89-3.12-.49-4.77-.53-4.13-4.31-.38-3.14-.67-5.4-2.54-2.65-5.83-3.82-7.34-6.13.19-.37,0-.88.73-.62-1.84-1.12-3.32-3.62-4.97-6.1-.8-1.26-1.7-2.48-2.52-3.65-.84-1.16-1.75-2.18-2.78-2.92,0-.39.09-.63.2-.79-.62,1.18-1.55,1.83-2.33,2.08-1.11-1.96-3.25-3.04-2.38-4.46.63,1.24,1.2,1.07,1.91,1.42l-1.69-1.78c.84-2.82,2.18,2.5,3.54,1.77-.7-.92-1.47-1.86-2.27-2.8-.78-.95-1.5-1.94-2.21-2.9-1.41-1.93-2.63-3.83-3.12-5.54,1.55-1.49,4.15,7.12,3.78,2.13l1.62,5.22c1.1-5.16,1.21,3.04,2.65-1.91-2.42-6.59-4.46-6.58-6.51-13.33-1.65-1.04-1.35,1.12-3.01.07-1.43-2.15-2.07-3.8-2.14-5.2-.11-1.38.17-2.45.47-3.42.61-1.96,1.19-3.49-1.22-6.56-1.81-1.41-4.5-1.43-4.63-6.9l2.72,1.12c-.41-1.65-.89-2.66-1.37-3.36-.44-.71-.91-1.11-1.35-1.53-.87-.84-1.59-1.78-1.63-5.46,1.17,1.06,1.94,5.1,1.97,4.02.75-4.93-2-2.92-2.8-6.43l1.85-1.12c-.74-3.56-1.91-7.24-2.91-11.07-.45-1.93-.91-3.88-1.34-5.86-.2-.99-.41-1.99-.61-2.99-.19-1-.28-2.01-.4-3.03.63.41,1.36,1.73,1.86-.2-.41-2.52-.69-5.15-.87-7.81-.04-2.67.04-5.39.18-8.08.07-2.7.53-5.37.89-7.97.39-2.6.74-5.14,1.33-7.53l-1.4-3.88c.1-.87.94-1.53,1.19-.56,1.02-3.72-1.09-.31-1.61-2.22.05-2.2,1.38-2.74,1.67-1.31-.12-1.71-.21-3.79-.23-6.05,0-2.26,0-4.73.35-7.15.29-2.43.69-4.86,1.22-7.09.56-2.22,1.39-4.22,2.27-5.83l.16,1.47c1.03-2.6.55-4.34.17-6.03-.37-1.68-.52-3.28,1.03-5.53v1.04c2.07-5.71,4.12-11.73,6.36-17.32,1.22-2.75,2.45-5.4,3.76-7.81,1.37-2.38,2.94-4.46,4.55-6.21-.73-1.36.82-3.92,2.41-6.32,1.51-2.44,2.98-4.75,1.66-6,2.51-2.55,3.74-3.23,5.01-4.29,1.28-1.06,2.73-2.43,5.93-6.08,1.64-2,.38-4.45,2.04-7.26l1.53,1.04c.35-1.54.68-3.12,1.08-4.66l3.18-.48c.5-.89.97-1.79,1.49-2.67-.84.86-2.23,1.5-2.54,1.02,1.1-2.14,3.23-4.16,5.09-5.61,1.91-1.41,3.61-2.23,4.01-1.97,2.02-3.16,4.1-6.3,6.25-9.41.38.69-.7,2.24-1.34,3.65,2.64-5.68,2.15.51,4.59-4.68-.81.25-.53-1.04-.72-1.39,2.69-1.23,6.98-5.71,9.95-9.28l.27,1.53c6.11-5.61,12.21-12.67,19.25-18.78-2.91,1.75-3.8-.4-1.86-2.38l2.11.75c.55-2.08-2.65,1.34-.87-2.18,2.82-2.11,3.23.17,2.13,1.94l2.79-3.26c.56.29,0,1.17.29,1.9.54-2.08,6.82-3.11,7.45-6.27l.54.31c3.63-2.83,6.21-4.93,8.65-6.89,2.44-1.94,4.72-3.75,7.83-5.79-.78-1.48,1.86-2.78,3.1-5.06,5.03-2.39,10.99-4.11,16.87-6.92,3.87-2.63.66-1.85,2.17-3.62.93,1.28,6.95-1.26,4.2,1.02,1.79-.81,3.29-1.37,4.65-1.91,1.36-.53,2.57-1.07,3.88-1.55,1.3-.5,2.65-1.06,4.26-1.73,1.63-.64,3.52-1.37,5.88-2.29-1.21-.38-2.47-.29-1.98-.98,1.72-.73,4.23-.31,4.13.45l-.44.26c2.62-1.23,5.64-1.78,8.75-2.09,3.13-.22,6.36-.19,9.51,0,6.3.31,12.16.86,16.62-.79l-.5.17c3.09-.66,6.21-1.16,9.36-1.68,4.31.43-2.61,1.07.55,2.13,5.06-1.12,9.08-.78,12.81-.23,3.74.53,7.21,1.24,11.46.97,2.89,2.67,8.47,3.51,14.39,4.44,5.9.93,12.14,1.99,15.9,4.59l-.19-1.16c2.45-.41,2.44,1.33,3.95,2.04.02-.86-2.06-1.62-.55-1.78,9.33,2.09,18.52,5.85,27.3,10.42,8.78,4.59,17.14,9.98,25.1,15.38,2.95,1.92,4.48,1.35,6.13,1.08,1.63-.26,3.37-.14,6.33,3.48l-3.21.19c6.56,3.02,12.43,7.47,17.85,12.27,5.44,4.8,10.46,9.9,15.84,14.42-.9-.32-1.35.07-2.25-.95.22.79.78,1.69,1.5,2.58.73.89,1.62,1.78,2.47,2.59,1.72,1.6,3.49,2.73,3.96,2.39,1.21,1.8-.53,1.06-.2,2.48.53,1.43,2.05,2.57,3.31,3.71,1.26,1.13,2.38,2.19,2.23,3.23-.04.35-.86-.41-1.25-.78.41.29.93.89,1.47,1.6.53.71,1.05,1.55,1.56,2.26,1,1.43,1.86,2.41,2.08,1.2,2.04,4.81,5.67,8.25,6.61,12.46,1.44.81,2.23,2.93,2.91,4.83.36.94.71,1.82,1.15,2.45.42.64.92,1.03,1.61.98-1.33.36-.92,2.68.03,5.27.47,1.3,1.09,2.67,1.75,3.88.63,1.22,1.29,2.3,1.87,2.98-1.14-.78.15,3.02-1.35,2.14,1.23,3.59,2.74,6.77,3.87,5.74-.28,1.93,0,3.68.5,5.34.48,1.66,1.22,3.19,1.89,4.66,1.31,2.94,2.41,5.57.83,8,2.03,5.39,3.77,10.7,5.29,15.93,1.54,5.23,2.85,10.38,4.04,15.47-2.71.08-2.24-11.32-4.98-10.36,2.85,9.49,6.1,14.77,6.79,24.56-.05,2.56-1.34-1.27-1.94-2.05,2.47,9.6,2.03,18.81,3.97,27.38-.25-.01-.58-.93-.84-1.8.19,1.7-.17,3.99,1.05,3.74l-.43-1.65c.81-1.42,1.84.23,2.79,2.29.91,2.06,1.69,4.53,2.17,4.68-1.8-1.42-1.96.76-2.24,2.7-.32,1.96-.79,3.66-3.01,1.38.23,1.11.81,2.52,1.63,2.27-.24,1.67-.72,2.19-1.66.5.17,1.52.37,2.53.59,3.28.19.74.4,1.22.59,1.68.38.92.67,1.78.56,4.55-.59-.05-.79-1.18-1.47-1.77,1.11,2.83,2.02,5.74,1.17,10.38-.34-.31-.83.19-.71-1.2-.33,3.99.14,7.48.15,11.06.13,3.59-.16,7.27-1.62,11.48-1.9-3.09-1.55,2.72-3.83,2.62-.16,1.56-.29,3.14-.56,4.68l1.58-1.51c-.6,1.97-.78,3.94-1.02,5.84-.06.47-.12.94-.21,1.4-.1.45-.22.9-.35,1.33-.27.87-.61,1.7-1.1,2.48l.19-3.18-2.28,7.4,2.31-3.82c-.38,4.36,2.81.56.29,5.6.29-1.12-1.76,3.86-3.85,5.3,0,0,0-.01,0-.02-.1,1.09-.21,2.21-.51,3.38-.31,1.17-.94,2.33-1.91,3.58-1.02.37-1.89-1.72-2.56-1.48.35,1.32-.69,3.53-1.75,5.81-1.15,2.23-2.42,4.47-2.26,6.11.07-.99-.91-1.65-1.26-1.54l.37,2.27c-1.44,1.38-1.78,1.48-2.4.7-1.71,2.33-.93,2.31-.23,2.4.68.07,1.18.19-1.35,2.65.22-.51-.12-.43.35-1.48-2.32,2.61-3.96,5.55-5.94,8.18-1.93,2.66-3.71,5.39-6.23,7.44-1.47-.06-.63-1.18.21-2.23.87-1.03,1.61-2.13.23-1.91-1.42,1.78-2.86,3.59-4.24,5.5-.69.95-1.39,1.91-2.09,2.87l-2.24,2.76c-1.51,1.82-2.99,3.69-4.62,5.35-1.66,1.63-3.36,3.16-5.14,4.52l1.42-.9c.56,1.61-.95,2.43-2.93,3.3-2.03.81-4.48,1.69-5.8,3.67.73-.87.07-2.29.05-1.83-1.29.82-2.47,1.79-3.74,2.76-1.27.96-2.54,2.03-3.86,3.19-.66.59-1.34,1.19-2.04,1.82-.69.64-1.42,1.29-2.2,1.91-1.55,1.27-3.22,2.64-5.06,4.08l.55-1.31c-.86.32-1.8.78-2.79,1.3-1,.51-2.07,1.03-3.13,1.6-2.12,1.12-4.26,2.3-6.04,3.09-.64,1.24-2.71,2.12-.95,2.57-3.24.3-6.01,1.26-8.62,2.45-2.64,1.12-5.07,2.56-7.48,4.02-4.87,2.72-9.67,5.52-15.38,5.31,1.21-.42,2.64-1.65,1.68-1.32-2.79,1.17-5.54,2.48-8.39,3.52,1.09,1.11,1.39.49,3.55.94-.85,1.15-3.16,2.46-5.35,3.11,3.71-2.05-.67-2.12-2.57-2.37.4.32-.05.95.21,1.32-5.24-1.05-.02,2.95-6.8,2.98l.16-.79c-1.14.48-2.2,1.09-3.3,1.64-1.1.56-2.25,1.03-3.57,1.2-1.43-1.33,2.39-1.27,2.23-2.63-3.55.93-6.49,4.52-10.1,3.68,1.45-.77,3.67-1.25,5.11-2.02-3.96-1.09-4.25-.49-6.96-.28h.27s-6.28.26-6.28.26l1.65.22c-1.9,2.46-4.2,3.1-6.74,3.45-2.54.37-5.28.65-8.21,2.39,5.69-3.39.8-1.61,1.03-3.47-1.64-.29-4.1-.6-3.48-1.18-1.36.9-2.61.75-4,.71-1.39-.05-2.9.03-4.86,1.26-.24-.56-3.13.22-2.6-1.3-3.75.79.98.94.73,1.69-2.84,1.25-6.35.98-10.16.66-1.9-.14-3.88-.25-5.9-.13-2.03.08-4.1.39-6.19,1.16-3.63.72-5.79,1.51-7.89,2.3-2.1.77-4.14,1.59-7.57,2.06-1.16-.48-.68-1.01.08-1.42.76-.41,1.81-.71,1.81-.71-3.72-.87-6.5-.74-10.01-.09.72-.51,0-.93-1.06-1.62-2.8.08-1.92,2.08-5.6,1.13.65-.64,1.49-1.66,2.86-2.28-3.31.45-6.6,1.49-10.04,1.85-.87-1.06,2.12-1.46,3.35-2.07-3.85.29-9.97.52-11.25,2.05l2.44.7c-1.41.02-.65-1.41.39-1.67,3.35-1.12,4.72.76,4.89,1.36l-2.46.27c1.18,1.76,3.65,1.74,6.42,1.3,2.78-.47,5.85-1.34,8.3-1.18l-2.1,2.44c1.7-.65,3.4-1.28,5.09-1.98,1.06.66,1.79,2.05-.66,2.41,3.53,1.26,3.14-.87,6.18.53.34.22.18.34-.13.43l3.46-.73c-.68.53.58,1.77-1.55,1.4,6.25,1.39,10.01-1.98,12.39-.16l-.52.17c8.61-1.16.79-1.86,7.15-4.25,1.51,1.46,3.03,2.9,4.56,4.31l.75-1.88c.89.01,2.66.04,2.38.79,3.23-1.45-.61-.76,1.23-2.06,1.09.35,2.38.43,3.7.4,1.32-.06,2.68-.24,3.95-.37,2.52-.26,4.65-.33,5.27,1.08,1.39-1.52-4.18-.71.27-2.07,1.62,3,5.19-1.14,9.24-.15-.99,1.75-4.8,1.32-.72,2.31.51-.75,1.24-1.14,2.1-1.32.86-.2,1.86-.21,2.89-.14,2.07.13,4.31.51,5.92,0-.18-2.12,6.97-2.1,12.3-3.85-.21.78,10.5-.95,15.73-1.59l-.06.39c.21-1.2,1.64-2,3.47-2.72,1.81-.77,4.02-1.43,5.82-2.2.23,1.31-.29,2-2.17,3.17l3.54-1.05c.62-.94,1.64-1.55,3.81-2.56l-.38,1.86c4.65-1.68,8.75-4.9,15-6.25-.26-1.55-6.16-2.2-.44-5.52.53.68,1.3,1.91-.19,2.85.49-.3,1.62-1.37,2.82-1.45l-1.94,2.25c2.89-.48.97-1.59,3.11-2.36.42,1.11,1.87.1,1.94,1.09-.5.33-2.01.39-2.65,1.11,2.47-.79,5.59-1.45,6.92-1.04-.48-.52-.65-1.46,1.02-2.36,2.23-1.02,2.75-.89,3.08-.57.34.33.48.85,1.9.48.71-1.27,3.9-1.92,3.18-3.53,1.29-.63,1.9-.02,2.62.16.99-.87,3.53-2.42,5.44-3.7,1.91-1.29,3.15-2.37,1.43-2.49l-.63.21c.09-.09.21-.16.32-.27h-.02s.02,0,.02,0c.79-.7,1.63-1.34,2.49-1.93.84-.64,1.72-1.23,2.62-1.8,1.8-1.13,3.7-2.13,5.62-3.11,1.9-1.01,3.75-2.1,5.58-3.2,1.8-1.14,3.6-2.24,5.08-3.7l.34.48c1.74-1.78,3.84-3.54,5.75-5.25,1.88-1.74,3.48-3.54,4.4-5.15,1.09-.94,3.3-1.43,3.31-.5,1.3-1.38,1.82-2.35,2.67-3.29.84-.95,1.94-1.9,4.24-3.45-2,3.38,1.59-.26-2.27,3.25,1.95-1.53,3.29-2.32,4.48-3.34,1.18-1.03,2.12-2.37,3.33-4.85-.14,2.35,3.98-1.42,5.16-3.53-.99.68-2.09,1.25-3.13,1.87,1.67-2.04,3.16-3.79,4.76-5.51l.73,2.26c2.08-1.6,3.7-3.44,4.96-5.41,1.2-2.02,2.14-4.11,3.05-6.09.46-.99.91-1.95,1.4-2.87.44-.95.9-1.87,1.43-2.72,1.07-1.71,2.4-3.17,4.31-4.31.23-2.99-3.78,4.18-3.89,1.28,2.79-3.68,7.46-6.7,8.22-8.01,1.01-1.3,1.54-2.37,1.81-3.33.22-.98.2-1.85.17-2.71-.06-1.74-.16-3.5,1.56-6.4-.5.25-1.27.37-1.74-.17-.5-.55-.55-1.7-.06-4.14,1.82-4.18,4.77-4.3,4.28-1.32-.33,1.08-.73,1.51-.94,1.37-.28,1.51-.69,3.5.67,2.04l-.45-.84c1.49-1.92,3.66-8.06,4.24-6.25.32-1.79.06-2.27-.27-1.96-.33.31-.95,1.34-1.58,2.51.38-.67.72-1.31,1.03-1.93.27-.63.5-1.24.72-1.84.42-1.19.76-2.33,1.08-3.48.71-2.28,1.11-4.65,2.22-7.59-.62.87-1.65,1.55-1.41.61.37-1.07.67-1.95.85-2.66.17-.72.26-1.28.3-1.73.09-.9-.04-1.34-.22-1.69-.36-.71-.93-1.1-.5-4.1,1.59-3.23,2.37,1.66,2.4-4.57,1.29-3.62,1.99-.54,2.34,1.06-.21-2.91.28-5.5.96-7.79.34-1.14.74-2.21,1.05-3.2.3-.99.55-1.89.67-2.69l.36,3.04c-.21-1.82-.1-3.29.01-4.78l-1.54,1.61c.37-1.73.48-3.21,1.07-3.14-.82-1.85-2.43,1.22-3.52-2.38.79-2.28-.5-7.01,1.34-7.77-.81,7.25,1.95-.78,2.06,5.42-.19-1.21-.12-2.66.18-4.41.21-.26.4.25.48.74.88-3.5.32-4.32-.41-5.16-.76-.83-1.63-1.7-1.73-5.29,1.09.89,1.97-1.73,1.71-2.9.06,2.92-1.74,1.44-2.63-1.18.62-4.63-.89-4.95-.91-7.35l-.23,2.76c-1.13-.86-1.07-3.15-1.69-6.29.8-.34.81,2.83,1.08,1.67-1.08-1.69-.76-3.71-.38-5.92.36-2.21.73-4.61-.15-7,.47-2.35,1.98-.45,2.22-2.5-2.06-5.33.72-6.16-1.26-11.77-1.18,1.87-.79,2.1-2.75-1.73.77,3.09,1.61,6.18,2.32,9.3-.93-1.94-1.93-3.86-2.9-5.77.19,1.42.64,2.88,1.02,4.22.37,1.33.69,2.53.67,3.4-1.52-2.74-1.13-2.48-2.14-.97.83-2.08.25-3.97-.44-5.91-.68-1.94-1.45-3.93-1.1-6.27l3.52-.41c.25-3.51-.69-6.44-1.8-9.58-1.09-3.15-2.34-6.5-2.75-10.94l-.06,2.91c-1.62-.9-1.21-5.33-2.37-8.02,1.21.02,1.27-1.82,1.75-3.18-.83.33-1.3-6.4-3.82-6.65l.6-4.23c-.58-3.57-1.88-5.37-3.27-7.08-1.38-1.72-2.75-3.37-3.55-6.72,1.83,1.63,1.73-1.64,3.94,2.57-.65-2.23-1.04-4.3-1.83-4.1.17-.76-.7-2.18-1.56-3.7-.85-1.52-1.69-3.13-1.53-4.32-.82-.76-2.09-.65-2.85-3.12.13-.35.55-.19.55-.19-.55.18-2.19-3.51-2.61-.94.23-1.97-.08-4.14-.8-6.33-.35-1.1-.76-2.21-1.23-3.33-.49-1.1-1.02-2.21-1.55-3.3-1.02-2.21-2.23-4.3-3.05-6.33-.88-2.01-1.52-3.89-1.56-5.66-2.86-4.26-6.37-9.3-9.15-12.99.46.04.49-.33.89.46-1.38-2.94-2.63-3.26-3.97-3.61-1.34-.36-2.66-.82-4.4-4-.42-2.01.38-1.45,1.19-.64.81.8,1.55,1.89,1.14.74,1.25-1.62-.29-3.23-2.26-5.09-.97-.94-2.11-1.89-3.1-2.93-.98-1.04-1.8-2.2-2.21-3.49.33.23.65.48.97.73-.77-1.85-2.68-3.23-4.81-4.75-1.08-.75-2.28-1.48-3.43-2.32-1.17-.84-2.29-1.79-3.39-2.84,0,0,.45-.06.42-.41-4.39-1.4-10.77-5.89-15.71-8.94,2.35-.12,2.57.98,2.64-.93-2.2-1.42-.89,2.39-5.3-.32-.43-.83-1.28-1.95-1.98-3.06-.71-1.09-1.24-2.18-.98-3,1.38.9,2.74,1.81,4.08,2.78-.19-.81-.62-1.45-1.18-1.98-.57-.52-1.27-.92-2-1.28-1.47-.71-3.05-1.26-4.03-2.13l.8-.6c-3.29-1.92-5.23-2.45-7.26-2.94-2.03-.49-4.01-1.15-7.49-3.17l.37,1.02c-2.49-.07-3.12-.8-3.72-1.6-.61-.78-1.21-1.64-3.55-1.89l-.08-2.72c-2.86-.85-10.12-2.55-15.05-4.17,3.39-.44,9.33,1.32,13.19,2.13-2.57-1.35-8.97-4.15-10.83-3.66,1.15.27,2.75.33,3.63,1.16-4.01.19-8.57-.86-13.86-3,1.33-1.94-2.05-3.62-6.14-5.28-4.1-1.65-8.88-3.25-10.37-5.57-5.16-.71-10-2.22-15.07-3.84-5.07-1.6-10.39-3.26-16.33-4.15,3.57,4.22-3.47-.48-3.33,3.27-2.75-.21-3.79-.39-4-.67-2.65-1.15-5.34-2.15-8.05-3.23-1.88-1.28,2.72-.51,2.56-1.34-3.03-.52-3.64-.92-3.97-1.44-.34-.51-.41-1.08-2.41-1.76.71,1.38-2.29,1.65-5.77.95,1.61.69,3.22,1.32,4.8,2.05-4.34.64-6.12-.24-7.95-1.11-.91-.42-1.83-.84-3.08-1.06-1.24-.22-2.81-.23-4.99.25l2.78-1.12c-2.25.32-6.38.22-10.5.63-2.06.16-4.11.49-5.9.94-.9.23-1.73.49-2.46.79-.74.33-1.37.69-1.89,1.1-.81-.36-1.94-1.27,0-1.7-5.36.14-11.21,1.71-16.67,3.2-5.46,1.61-10.54,3.12-14.77,3.35l.56-1.08c-1.88.79-2.93,2.46-5.56,2.35.02-.39.52-1.09-.39-.87-.47.3-1.63,1.07-3,1.79-1.38.71-2.92,1.5-4.27,1.68l1.81-1.7c-2.58.6-4.79,1.34-6.71,2.34-1.93.97-3.63,2-5.19,3.18-1.58,1.14-3.06,2.33-4.59,3.54-1.55,1.17-3.14,2.38-4.98,3.52-1.22-2.43-8.85.83-12.56,2.66l-.07-.39c-5.29,3.06-9.24,6.48-12.87,9.98-3.64,3.51-6.92,7.21-10.86,11.09-3.57,1.04-8.2,4.59-12.98,8.69-4.79,4.11-9.72,8.77-14.22,12.03,1.55-.82,1.23,1.65.04,3.22-2.22,1.42-3.71,6.3-5.15,4.33l.67-.62c-1.52-.14-3.1.85-4.67,2.25-1.54,1.42-3.08,3.23-4.52,4.73l1.86,2.66c-5.37,2.39-9.77,8.06-13.51,13.39-3.77,5.32-6.8,10.36-10.24,11.54-.88,2.62-2.82,5.25-3.59,7.87l-1.33-1.07c-2.25,2.91-3.85,5.15-5.49,7.64-.83,1.24-1.59,2.58-2.47,4.09-.88,1.5-1.78,3.22-2.79,5.27l-.15-2.22c-2.68,4.46,1.23,8.07-.79,12.24l-2.91.14c-1.03,1.98-2.06,3.97-3.1,5.97-1.05,1.99-2.14,3.97-3.16,5.98-.98,2.03-1.77,4.13-2.46,6.26-.34,1.07-.63,2.15-.87,3.24-.25,1.09-.42,2.2-.46,3.35-.3-.25-.94-.75-.57-2.15-.7,1.99-2.31,5.76-3.31,8.98-.24.81-.47,1.57-.59,2.28-.11.71-.15,1.34-.11,1.86.08,1.04.49,1.63,1.43,1.49-2.2-.48-2.61,8.87-2.4,13.75l-1.49-1.06c.65,2.2,1.11,3.35,1.35,4.65.13.65.16,1.34.2,2.22.04.88.04,1.95-.02,3.36-.41,1.28-1.49.95-.81-.73-1.49,4.27,1.02,3.63-.55,8.82-.3-.71-.56-1.41-.81-2.11-.67,4.52.01,4.24.99,6.84.2,1.45-.1,3.57-.66,5.42-.46,1.85-1.17,3.43-1.95,3.73.89.67,2.02,3.2,1.48,5.85-.59.35-.9-.64-1.05-1.13-.18.95-.3,1.84-.35,2.68-.02.84,0,1.64.07,2.39.12,1.51.36,2.85.58,4.11.45,2.53.8,4.74.19,7.39-.55.14-.8.49-.94.94-.07-1.52-.19-2.96-.2-4.27,0-1.31.01-2.48.02-3.44.02-1.93.06-3.04.13-2.81-1.54,0-1.76,4.97-3.93,1.04.63,1.98,1.47,4.66,2.36,7.45.86,2.76,1.49,5.61,1.28,8.03-.13.24-.27.48-.49.68l-.2-.48c-.1,1.12.16,2.1.53,3.01-.08,1.55-.15,2.54,0,4.02-1.17.71-.11,5.76.34,8.19,1.63-.45,1.9,2.75,2.77-.43-.05.4-.28-.42-.62-2.02-.12-.35-.2-.78-.32-1.01.05.04.11.09.17.15-.23-1.59-.51-3.67-.81-6.03,1.08,1.83,2.01,3.72,1.42,6.53,1.28,1.08,2.61,2.26,3.26,2.93-.88,1.81-1.37,4.37-1.79,6.63-.23,1.13-.36,2.18-.54,3.02-.18.84-.4,1.48-.7,1.77,1.31,3.58,2.34,7.89,3.97,11.67.77,1.9,1.57,3.7,2.46,5.23.43.77.92,1.47,1.45,2.07.52.61,1.07,1.13,1.63,1.56,1.07,1.86-.07,2.58-.28,3.5-.7-1.05-1.13-2.45-1.78-2.93,1.08,1.88,2.18,4.83,3.32,7.33,1.28,2.45,2.56,4.44,3.77,4.49,1.1,5.31-3.02-2,.1,4.65l-1-.65c.25,1.87.78,3.53,1.42,5.08.63,1.55,1.37,2.99,2.18,4.34,1.56,2.75,3.66,5.04,5.66,7.39,1.01,1.18,2.01,2.36,2.98,3.6.98,1.23,2.02,2.46,2.95,3.82,1.89,2.71,3.42,5.9,4.82,9.78-.4-1.07-.61-1.59-.43-1.98,2.18,4,4.62,7.94,7.58,11.53,1.45,1.82,2.88,3.66,4.43,5.41l4.75,5.14,2.37,2.56,2.47,2.47c1.63,1.65,3.23,3.32,4.78,5.02,1.6,1.65,3.21,3.28,4.73,5,1.53,1.7,2.94,3.52,4.43,5.23,3.49,3.8,4.83,3.09,7.87,4.25l-.26,2.09,5.51,1.57c1.73.82,3.04,1.98,4.26,3.21,1.24,1.21,2.34,2.58,3.53,3.96,1.19,1.37,2.46,2.78,4.05,3.98,1.63,1.14,3.56,2.12,5.98,2.74l-.42-1.68c1.41.96,3.78,2.29,5.74,3.3,1.96,1.01,3.41,1.92,2.83,2.4.42-.03,1.59-.59,2.47.6l-.35.89c1.37.41,2.71.87,4.09,1.24l4.15,1.04c2.79,1.68,2.18,2.43,1.92,3.28-.13.43-.16.88.38,1.49.54.6,1.63,1.42,3.87,2.33,3.5,1.01,10.45,1.21,9.41.12-1.31-.57-3.17-1.91-2.92-2.83l3.15.73c1.54-2.39,4.66-4.22-1.63-8.85l-5.55-.38-1-1.96c1.34.63,2.72,1.13,4.11,1.66-.91-1.07-1.86-1.44-2.79-1.64-.93-.19-1.89-.12-2.86-.14-.09-.84-.54-1.61-1.37-2.29l-5.86.21c-.04-.63.73-.85,1.15-1.2.43-.35.46-.73-.91-1.83-2.7-.04.95,3.29-2.98,2.1-1.66-2.33-.5-2.88-3.64-3.33-.02-.83.76-.93,1.94-.66-1.36-.25-2.95-.97-4.42-1.6-1.44-.68-2.78-1.2-3.75-.92-.73-1.36-2.68-2.43-4.26-3.42-1.59-.98-2.7-2.04-1.87-3.05-1.02.07-4.99-.89-7.07-2.18,1.38-.02,1.6-.36,1.21-.89-.39-.53-1.4-1.23-2.42-2.09-2.08-1.68-4.45-3.62-2.95-4.61-1.08.07-2.25-.28-3.5-.88-1.24-.6-2.47-1.56-3.77-2.54-2.58-2-5.36-4.26-7.96-5.73.39.06,1.16.16,1.44.61-2.22-2.42-2.32-3.69-3.46-5.5-.96.69-2.5.31-4.09-.46-1.59-.78-3.31-1.86-4.79-2.36-1.14-4.47,3.69-.14,4.38-2.57-1.22,1.47-6.17-3.69-6.4-1.64-.99-3.24-1.23-2.46-.8-4.93-2.57,1.52-2.22-1.82-5.27-2.58-.46-1.06-.57-1.78-.56-2.29,0-.51.12-.8.17-1.06.1-.52-.06-.89-1.89-2.52-.69-2.37,2.75.37,2.75.37ZM54.56,306.5s.03,0,.03,0c.1,1,.19,1.86.25,2.4-.06-.5-.14-1.19-.28-2.4ZM54.01,296.69c-.02.6-.05,1.27-.03,1.99.04.72.09,1.48.14,2.27-.56.37-1.18.03-1.21-.96.42.52.59-1.82,1.11-3.3ZM44.07,318.92c-.43-1.6-.16-2.19.16-2.46.12.77.28,1.66.53,2.83.07.04.15.13.23.16-.34-.11-.66-.25-.91-.53Z"/><path class="cls-1" d="M46.63,321.54c.08.23.17.34.23.64.09-.35.16-.68.21-1.01-.21-.17-.42-.34-.6-.5.04.29.1.59.16.86Z"/><path class="cls-1" d="M390.36,449.88l.21-.07c-.19.03-.36.05-.51.01.17,0,.19.05.31.06Z"/><polygon class="cls-1" points="96.92 171.72 96.57 171.48 96.37 172.39 96.92 171.72"/><path class="cls-1" d="M337.29,465.79c-.14-.11-.38-.2-.8-.21.06.1.4.16.8.21Z"/><path class="cls-1" d="M314.26,470.89h-3.39c1.48.08,2.55.05,3.39,0Z"/><path class="cls-1" d="M296.23,472.98c-.19.33-.22.56-.26.77.01,0,.02,0,.04,0l.22-.78Z"/><path class="cls-1" d="M469.18,286.56c-.02-.24-.06-.48-.12-.69-.42-1.6-.23-.51.12.69Z"/><path class="cls-1" d="M459.91,370.04c.1-.95.19-1.89.4-2.82-.74,1.32-1.25,2.38-.4,2.82Z"/><path class="cls-1" d="M449.73,193.7s.01,0,.03,0c-.07-.19-.12-.35-.19-.54l.16.54Z"/><path class="cls-1" d="M461.92,363.62c-.84,1.29-1.36,2.43-1.61,3.6.59-1.09,1.42-2.33,1.61-3.6Z"/><path class="cls-1" d="M217.6,474.81l-.87-.11c0,.11-.05.2-.12.27l.99-.16Z"/><path class="cls-1" d="M216.61,474.97l-.98.16c.45.02.84.02.98-.16Z"/><path class="cls-1" d="M213.55,475.44l2.07-.31c-.71-.04-1.58-.15-2.07.31Z"/><path class="cls-1" d="M241.68,476.22l.28-.61c-.15.13-.25.32-.28.61Z"/><path class="cls-1" d="M249,476.02c-1.75-.1-4.38-1.24-6.81-.89l-.23.49c.57-.45,1.92-.08,3.33.28,1.41.34,2.89.65,3.71.12Z"/><path class="cls-1" d="M280.1,482.14c-2.09.02-4.17.05-6.25,0,1.13.58,2.63,1.37-.2,1.7,4.01.74,3.58.35,3.16-.17-.41-.54-.79-1.29,3.29-1.52Z"/><path class="cls-1" d="M299.47,480.93c-3.29.79.17.93.04,1.32,2.04-.9,2.52-1.12-.04-1.32Z"/><path class="cls-1" d="M426.71,425.17l.77,1.36c1.78-1.96-.37-.44-.77-1.36Z"/><polygon class="cls-1" points="439.08 400.45 436.81 401.72 437.15 403.52 439.08 400.45"/><polygon class="cls-1" points="457.24 394.14 456.8 395.25 458.72 391.17 457.24 394.14"/><path class="cls-1" d="M453.05,163.21l-1.33,1.57c1.08,1.44,3.16.86,1.33-1.57Z"/><path class="cls-1" d="M379.64,91.96c-.51-1.35-2.72-3.37-4.76-3.36,1.99,1.18,3.61,3.01,4.76,3.36Z"/><path class="cls-1" d="M102.05,141.51l.92-1.96c-.75,1.07-1.49,2.16-2.21,3.26l1.29-1.3Z"/><path class="cls-1" d="M253.05,313.53c-.37.42-.64,1.57-.04,1.52l1.01-1.76-.97.24Z"/><path class="cls-1" d="M255.53,318.17c.93-.75,2.08-2.19,2.15-4.06-1.11,1.68-1.04.87-2.36,2.87-.61.05-.75-.91-.45-1.58-.34.42-.68-.68-1.36.41.21,1.67,1.13,2.08,2.42,1.1.08.47-.25.92-.4,1.26Z"/><path class="cls-1" d="M311.7,314.13l-.45-.03c.15.07.3.07.45.03Z"/><path class="cls-1" d="M339.59,290.71c-.12.26-.02.47.12.59.04-.29.06-.54-.12-.59Z"/><path class="cls-1" d="M344.85,286.37c-.12.09-.2.18-.3.28.23-.04.39-.12.3-.28Z"/><path class="cls-1" d="M311.7,314.13c.39.03.76.05,1.15.07-.26-.6-.66-.17-1.15-.07Z"/><path class="cls-1" d="M263.89,315.12c-.19.07-.37.23-.55.44.16-.06.32-.11.47-.14.03-.1.05-.18.08-.3Z"/><path class="cls-1" d="M297.4,321.84l-.29.09c-.02.24-.02.53,0,.85l.29-.94Z"/><path class="cls-1" d="M285.19,324.91c.3.04.14-1.64.14-2.39-.05.71-.21,1.06-.44,1.22.04.32.13.69.3,1.17Z"/><path class="cls-1" d="M265.51,322.25l-.37.19c.1-.06.26-.11.37-.19Z"/><path class="cls-1" d="M305.97,319.09c.12.22.25.41.35.51-.08-.19-.21-.36-.35-.51Z"/><path class="cls-1" d="M190.77,186.54c-.1-.07-.17-.1-.25-.16.11.14.2.22.25.16Z"/><path class="cls-1" d="M177.86,194.57l-.02-.21c-.3-.11-.59-.23-.89-.32l.91.53Z"/><path class="cls-1" d="M351.8,276.21s-.03.02-.05.04c.07.37.1.18.05-.04Z"/><path class="cls-1" d="M337.45,172.74c-.61,1.83-2.69-.58-3.1,1.85.45-.51,3.09-.03,3.1-1.85Z"/><path class="cls-1" d="M264.13,315.38c.15,0,.3.01.45.06-.19-.09-.33-.1-.45-.06Z"/><path class="cls-1" d="M334.35,174.59h-.01s-.03.25-.03.25c.02-.1.03-.16.05-.25Z"/><path class="cls-1" d="M356.26,249.24c-.3.03-.53.12-.76.22.17,0,.39-.04.76-.22Z"/><path class="cls-1" d="M350.63,268.53l.35-.42c-.2.15-.29.29-.35.42Z"/><path class="cls-1" d="M354.24,238.91c.13-.26.36-.35.14-.71-.09.03-.15.07-.21.11.23.13.34.3.07.6Z"/><path class="cls-1" d="M353.76,228.33c-.12.07-.21.15-.32.22.04.1.08.22.12.33l.2-.55Z"/><path class="cls-1" d="M210.15,166.89c-.44-.29-.83-.65-1.21-1.03.78.92-.14,2.05,1.21,1.03Z"/><path class="cls-1" d="M263.74,316.06c.12-.41.24-.61.39-.67-.11,0-.22.02-.32.04-.07.24-.11.48-.07.63Z"/><path class="cls-1" d="M340.94,238.54l.22-1.51c-.16.43-.22.97-.22,1.51Z"/><path class="cls-1" d="M274.88,148.4l-.35.16c.13.05.25.02.35-.16Z"/><path class="cls-1" d="M340.74,232.58c.58-.3.91-.61,1.12-.92-.13-.05-.25-.12-.44-.15l-.68,1.07Z"/><path class="cls-1" d="M208.94,165.85s.01.01.01.01c0,0,0,0-.01-.01Z"/><path class="cls-1" d="M203.48,174.89c1.09-.83-.88-2.08-1.46-3.25.93-1.57,1.63.77,2.78,1.3.43-1.11-.12-3.19.56-3.61.27.26.47.27.59.75-.16-2.13,2.67-1.99,2.53-4.59.19.11.34.24.45.36-.79-.81-1.45-1.72-1.85-2.42.54-.4.3-1.85,1.3-.77-.37.19-.08.7,0,1.18l.25-.91c1.66,1.42-.42,1.12.43,2.41.76-1.27,1.18-3.63,2.41-3.64,1.22,1.62-1.72,1.85.4,2.67l-1.75.19c2.74,2.07-.92.32,1.85,2.63,2.01-.6,1.4-2.08,3.47-2.62-.16-1.22-.97-1.37-1.13-2.59,1.65-3.25,4.5,3.35,5.12-.05-.13-1.46-1.1-3.86.92-3.35l.56,2.3c1.89-.71-.42-3.49,2.19-3.02.04.98-1.12,1.37-.73,1.49,2.03,1.05.32-1.59,1.29-2.05l1.06,1.76c.9-.62,1.75-1.49,2.65-2.35.9-.87,1.82-1.81,2.88-2.4.1.61-.04,1.35.71,1.73,1.22-1,2.74-1.57,4.36-1.76,1.62-.18,3.29-.15,4.84.03l.53-2c.25-.06.68.63.52,1.03,1.26.32-.27-1.09.06-1.91.59-.3,1.1.73.86,1.35.73-1.02,1.89-2.16,3.2-2.87.65-.36,1.33-.63,2.01-.71.68-.08,1.35.05,1.96.4l-.29.59c1.72.37,1.08-3.91,2.9-2.62l-.23.37c1.82.07,3.63-.44,5.39-.66,1.75-.15,3.44-.13,4.87,1.12.34-2.56,3.49.92,3.57-2.62,2.07,1.72,1.51,2.37,4.25,3.53.72.15,1.14-2.16,2.09-2.49l-.06,1.85,1.35-1.87.52,2.24.89-.43c-.33-.13-.66-.86-.57-1.39,1.44-.77,3.15,1.63,3.05,2.55l1.65-.6c.55-.19,1.1-.34,1.66-.51-.19.72-.75.88-1.22,1.28,1.92-1.57-.02,1.98,1.74.53-.13-.45.3-1.07.4-1.43.28.62.84,1,1.49,1.2.66.2,1.39.3,2.07.21l-.53,1.18c.53.21,1.09.35,1.67.45.59.09,1.19.15,1.8.27,1.21.2,2.5.34,3.7.77-.66-.86.26-2.89,1.07-2.82l-.39,1.94c.88-.95-.5-.99.97-2,.85.57-.19,2.31-.91,2.71l1.33-.21c-.15.57-.52.75-.86,1.42.44-.48.73.16,1.06.69.33.55.7,1.02,1.44.2l-.18.56c.57.26,1.08.44,1.55.59.47.16.89.29,1.31.41.84.24,1.66.4,2.57.9.87-1.45,1.39-.71,2.64-1.56.56.61,1,1.48,1.51,2.27.52.78,1.1,1.51,1.89,2.02,1.56.09,1.15-.93,2.23-1.39-.81,1.29.77,2.31-.67,2.59,1.91,1.21,2.44,1.5,5.43,2.49.18-.68.09-1.12.58-1.39.58.17.49,1.28-.07,1.78l-.21.02c1.97.28,2.61,2.42,3.08,4.41.26.98.49,1.94.89,2.65.41.7,1.04,1.12,2.06,1.11h-.21s2.99,1.04,2.99,1.04c.57,1.13-1.38.13-1.55,1.43,1.89.36,2.51,1.36,2.98,2.35.45,1.02.77,2.02,2.16,2.55-1.42,2.05-.45,3.31.64,4.66,1.12,1.31,2.41,2.7,1.71,4.46l.88-.62c1.23.09-.17.97-.18,1.5.71-.44.54-1.06,1.24-.97,1.8,2.18,2.7,4.96,3.14,7.88.49,2.9.52,5.92.93,8.71.3,2.02,5.64-.49,3.93,2.77l-2.11-.17c1.7,1.68,2.24,3.78,2.64,5.87.4,2.1.71,4.19,2.04,6.06-.49-.17-1.08-.07-1.14-.47-.64.55-.52,1.33-.09,1.97.4.64,1.12,1.13,1.7,1.05-.04.66-1.03.3-1.57.78-.71.96,2.13,1.92.74,2.56-.22.11-.49-.19-.62-.33.75.48.12,2.63,1.71,1.92-.63,1.61.99,2.9.12,4.2,1.9.7-.76,2.69,1.88,2.83-2.69,0-2.12,2.77-.82,3.75-.82-.32-.85.86-1.99.48.03,1.11.54,2.15,1.93,1.97-1.65,1.02-1,2.05-.51,3,.5.94.9,1.8-1.22,2.26,1.27,3.37,1.95,6.57,2.15,9.64-2.66-.48.17-3.33-2.68-3.53.78,2.87,2.85,4.89,1.68,7.56-.49.65-1.08-.63-1.49-.95.58,2.98-1.33,5.2-.58,7.96-.24-.08-.44-.41-.57-.71-.03.5-.68.98.51,1.27l-.18-.55c1.95-.29,3.01,2.94,3.87,3.34-3.09-1.87-1.63,2.14-5.44-.54.12.37.54.94,1.34,1.14-.38.38-.88.36-1.61-.4.07,1.86,1.48,1.72.91,3.22-.55-.22-.66-.6-1.25-1.01.82,1.16,1.57,2.36.59,3.42-.3-.22-.79-.26-.63-.62-.35,1.1-.09,2.27.03,3.48.13,1.2-.03,2.34-1.11,3.23-1.91-1.92-1.15.36-3.18-.66l-.11,1.48,1.21.1c-.32.5-.27,1.19-.29,1.83-.04.62-.15,1.19-.75,1.42l-.27-1.25-.9,2.1,1.42-.58c.26,1.68,2.42,1.48.97,2.51.03-.4-.78,1.01-2.22.73,0,0,0,0,0,0,.2.91.43,1.92-.61,2.27-.71-.27-1.81-1.7-2.28-1.88,1.07,1.63-1.38,2.52-.43,4.38-.18-.5-1.05-1.29-1.28-1.39l.79,1.39c-.75.1-.97,0-1.6-.71-1.35,1.06,2.46,1.54.17,2.2.02-.2-.19-.3-.13-.7-.94.51-1.47,1.36-1.99,2.22-.53.84-1.11,1.63-2.05,1.99-1.9-1.31.83-1.51-.91-2.49-1.6,2.08-2.46,5.65-4.9,6.81l.54-.09c.8,1.4.16,1.38-.7,1.23-.86-.14-1.91-.4-2.04.6.14-.38-.64-1.71-.51-1.36-.86.31-1.53.92-2.18,1.8-.65.89-1.36,1.94-2.31,3.06l-.11-.88c-1.26-.09-2.64.94-3.82,1.13.07.89-.58,1.06.3,1.95-2.63-1.35-3.81-.1-5.07,1.17-1.21,1.31-2.51,2.59-4.6,1.29.35-.13.6-.97.32-.87-.74.54-1.51,1.01-2.28,1.52.61,1.26.58.7,1.44,1.56-.08.89-.64,1.73-1.29,1.93.92-1.26-.65-2.12-1.35-2.73.2.39.16.88.32,1.29-2.02-2.02.51,2.75-1.82,1.65l-.08-.73c-.6.56-1.05,1.64-1.87,1.6-.67-1.49.6-.9.34-2.19-1.02.31-1.48,3.45-2.79,2.07.38-.51,1.03-.68,1.39-1.21-1.44-1.61-1.44-1.11-2.28-1.28l.08.03-1.92-.53.53.43c-.31,2.18-.99,2.5-1.74,2.59-.76.11-1.57.05-2.36,1.52,1.51-2.8.13-1.53.08-3.35-.51-.43-1.25-.96-1.1-1.48-.71,1.53-1.46-1.04-2.49,1.2-.09-.58-.9-.03-.78-1.5-1.05.5.3,1.01.25,1.74-.8,1.02-1.84.48-2.92-.03-1.09-.54-2.22-.92-3.49.37-2.16,1.01-2.72,2.97-4.88,3.7-.58-1,.79-2.06.79-2.06-.99-.98-1.8-.88-2.92-.4.28-.47.13-.93-.07-1.63-.82.02-.88,2.02-1.81,1,.3-.61.72-1.6,1.2-2.19-1.01.41-2.13,1.27-3.22,1.58-.04-1.05.91-1.39,1.37-1.97-1.15.23-2.95.32-3.69,1.76l.56.75c-.42-.03.13-1.4.48-1.61,1.21-1.03,1.21.83,1.15,1.42l-.78.22c-.02,1.75.75,1.77,1.66,1.41.91-.34,1.96-1.16,2.65-.94l-1.01,2.37c.62-.6,1.22-1.2,1.81-1.81.22.69.25,2.11-.53,2.36.9,1.4,1.06-.73,1.81.73.08.22.02.34-.09.43l1.14-.63c-.26.5,0,1.77-.63,1.34,1.81,1.67,3.24-1.59,3.83.34l-.17.14c2.7-.7.37-1.79,2.38-3.87.39,1.51.8,3.02,1.24,4.53l.28-1.83c.27.07.81.21.72.94,1.01-1.24-.18-.8.4-1.98,1.34,1.63,3.52-.89,3.98,1.99.38-1.42-1.31-.98.01-2.05.62,3.1,1.56-.67,2.86.67-.2,1.64-1.45.88-.09,2.22.45-2.77,2.43.31,3.42-.34-.26-2.13,2.07-1.25,3.63-2.26.02.73,3.4.53,5.17.85l.05.37c-.25-2.23,1.45-2.2,2.46-3.01.33,1.28.28,1.84-.19,2.6l1.1-.35c.05-.76.28-1.22.91-1.68l.23,1.65c1.47-.53,2.28-2.83,4.5-2.46-.48-1.47-2.92-3.47-1.47-5.13.37.75.96,2.04.6,2.55.12-.17.31-.87.76-.68l-.23,1.61c1.04.24,0-1.26.68-1.4.43,1.1.8.59,1.06,1.49-.12.18-.75-.22-.83.31.81-.1,1.98.18,2.64.87-.33-.6-.62-1.46-.15-1.84,1.34-.71,1.05,1.09,2.12,1.26,0-.9,1.25-.54.51-2.15.41-.18.84.53,1.21.88.36-1.07,3.2-1.9,1.52-3.15l-.24-.02s.05-.07.08-.13h0s0,0,0,0c.72-1.35,1.94-1.81,3.28-2.13,1.31-.36,2.7-.65,3.56-1.65l.32.5c.87-1.43,2.58-2.23,2.65-3.93.35-.26,1.49.23,1.76.91.66-1.06.35-1.63,2.25-1.96-.25,1.55.89.45-.45,1.36,1.49-.57,2.4-.08,2.59-2.37.58,1.53,2.13.65,2.37-.19l-1.53-.08c.46-.72,1.08-1.1,1.7-1.49l1.07,1.72c2.02-.22,2.33-2.04,2.68-3.55.31-1.58.66-2.86,3-2.46-.5-1.54-1.88.66-2.62-.99,1.15-.87,4.3-.25,4.62-.61,2.17-.92-1.15-3.3.71-4.49-.75-.2-2.39-1.12-2.09-2.73.99-.99,3.45.22,3.41,1.31-.15.33-.43.34-.62.19-.05.54-.15,1.23.81,1.19l-.48-.57c1-.19,2.08-1.93,2.8-.9.06-1.31-.72-1.03-1.48-.55.97-.5,1.36-1.14,1.72-1.8.35-.67.69-1.34,1.48-2.03-.49.09-1.37-.09-1.2-.35,2.12-2.08-.59-1.75.02-3.56,1.46-.47,2.17,1.53,2.18-.63,1.17-.76,1.82.57,2.13,1.28-.47-2.23,2.27-2.73,2.89-3.62l.16,1.12c-.09-.67.1-1.1.29-1.55l-1.53-.03c.44-.42.63-.86,1.18-.63-.66-.87-2.35-.47-3.14-1.98.93-.42.04-2.31,1.9-1.91-1.39,1.94,1.88.4,1.48,2.36-.08-.44.09-.87.53-1.31.23,0,.34.21.39.39,2.34-1.58-1.67-1.69-.91-3.83.93.6,2.08.1,1.98-.34-.29.89-1.82-.11-2.36-1.14,1.22-1.16-.15-1.68.14-2.37l-.6.72c-.95-.57-.63-1.21-.7-2.25.83.12.32,1.01.76.76-1.52-1.51,2.49-1.95,1.6-3.76.85-.55,1.97.36,2.58-.17-.99-2,1.81-1.61,1.02-3.65-1.51.29-1.17.42-2.33-1.07l.46,3.13c-.56-.77-1.13-1.52-1.7-2.27-.18.87.56,2.02.2,2.51-.96-1.12-.63-.95-1.88-.77,2.33-.8-.78-2.57.85-3.69l3.5.6c.95-.95.65-1.98.23-3.08-.39-1.1-.9-2.27-.31-3.6l-.71.82c-1.36-.51-.01-1.71-.52-2.65,1.17.18,1.65-.34,2.42-.67-.87-.02.22-2.04-2.13-2.42l1.63-1.14c.74-2.22-3.27-2.65-2.83-4.73,1.27.66,2.13-.3,3.02,1.15.03-.71.26-1.36-.56-1.38.74-.42-1.59-1.97-.46-2.62-.52-.3-1.77-.38-1.69-1.17.24-.09.59,0,.59,0-.59,0-.82-1.22-2.12-.51,1.83-1.11,1.72-2.64,1.5-4.11-.19-1.48-.52-2.88.99-3.96-.5-1.52-1.11-3.32-1.35-4.7.36.05.59-.07.49.21.86-2.07-3.53-.73-2.6-3.04,1.74-1.39,1.19,1,1.81.2,1.91-.43,1.68-1.08,1.23-1.84-.47-.76-1.17-1.61-.17-2.54l.29.32c1.12-1.38-1.96-2.48-2.06-4.34,0,0,.35.02.58-.11-2.2-.84-3.38-2.98-4.36-4.54,1.62.14.99.57,2.4-.14-.42-.71-2.35.84-3.18-.56.68-.7,1.08-1.99,2.63-2.6l.48,1.43c1.86-1.31-.57-1.88-.46-2.73l.93-.17c-.98-2.16-3.2-1.49-3.83-3.86l-.59.47c-2.64-.51.89-1.5-1.19-2.18l2.09-1.18c-.86-.65-3.21-2.14-4.24-3.41,1.98.15,3.49,1.58,4.87,2.33-.29-.85-1.24-2.8-2.51-2.78.35.24,1.06.45.85.91-2.16-.33-3.51-1.28-4.16-2.89,2.17-.77,1.96-1.94,1.55-3.25-.4-1.31-1.09-2.71.22-4.1-1.45-1.06-2.07-2.51-2.53-4.15-.53-1.6-.88-3.41-2.03-4.92-2.32,3.01-.67-.87-3.65,1.29-.65-.59-.77-.89-.61-1.09.14-1.12.25-2.23.36-3.37.52-1.13,1.13.22,1.77-.3-.86-1.76.82-1.55.88-3.19-.91.97-1.93.54-2.19-.65l-.44,2.25c-1.59-.51-1.31-1.42-1.05-2.36.27-.93.53-1.9-1.11-2.37l1.46-.03c-.72-.35-1.54-1.37-2.57-2.21-1.07-.81-2.36-1.42-3.9-.94.15-.47.67-1.39,1.28-1.1-.46-.72-1.22-1.25-2.01-1.74-.81-.48-1.67-.91-2.54-1.29-1.7-.8-3.19-1.6-3.59-3.12l.78-.5c-.65-.23-1.93.55-1.93-.65.27-.26.77-.52.58-.75-.45,0-2.3.16-2.62-.77l1.19-.34c-.47-.75-1.05-1.2-1.69-1.48-.66-.26-1.38-.33-2.11-.34-1.46-.03-2.96.2-4.27-.25,1.47-2.2-.27-4.37-1.23-5.38l.23-.3c-3.28-2.31-6.94-1.23-10.53-1.66-.23-.86-.77-1.53-1.48-2.1-.71-.58-1.6-1.03-2.56-1.4-1.92-.77-4.03-1.46-5.61-2.62.42.6-.6,1.97-1.26,2.08-.69-.72-2.61,1.25-1.97-1.09l.28.12c-.1-2.5-1.97-2.15-3.29-2.46l-.75,3.09c-1.31-2.63-3.71-2.42-5.8-2.18-2.11.26-3.96.79-4.84-1.35-.44.38-.91.54-1.38.72-.47.2-.94.39-1.35.79l.06-1.7c-2.32-.41-3.53-.68-6.37-.07l.52-1.25c-1.66,0-1.73,5-3.14,5.21l-.66-2.48c-1.38.17-2.83-.22-4.26-.32-1.42-.07-2.81.19-3.97,1.54-.02-.37-.06-1.11.37-1.28-1.31.09-5.35-.73-4.17,2.58-.49-2.21-2.86.34-4.02,1.71l-.18-1.68c-.7,2.38-.58,2.96-2.09,3.95-.45-.11-.7-1.2-.06-.92-1.56-.51-.59,1.81-2.4,1.41l.29-1.2c-1.38.28-1.11.8-1.48,2.21-.32.45-.97.53-1.64.34-.66-.18-1.33-.63-1.66-1.32.11.94-.21,2.35-1.12,2.2-.29-.5-.13-.94-.04-1.15-2.61-.33-2.59,2.98-4.65,2.02-.23-.5-.43-.73-.61-.83,1.75-.63,3.18-1.08,3.09-.91-.52-1.47-2.05-1.17-1.64-3.6-.77,1.54-1.79,4.64-3.42,4.49-.12-.11-.24-.22-.38-.42l.08-.22c-.38-.02-.6.23-.77.59-.53-.05-.88-.1-1.3.05-.66-1.11-1.88.06-2.6.3.74,1.52-.27,1.66,1.14,2.57-.16-.06.05-.24.48-.5.08-.09.19-.17.22-.29,0,.05,0,.1.01.16.43-.24,1.01-.52,1.66-.84-.21,1.02-.48,1.92-1.61,1.39.08,1.14.15,2.33.15,2.9-1.87-1.76-4.19-2.05-5.06-3.25-1.68,1.8-4.63,2.97-4.39,6.43-.37.67-1.08-.45-1.53-.77.18-.46.59-.63.56-1.13-.76,1.34-3.24,2.13-2.38,4.22-1.9-.04-.23-2.23-1.98-.78l-.08-.74c-2.84-.41-3.66,1.84-4.51,3.89-.83,2.15-1.69,4.09-4.99,3.76.44.02.65.02.93.28-.71.22-1.37.51-1.99.87-.61.38-1.18.81-1.73,1.28-1.11.91-2.06,2.04-3.02,3.12-1.94,2.18-3.75,4.32-6.83,5.39-1.54.81-.56,1.89-.33,3.3l-1.64-.86c.2.88.38,1.71.63,2.59-.06,1.4-1.53,1.55-2.96,1.94-1.37.41-2.69,1.08-2.24,3.11l1.26.28c-.77.8-.95,3.31-2.13,2.51.15.2.97.88.21.97l-.87-.39c.08,1.03.26,2.08.4,3.09-.72.79-1.56.37-2.39.08-.82-.29-1.69-.47-2.29,1.01-.06,1.28,1.54,3.99,2.29,3.75.19-.41.94-.9,1.85-.63l.15,1.07c1.3.49,2.59,1.12,3.87,1.42,1.28.3,2.55.3,3.81-.33-.39-.62-.77-1.27-1.14-1.93l1.42.06c-.12.38-.21.77-.31,1.15,1.42-.19.47-.97-.03-1.71.71.17,1.26.18,1.62.03-.64-.76-1.27-1.55-1.88-2.36,1.06.31,1.73,1.47,2.64.88-.86-1.13-2.48-.45-2.76-1.82,1.48-.08,2.29.59,1.71-.63.69.23,1.02.6,1.15,1.02-.43-1.02.54-1.83-.56-2.89,1.74.18.97-2.33,3.16-.85-.21-.26-.49-.82-.66-1.38-.16-.56-.22-1.14-.07-1.45,1.89,2.82,1.61-1.96,4.14.37-1.68-2.42.99-3.29.94-5.51.1.22.32.66.12.67.79-.52,1.59-.13,2.37-.18-1.63-1.71-.97-3.1-1.41-4.71,2.4.82,1.43,2.47,3.22,3.77-1.38-1.31.05-2.73-1.3-3.62,1.61.44,1.03,0,2.67,1.14-1.86-2.28.26-.9-.39-2.74,1.9.26,2.03,1.88,2.52.31,1.08.29.81,1.85.81,1.85ZM230.04,153.76s.01.03.01.03c-.26.14-.49.27-.63.35.13-.08.31-.19.62-.38ZM232.76,152.68c-.36.07-.77.22-1.21.4-.31-.51-.42-1.11-.13-1.18-.01.42.76.49,1.34.79ZM222.41,144.26c.37-.42.66-.18.85.11-.21.12-.44.28-.73.53,0,.06.02.15.03.21-.08-.31-.15-.61-.15-.86Z"/><path class="cls-1" d="M222.46,146.64c-.05.06-.06.14-.14.19.15.1.29.17.42.23-.02-.19-.03-.38-.05-.55-.08.04-.16.09-.24.13Z"/><path class="cls-1" d="M311.18,314.09h.08c-.08-.03-.16-.07-.24-.15.08.05.1.1.16.15Z"/><polygon class="cls-1" points="271.76 149.05 271.78 148.62 271.52 148.98 271.76 149.05"/><path class="cls-1" d="M293.67,314.95c-.07-.13-.17-.27-.32-.36.04.1.17.23.32.36Z"/><path class="cls-1" d="M286.88,316.16l-1.06-.43c.47.26.8.37,1.06.43Z"/><path class="cls-1" d="M281.58,316.11c-.03.3-.03.53-.02.73,0,0,0,0,.01.01v-.74Z"/><path class="cls-1" d="M339.65,265.92c0-.07,0-.14-.02-.21-.2-.53-.15-.2.02.21Z"/><path class="cls-1" d="M332.53,289.57c-.08-.4-.17-.79-.16-1.12-.37.28-.6.53.16,1.12Z"/><path class="cls-1" d="M340.91,238.71s0,0,.03,0c0-.06,0-.11,0-.17l-.03.17Z"/><path class="cls-1" d="M333.09,287.53c-.53.17-.7.5-.71.92.31-.23.72-.46.71-.92Z"/><path class="cls-1" d="M259.45,314.1l-.22-.13c-.02.11-.06.19-.09.26l.31-.12Z"/><path class="cls-1" d="M259.14,314.23l-.31.12c.12.03.23.05.31-.12Z"/><path class="cls-1" d="M258.16,314.61l.66-.26c-.19-.06-.42-.17-.66.26Z"/><path class="cls-1" d="M266,316.06l.15-.6c-.06.12-.11.32-.15.6Z"/><path class="cls-1" d="M268.08,316.11c-.49-.19-1.09-1.43-1.81-1.12l-.12.48c.42-.87,1.36,1.62,1.93.65Z"/><path class="cls-1" d="M277.07,323.86l-1.95-.42c.35.64.82,1.5-.07,1.69,2.53,1.86-.54-1.44,2.02-1.27Z"/><path class="cls-1" d="M283.18,324.31c-1.01.44.12.94.11,1.31.6-.68.74-.84-.11-1.31Z"/><path class="cls-1" d="M323.32,307.85l.85,1.28c.52-.67-.36-.47-.85-1.28Z"/><path class="cls-1" d="M324.2,296.66c-.38-.06-.78-.14-1.17-.21l.71,1.25c.15-.35.32-.69.46-1.04Z"/><polygon class="cls-1" points="335.37 300.83 335.29 301.25 335.83 299.83 335.37 300.83"/><path class="cls-1" d="M355.4,230.1l-1.86.38c.38.52,2.51.5,1.86-.38Z"/><path class="cls-1" d="M347.37,199.49c.79-.62,1.07-1.67.02-1.89.11.72-.37,1.62-.02,1.89Z"/><path class="cls-1" d="M281.2,134.71l.76-.51c-.45.11-.89.18-1.33.32.19.06.38.11.57.19Z"/><path class="cls-1" d="M250.2,387.11c.52.05,1.69.05,1.46-.06l-1.98-.11.53.16Z"/><path class="cls-1" d="M253.89,386.5c-.96-.13-2.65-.3-4.47-.25,1.91.15,1.11.16,3.38.33.23.1-.64.16-1.37.13.51.04-.44.15.81.22,1.54-.1,1.6-.27.34-.46.44-.03.95.02,1.32.03Z"/><path class="cls-1" d="M257.11,376.73l-.24.06c.13-.02.2-.04.24-.06Z"/><path class="cls-1" d="M258.22,370.65s.24.07.42.07c-.13-.04-.25-.08-.42-.07Z"/><path class="cls-1" d="M260.4,369.6c-.06.02-.09.04-.13.06.18-.02.28-.05.13-.06Z"/><path class="cls-1" d="M257.11,376.73l.62-.16c-.65-.02-.48.08-.62.16Z"/><path class="cls-1" d="M249.12,385.08c.1.04.28.07.52.1-.09-.03-.16-.06-.21-.09-.11,0-.2,0-.31-.01Z"/><path class="cls-1" d="M258.69,379.43v.05c.23.01.51.03.81.05l-.81-.1Z"/><path class="cls-1" d="M258.98,381.5c.07-.05-1.61-.08-2.35-.11.69.03,1.02.07,1.15.12.32,0,.7,0,1.19,0Z"/><path class="cls-1" d="M255.97,384.73l.23.06c-.06-.02-.15-.04-.23-.06Z"/><path class="cls-1" d="M259.07,377.96c.25,0,.47-.01.6-.01-.21,0-.41,0-.6.01Z"/><path class="cls-1" d="M245.04,320.96c.12,0,.2-.01.3-.02-.17,0-.29,0-.3.02Z"/><path class="cls-1" d="M253.25,318.12l.09.03c.32-.02.63-.03.94-.05l-1.04.02Z"/><path class="cls-1" d="M262.56,367.69s-.02,0-.03,0c.19.05.16.02.03,0Z"/><path class="cls-1" d="M261.09,350.15c-1.5.23-1.94-.28-3.61.06.66-.04,2.63.21,3.61-.06Z"/><path class="cls-1" d="M249.35,385.03s-.03-.06-.01-.08c-.06.04-.05.06.01.08Z"/><path class="cls-1" d="M257.48,350.21h-.02s-.16.03-.16.03c.07-.01.11-.02.17-.03Z"/><path class="cls-1" d="M261.52,363.29c-.3.01-.52.03-.74.05.17,0,.38-.01.74-.05Z"/><path class="cls-1" d="M259.14,366.58l.23-.08c-.15.03-.21.06-.23.08Z"/><path class="cls-1" d="M259.13,361.61c.13-.05.36-.06.14-.12-.08,0-.14.01-.21.02.23.02.34.05.07.1Z"/><path class="cls-1" d="M259.09,359.84c-.12.01-.23.02-.34.04l.09.05.25-.09Z"/><path class="cls-1" d="M246.13,326.22c.47-.06.99-.11,1.51-.16-1.2.09-1.64-.15-1.51.16Z"/><path class="cls-1" d="M250.07,385.09c-.42-.02-.64-.04-.73-.06.02.02.05.04.09.06.25,0,.49.01.64,0Z"/><path class="cls-1" d="M245.82,361.67l.25-.28c-.16.08-.25.18-.25.28Z"/><path class="cls-1" d="M246.91,338.72l-.2-.06s.01.05.2.06Z"/><path class="cls-1" d="M245.81,360.57c.59-.06.94-.11,1.16-.17-.13,0-.24-.02-.44-.03l-.73.2Z"/><path class="cls-1" d="M247.66,326.06h-.02s.02,0,.02,0Z"/><path class="cls-1" d="M243.56,324.44c-.03.27,2.17.01,3.45,0,.64.28-1.62.23-2.75.4.6.17,2.64.21,2.56.36-.36.03-.5.06-.95.05,1.77.12.12.61,2.34.74-.2.03-.38.05-.55.06,1.11-.09,2.23-.16,3.04-.19.04.12,1.41.15-.03.27.04-.07-.55-.05-1-.06l.64.09c-2.07.22-.73-.13-2.27-.06.69.21,2.42.41,1.85.62-2.03.14-.71-.4-2.5-.06l.76-.33c-3.2.38.22-.19-3.21.19-.57.41,1.06.37.48.78,1.13.03,1.67-.11,2.81-.08,2.06.44-5.1.67-2.37.93,1.36.04,3.94-.05,2.59.3h-2.31c-.21.39,3.32.07,1.79.52-.91-.03-.78-.25-1.05-.18-1.81.33,1.31.11,1.32.31l-2.04.13c.34.37,1.83.74,2.22,1.15-.61,0-1.25-.04-1.87.09,1.04.5-.2,1.17-1.38,1.75l1.77.12s-.79.12-1.13.08c-.66.23,1.12-.04,1.81.03.13.11-1,.2-1.54.15,1.51.3,3.26.89,1.39,1.35l-.53-.05c-.7.32,3.62.19,1.99.53l-.31-.04c-.74.67.91,1.32-1.73,1.91,2.54,0-1.11.68,2.43.59-1.74.43-2.37.35-3.53.91-.16.14,2.22.12,2.59.28l-1.85.07,1.95.16-2.21.2.48.14c.11-.07.82-.17,1.36-.17.84.22-1.27.66-2.21.69l1.58.54c-.74.01-1-.08-1.48-.14,1.9.25-1.94.12-.21.35.42-.05,1.1-.02,1.48-.02-1.11.18-1.11.51-.63.74h-1.28c-.31.44.64.9.63,1.39.59-.2,2.8-.23,3.01-.09l-1.95.12c1.21.05.73-.17,2.21-.03-.22.19-2.22.19-2.86.11l.68.2c-.58.03-.89-.01-1.64,0,1.22.05-1.95.45.16.51l-.58.03c0,.49.68.69.79,1.09,1.69-.04,1.32.13,2.68.2-.53.31-1.85.68-1.69,1.03.85.23,1.43.03,2.44.12-1.54.06-1.38.41-2.49.26.26.42.32.53,1.58,1.04.63-.08.9-.15,1.42-.13.26.09-.64.24-1.38.25l-.16-.02c2.32.55-4.44,1.51-1.23,1.91l-.16-.02,1.68.46c-.26.24-1.16-.11-2.1.08,2.57.48-.35.86,1.36,1.26-4.52.44.35,1.21-2.54,1.74l1.07-.05c1.05.1-.61.16-.85.25.83-.03.96-.15,1.54-.09,1.31.99-1.52,2.12-2.47,3.18-.28.38,5.53.12,2.99.64l-1.98-.1c2.39.73-.06,1.57,1.97,2.29-.46-.04-1.05-.03-1.05-.1-1.44.18-.06.59,1.11.57-.13.12-1.06.04-1.66.12-.85.17,1.84.38.41.48-.23.02-.47-.04-.58-.07.7.09-.17.48,1.49.36-.79.29.75.53-.23.77,1.86.13-.89.49,1.74.51-2.71,0-2.18.52-.91.68-.82-.05-.85.16-1.99.11.04.2.54.38,1.94.34-3.24.41,2.62.73-1.54.98,1.46.59,2.46,1.14,3.1,1.68-2.71,0-.27-.6-3.12-.56,1.12.51,3.44.79,2.8,1.31-.37.13-1.17-.07-1.64-.11,1.12.51-.24,1,1.23,1.45-.25,0-.53-.05-.73-.09.09.09-.39.21.83.2l-.33-.09c1.79-.15,3.73.34,4.67.36-3.53-.14-.88.46-5.34.23.23.06.81.13,1.64.11-.24.09-.72.12-1.66.03.67.32,1.98.2,1.95.5-.6,0-.83-.06-1.53-.09,1.16.14,2.32.29,1.82.54-.36-.01-.83.02-.82-.06.18.43,3.09.72,1.98,1.19-2.59-.13-.85.16-3.09.19l.67.25,1.09-.1c-.04.22,1.59.41.86.6l-.92-.16.42.41.85-.23c1.15.22,2.83-.02,2.21.27-.23-.06-.03.22-1.35.34,0,0,0,0,0,0,.71.11,1.46.22.91.39-.72.04-2.48-.04-2.95,0,1.87.11.52.52,2.51.66-.47-.05-1.64-.05-1.88-.04l1.52.09c-.49.1-.72.12-1.66.1-.28.31,2.84-.09,1.62.27-.12-.03-.35-.02-.58-.08-.64.37.96.71.22,1.05-2.25.09-.55-.3-2.45-.19.41.49,2.7,1.02,2.17,1.48l.25-.09c3.18.08-1.57.34-.08.59-.24-.06-1.77-.09-1.41-.07-.51.32.78.66,1.78,1.16l-.82-.07c-.73.19-.42.5-.8.7.82.07.68.18,1.87.12-4.66.6,2.49,1.23-1.4,1.76,0-.07-.71-.17-.72-.11l.75.48c1.39-.02.84-.05,1.92-.14.82.07,1.46.21,1.46.33-.92-.22-2.23-.02-3,.07.42-.01.89.03,1.33.02-2.47.23,2.79.07,1.12.39l-.73-.03c.37.13,1.33.26,1.12.4-1.6.04-.75-.14-2.07-.17.09.19,3.03.41,1.43.57-.45-.09-.45-.21-.9-.29-1.88.17-1.41.2-1.71.34h.04s-.86.3-.86.3l.51-.08c4.18.29.76.5,3.49.86-2.59-.35-1.5-.07-3.32-.12-.51.08-1.07.2-1.58.15,1.46.17-1.16.24.98.49-.58,0-.06.16-1.53.11.46.21,1.02-.03,1.75,0,2,.34-2.43.69.3,1.17,1.12.4,3.09.5,4.07.87-.94.11-2.13-.13-2.13-.13-.86.18-.71.33-.04.52-.51-.05-.94-.01-1.6.03.15.15,2.13.13,1.26.31-.65-.04-1.69-.1-2.35-.18.53.18,1.62.37,2.15.56-1.02.03-1.54-.13-2.21-.21.46.21.92.53,2.53.62l.58-.12c.08.07-1.39.01-1.68-.04-1.26-.19.56-.24,1.15-.24l.37.13c3.43-.07-.54-.52-.34-.77l2.49.15-2.07-.3c.65-.05,2.04-.06,2.42.07,1.24-.16-.88-.18.49-.31.21-.01.33,0,.43.01l-.74-.19c.52.04,1.76,0,1.4.1,1.44-.3-1.86-.55.03-.64l.15.03c-.84-.46-1.83-.07-3.98-.44l4.52-.16-1.83-.07c.07-.05.21-.13.94-.11-1.25-.19-.8.02-1.98-.1,1.67-.2-.77-.62,2.15-.64-1.39-.1-1.08.2-2.04-.05,3.14-.03-.53-.28.91-.47,1.62.08.76.27,2.21.08-2.74-.16.6-.39.08-.57-2.18-.03-.9-.38-1.63-.68.73.03,1.2-.53,1.99-.79h.37c-2.2-.06-1.78-.34-2.24-.54,1.32.02,1.84.06,2.43.18v-.19c-.71-.05-1.09-.11-1.34-.24l1.65.06c-.09-.25-1.93-.53-.83-.84-1.54-.03-4.28.22-5.3-.13.83,0,2.25,0,2.59.09-.11-.03-.69-.11-.33-.17l1.4.15c.61-.14-1.17-.09-1.04-.2,1.18.01.85-.08,1.79-.06.11.03-.49.1-.03.15.21-.13.92-.29,1.81-.33-.67,0-1.6-.01-1.75-.11-.08-.25,1.43-.08,2.04-.22-.82-.07.03-.22-1.74-.24,0-.07.84-.08,1.32-.11-.78-.14-.22-.61-2.11-.48l-.12.03s-.05-.01-.08-.02h0s0,0,0,0c-1.76-.44,1.01-.88.25-1.31h.59c-.68-.25-.4-.56-1.67-.75,0-.07,1.08-.17,1.79-.14-.44-.2-1.11-.22-.13-.5,1.03.2.92-.06.76.2.51-.25,1.46-.3-.16-.58,1.52.1,1.91-.18,1.46-.3l-1.09.17c-.22-.14-.09-.25.04-.37l2,.07c2.43-.51-4.13-.94-.07-1.33-1.4-.14-.98.28-2.62.15.27-.24,3.14-.48,3.14-.56,1.11-.33-2.92-.31-2.16-.65-.71.04-2.61.08-3.28-.17.26-.24,2.99-.29,3.56-.14.06.06-.17.08-.41.08.26.08.56.18,1.34.08l-.71-.03c.73-.12.65-.44,1.82-.37-.68-.18-1.17-.08-1.54.06,1.03-.31.03-.48.72-.79-.39.05-1.23.1-1.22.05.88-.46-1.35-.2-1.66-.51,1.08-.18,2.59.06,1.68-.25.73-.19,1.89-.04,2.47.03-1.37-.28.9-.54,1.15-.7l.57.15c-.34-.09-.33-.16-.33-.24l-1.42.09c.25-.09.25-.16.85-.16-.93-.09-2.37.08-3.64-.1.72-.12-.78-.36,1.11-.4-.64.37,1.9-.05,2.2.27-.23-.06-.22-.13.03-.22.21-.01.39.01.5.04,1.69-.36-2.14-.16-2.1-.52,1.07.04,2.02-.09,1.79-.15-.02.15-1.78.08-2.59-.05.83-.24-.62-.25-.52-.38l-.39.14c-1.07-.04-.93-.16-1.26-.32.83-.02.57.15.94.09-1.87-.17,1.94-.42.67-.67.72-.12,2-.02,2.49-.13-1.38-.28,1.46-.32.31-.61-1.43.1-1.08.11-2.48-.09l1.01.49-2.08-.3c-.02.15.9.31.66.4-1.17-.14-.81-.13-2-.05,2.15-.22-1.25-.39.19-.64l3.55-.02c1.58-.36-1.82-.62-.94-1.08l-.62.15c-1.41-.05-.2-.28-.77-.43,1.19,0,1.62-.09,2.35-.16-.88.01.08-.34-2.29-.36l1.56-.22c.64-.38-3.38-.39-2.98-.75,1.29.09,2.13-.08,3.05.15.01-.12.23-.23-.59-.22.74-.08-1.6-.31-.48-.43-.52-.04-1.76-.05-1.66-.18.24-.02.59,0,.59,0-.59,0-.8-.2-2.11-.07,3.69-.41-.28-1.02,2.89-1.37-.4-.25-.79-.56-.88-.8.35.01.59,0,.47.04,1.1-.34-3.4-.16-2.18-.54,1.91-.21,1.04.18,1.76.05,3.9-.1-.54-.44,1.73-.72l.23.06c1.32-.21-1.48-.44-1.21-.76,0,0,.34,0,.59,0-1.99-.18-2.65-.57-3.21-.86,1.53.07.81.12,2.36.04-.22-.13-2.49.08-2.93-.18.83-.1,1.56-.3,3.21-.36l.09.25c2.14-.16-.08-.33.29-.46h.93c-.31-.38-2.67-.35-2.51-.76l-.71.06c-2.34-.19,1.31-.21-.43-.41l2.37-.11c-.57-.14-2.3-.48-2.75-.74,1.76.12,2.66.42,3.71.59.01-.15-.18-.5-1.35-.56.23.06.81.12.45.19-1.86-.15-2.78-.37-2.75-.67,4.59-.04,1.14-.79,4.7-1.08-1.71-.49.7-1.06.41-1.66-3.57.3-.11-.18-3.77-.06-.24-.14-.18-.19.06-.21l2.18-.48c1.07-.13.81.12,1.63.08.27-.32,1.55-.17,2.52-.4-1.31.07-1.88-.06-1.38-.25l-1.69.29c-1.96-.39,3.07-.45,1.13-.84l1.16.11c-.69-.21,0-.83-2.95-.98.42-.05,1.42-.13,1.69-.04.43-.55-3.17-1.12-1.36-1.58l.9.02c-.26-.09-1.69-.13-.79-.28.37,0,.9.02.95-.03-.31-.04-1.58-.22-1.06-.37l1.01.09c1.16-.56-2.48-.74-3.11-1.16,2.64-.08,3.49-.51,3.91-.73h.37c.31-.63-2.22-.98-3.28-1.51,2.85-.44,1.16-1.23,2.75-1.85-.48.1-2.06.05-2.33-.04.53-.15-1.84-.3.58-.37l-.05.05c2.37-.18,1.73-.43,1.79-.65l-3.17.07c4.59-.72-1.75-1.4,2.37-1.85-.8-.11-.79-.27-1.59-.38l1.7-.06c.42-.39.63-.58.2-1.03l1.22.05c.1-.26-4.91-.14-5.02-.38l2.53-.17c-.06-.45,2.15-1-.17-1.35.37,0,1.1-.02,1.21.05.06-.22,1.68-.9-1.79-.68,2.26-.1.2-.48-.81-.68l1.67-.03c-2.14-.12-2.73-.1-3.33-.36.21-.08,1.33-.12.91,0,.87-.26-1.59-.11-.71-.42l1.07.06c.12-.24-.45-.2-1.7-.27-.68-.12.4-.46,1.91-.56-.92,0-2.16-.07-1.73-.22.57-.04.93,0,1.1,0,1.12-.44-1.97-.49-.34-.84.55-.03.83-.06.99-.09-.03.31-.11.57-.23.55,1.54-.07,1.8-.33,3.93-.23-1.17-.15-3.71-.38-3-.66.15-.02.3-.03.53-.06l.17.02c.15-.06,0-.11-.26-.14.25-.09.43-.15.45-.22,1.27-.09.67-.32.73-.45-1.68.09-1.42-.09-2.8.13.12-.03.2.01.28.09.05.02.08.04.18.05-.05,0-.1,0-.15,0,.05.08.1.19.13.31-.86-.06-1.59-.13-.66-.31-1.08-.02-2.19-.04-2.73-.05,2.34-.28,3.6-.67,5.04-.78-.96-.34-.67-.87-3.84-.96-.41-.09.9-.17,1.4-.23.32.05.28.12.73.14-.82-.18-.35-.63-2.56-.57.98-.32,2.04.05,1.66-.3l.68.02c3.5-.92-5.7-.92-1.21-1.96-.28.07-.4.11-.77.14,1.95-1.04-1.97-1.82,1.15-2.91.62-.3-.79-.25-1.87-.35l1.81-.16-2.1-.16c-1.55-.3,4.4-.92,1.48-1.24l-1.21.13c.22-.19-.75-.52.65-.57-.22,0-1.27.01-.64-.09l.95-.06-1.65-.34c.67-.37,3.76-.16,3.92-.66-.37-.16-2.78-.36-3.41-.25-.04.08-.58.22-1.53.28l-.5-.14c-2.79.13-5.65.17-7.58.69l1.72.18-1.35.17-.1-.23c-1.26.21-.13.23.64.28-.72.06-1.22.13-1.48.2l2.68.12c-1.09.1-2.17,0-2.77.22,1.24.06,2.44-.26,3.26-.1-1.26.21-2.29.23-1.2.32-.72.06-1.18.06-1.5.01.87.09.39.35,1.87.34-1.56.23.43.45-2.21.59.63,0,2.09.13,2.2.26-3.17-.06-.16.49-3.55.62,2.85.02,1.3.56,2.89.78-.23,0-.69-.01-.54-.05-.23.19-1.08.28-1.61.42,2.35-.1,2.9.14,4.35.21-2.25.33-2.76.02-4.94.2,1.9-.11,1.92.27,3.5.11-1.39.24-.67.18-2.61.36,2.94-.13.51.13,2.31.17-1.43.31-2.75.2-1.84.42-.89.17-1.95,0-1.95,0ZM248.94,330.36s-.03,0-.03,0c-.04-.05-.08-.1-.1-.12.02.03.06.06.13.12ZM248.99,330.88c.06-.07.07-.15.06-.23.58-.04,1.18-.05,1.15,0-.39-.01-.72.13-1.21.23ZM260.62,329.24c.24.07-.09.12-.43.14-.03-.04-.09-.08-.21-.14-.06,0-.14,0-.21,0,.32,0,.61,0,.85,0Z"/><path class="cls-1" d="M258.4,329.2s-.11-.01-.12-.03c-.14.02-.26.05-.38.07.18,0,.36,0,.53,0-.01-.01-.02-.03-.03-.04Z"/><path class="cls-1" d="M256.83,376.81h.04c-.07,0-.13,0-.24.01.09,0,.13,0,.2-.01Z"/><polygon class="cls-1" points="246.05 338.17 246.48 338.15 246.11 338.12 246.05 338.17"/><path class="cls-1" d="M251.02,379.64c-.15,0-.3.01-.43.03.11,0,.26-.02.43-.03Z"/><path class="cls-1" d="M250.63,380.87l-.6.17c.34-.07.51-.13.6-.17Z"/><path class="cls-1" d="M249.78,381.81c.3.01.52.02.72.03h.01s-.74-.03-.74-.03Z"/><path class="cls-1" d="M247.86,366.7s-.03-.03-.08-.04c-.33-.08-.2-.03.08.04Z"/><path class="cls-1" d="M251.81,371.19c-.31-.05-.61-.1-.8-.15-.13.08-.16.14.8.15Z"/><path class="cls-1" d="M245.79,361.7h.03s0-.02,0-.03l-.03.03Z"/><path class="cls-1" d="M251.04,370.83c-.34.08-.26.15-.03.21.11-.07.29-.14.03-.21Z"/><path class="cls-1" d="M248.96,385.92l-.07.04c.11,0,.2,0,.27.01l-.2-.05Z"/><path class="cls-1" d="M249.16,385.98l.2.05s-.01-.04-.2-.05Z"/><path class="cls-1" d="M249.78,386.15l-.42-.11s-.06.08.42.11Z"/><path class="cls-1" d="M249.75,384.68l-.61-.02c.13,0,.33.01.61.02Z"/><path class="cls-1" d="M249.58,384.29c-.14.09-1.31.21-.93.34l.49.02c-.91-.07,1.47-.26.44-.36Z"/><path class="cls-1" d="M257.17,382.79l-.49.32c.65-.05,1.53-.11,1.68.04,1.95-.38-1.46.06-1.19-.36Z"/><path class="cls-1" d="M258.12,381.8c.3.18.95,0,1.32.02-.59-.12-.74-.15-1.32-.02Z"/><path class="cls-1" d="M258.19,374.55l1.53.02c-.22-.14-.59,0-1.53-.02Z"/><polygon class="cls-1" points="250.26 373.14 249.31 373.27 250.71 373.34 250.26 373.14"/><polygon class="cls-1" points="261.19 372.35 261.41 372.41 260.86 372.19 261.19 372.35"/><path class="cls-1" d="M260.59,360.14l-1.89.06c.34.09,2.46.08,1.89-.06Z"/><path class="cls-1" d="M258.59,354.9c.94-.07,1.55-.23.62-.31-.13.12-.86.25-.62.31Z"/><polygon class="cls-1" points="261.25 339.02 261.89 339.1 261.36 338.92 261.25 339.02"/><path class="cls-1" d="M261.86,408.51c-.45.25-1.44.89-1.2.83l1.71-1.01-.52.17Z"/><path class="cls-1" d="M259.03,410.91c.87-.43,2.37-1.22,3.89-2.22-1.68.92-1.01.48-3,1.59-.24.06.47-.45,1.1-.83-.45.25.3-.34-.78.29-1.25.9-1.24,1.04-.08.49-.36.25-.81.5-1.13.69Z"/><path class="cls-1" d="M259.07,418.53l.22-.09c-.12.04-.19.07-.22.09Z"/><path class="cls-1" d="M258.05,421.77s-.23-.08-.41-.12c.12.05.24.09.41.12Z"/><path class="cls-1" d="M255.84,421.6c.05,0,.09.02.14.02-.18-.05-.28-.07-.14-.02Z"/><path class="cls-1" d="M259.07,418.53l-.59.22c.64-.12.46-.14.59-.22Z"/><path class="cls-1" d="M263.7,409.39c-.1.02-.27.1-.49.2.09-.02.16-.04.22-.05.09-.05.17-.1.27-.15Z"/><path class="cls-1" d="M257.09,417.46v-.03c-.23.07-.49.16-.78.25l.78-.23Z"/><path class="cls-1" d="M256.35,416.45c-.05.06,1.48-.63,2.16-.92-.64.27-.95.39-1.08.42-.29.14-.63.3-1.08.51Z"/><path class="cls-1" d="M257.97,413.14l-.22.08c.06-.02.15-.05.22-.08Z"/><path class="cls-1" d="M256.99,418.34c-.24.07-.45.13-.58.17.2-.06.39-.12.58-.17Z"/><path class="cls-1" d="M255.41,402.05c.02.12.03.19.04.3,0-.17-.02-.29-.04-.3Z"/><path class="cls-1" d="M258.35,410.19l-.02.09c0,.32,0,.63,0,.95l.03-1.04Z"/><path class="cls-1" d="M253.77,421.06h0s-.01,0,0,0Z"/><path class="cls-1" d="M254.05,421.4c-.92,1.2-1.29,1.44-2.3,2.78.43-.5,1.7-2,2.3-2.78Z"/><path class="cls-1" d="M263.53,409.54s.05.02.05.05c.03-.06.01-.07-.05-.05Z"/><path class="cls-1" d="M251.75,424.18h0s-.09.14-.09.14c.04-.06.07-.09.1-.14Z"/><path class="cls-1" d="M255.25,422.25h0s0,0,0,0Z"/><path class="cls-1" d="M256.63,422.86l-.2-.11c.13.08.18.1.2.11Z"/><path class="cls-1" d="M255.82,423.57c-.06-.11-.16-.33-.08-.11.04.08.06.13.09.19-.09-.21-.13-.31,0-.07Z"/><path class="cls-1" d="M255.44,423.71c.03.12.06.22.09.33v-.09s-.09-.24-.09-.24Z"/><path class="cls-1" d="M249.43,404.75c.25.4.51.86.76,1.32-.56-1.06-.47-1.58-.76-1.32Z"/><path class="cls-1" d="M262.88,409.87c.37-.21.56-.3.65-.33-.03,0-.06,0-.1,0-.22.12-.42.24-.55.33Z"/><path class="cls-1" d="M261.29,435.7l-.54-.03c.19.1.38.11.54.03Z"/><path class="cls-1" d="M240.11,417.34l-.19-.12s0,.06.19.12Z"/><path class="cls-1" d="M259.5,436.38c-.26-.54-.44-.85-.58-1.04.02.13.03.24.07.43l.51.61Z"/><path class="cls-1" d="M250.2,406.08v-.02s0,.02,0,.02Z"/><path class="cls-1" d="M250.72,401.51c-.35.08.6,2.09.97,3.31-.11.72-.74-1.46-1.28-2.47-.04.64.57,2.59.39,2.57-.15-.33-.24-.44-.38-.88.48,1.72-.66.4.05,2.51-.1-.17-.2-.33-.27-.48.53.98,1.03,1.99,1.38,2.71-.09.08.45,1.34-.24.07.08,0-.18-.52-.35-.94l.18.62c-1.05-1.8-.18-.72-.87-2.1.05.74.63,2.38.19,1.95-1.03-1.76.08-.82-1.03-2.28l.65.54c-1.71-2.73.29.1-1.51-2.84-.72-.28.01,1.16-.69.89.48,1.03.88,1.43,1.37,2.45.59,2.03-3.14-4.09-2.1-1.52.64,1.21,2.07,3.35,1.05,2.41l-1.23-1.95c-.52.09,1.73,2.83.46,1.84-.49-.77-.18-.81-.4-.99-1.34-1.28.61,1.17.44,1.3l-1.29-1.58c-.2.57.35,2.02.26,2.63-.4-.46-.76-.99-1.28-1.36.2,1.2-1.19.83-2.61.64l1.19,1.33c-.05.03-.69-.41-.92-.68-.7-.19.86.71,1.32,1.24,0,.19-.92-.46-1.28-.87.84,1.35,1.87,2.88.03,2.29l-.4-.36c-.82-.02,2.89,2.19,1.31,1.64l-.24-.2c-.53.14-.51.62-.7.95-.19.34-.54.55-1.91.38,1.17.51.83.58.62.72-.21.13-.3.31,1.38.86-1.8-.1-2.38-.42-3.7-.02-.2.16,2.08.8,2.4,1.07l-1.81-.39c.61.24,1.22.47,1.83.68l-2.2-.27.43.3c.12-.07.85-.02,1.37.09.78.43-1.39.53-2.33.43.47.34.96.66,1.46.96-.74-.08-.98-.24-1.44-.4,1.84.61-1.95-.1-.26.46.42-.02,1.1.12,1.47.15-1.13.1-1.18.57-.7.9l-1.27-.1c-.34.64.61,1.32.65,2,.57-.3,2.78-.39,3.01-.25l-1.94.24c1.21,0,.72-.25,2.21-.15-.21.23-2.2.38-2.84.29l.7.23c-.58.08-.89.05-1.64.11,1.22-.03-1.87.83.25.73l-.57.11c.09.74.84.94,1.06,1.48,1.64-.4,1.32-.09,2.68-.31-.41.48-1.55,1.33-1.24,1.77.91.03,1.37-.41,2.36-.64-1.43.57-1.11.98-2.22,1.16.45.46.6.63,2.04.69.52-.37.73-.56,1.21-.77.28-.02-.44.54-1.1.88l-.15.05c1.18-.21.45.69-.12,1.67-.59.96-.93,1.95.54,1.23l-.15.07c.58-.15,1.16-.33,1.74-.53.03.42-1,.62-1.53,1.45,1.24-.55,1.37-.28,1.45.08.08.34.11.78.91.33-1.26,1.91-.77,2.2-.18,2.25.6.08,1.26-.09.86,1.35l.5-.95c.68-.82-.11.64-.1.93.38-.74.29-.94.67-1.39.96-.19,1.42.43,1.92,1.35.49.9,1.04,2.06,1.8,2.72.59.42,1.36-5.36,1.58-2.74l-.5,1.93c.78-1.07,1.31-1,1.9-.91.57.11,1.21.19,1.69-.83-.04.46,0,1.05-.12,1.05.33,1.44.95,0,.8-1.17.19.11.16,1.05.34,1.63.39.81.36-1.9.71-.5.06.23,0,.48-.02.59.05-.71.82.02.34-1.58.61.68.62-.88,1.21-.04-.33-1.84,1.01.61.22-1.89.85,2.59,1.53,1.77,1.25.48.24.79.58.67.94,1.75.32-.18.38-.78-.31-1.99,1,1.31,1.01.55.96-.05-.03-.61-.1-1.06,1.2.58.08-1.83.05-3.1.11-4.06,1.9,1.94-.43.77,1.5,2.86-.06-1.45-1.51-3.31-.58-3.39.4.09.84.83,1.14,1.19-.17-.66.09-.9.32-1.18.21-.27.39-.59-.06-1.24.21.13.41.34.55.51,0-.16.5-.05-.56-.68l.22.28c-1.59-.81-2.97-2.31-3.8-2.76,2.98,1.9,1.01,0,4.79,2.38-.16-.19-.63-.55-1.37-.91.26.02.71.19,1.48.74-.39-.71-1.64-1.14-1.46-1.46.54.25.72.42,1.33.76-.96-.69-1.95-1.3-1.38-1.37.32.15.77.3.73.38.02-.28-.62-.77-1.12-1.17-.51-.41-.88-.71-.26-.78,2.43.9.87.08,3.03.67l-.56-.49-1.08-.17c.1-.25-1.42-.83-.67-.86l.86.38-.32-.54-.88.07c-1.08-.46-2.77-.58-2.11-.71.21.09.07-.17,1.38-.06,0,0,0,0,0,0-.69-.23-1.42-.43-.84-.5.72.06,2.45.38,2.92.42-1.83-.37-.44-.63-2.42-.96.46.09,1.63.2,1.87.21l-1.51-.23c.49-.05.73-.05,1.66.04.31-.3-2.84-.12-1.59-.39.12.04.35.04.58.11.65-.35-.93-.73-.19-1.04,2.25-.12.55.3,2.46.19-.41-.6-2.72-1-2.24-1.48l-.24.11c-3.17.26,1.53-.5,0-.58.24.02,1.76-.15,1.41-.12.46-.42-.87-.58-1.94-.82l.81-.1c.68-.32.32-.57.63-.85-.81.13-.71,0-1.84.34,2.19-.84,1.5-1.02.73-1.07-.77-.07-1.62-.02.14-.89.03.06.73-.08.71-.13-.29-.07-.57-.13-.86-.18-1.29.5-.77.34-1.76.78-.79.22-1.43.34-1.46.26.92-.15,2.09-.76,2.78-1.12-.39.16-.84.3-1.24.46,2.23-1.08-2.62.96-1.17.11l.68-.25c-.39.04-1.31.31-1.16.13,1.47-.65.73-.18,1.96-.67-.15-.13-2.92.87-1.51.12.44-.11.48-.03.92-.13,1.67-.88,1.22-.72,1.44-.95l-.03.03.66-.62-.44.28c-3.9,1.51-.88-.09-3.47.83,2.45-.88,1.37-.6,3.02-1.37.42-.28.88-.64,1.36-.83-1.38.51.93-.73-1.08.04.52-.27-.02-.16,1.31-.79-.5.04-.89.5-1.55.81-1.9.68,1.85-1.71-.76-.77-1.15.25-2.9,1.16-3.89,1.41.77-.55,1.89-.99,1.89-.99.67-.56.47-.59-.18-.38.46-.23.81-.47,1.36-.85-.19-.03-1.88,1.01-1.21.43.57-.31,1.49-.81,2.09-1.09-.54.14-1.55.58-2.08.73.85-.56,1.37-.72,1.97-1.01-.48.09-1.02.1-2.42.9l-.44.39c-.1,0,1.17-.75,1.44-.86,1.16-.53-.37.46-.87.77l-.37.11c-2.89,1.86.68.06.62.35l-2.2,1.19,1.89-.87c-.54.37-1.73,1.09-2.1,1.19-1,.74.83-.34-.3.45-.18.12-.29.17-.38.21l.71-.25c-.47.24-1.52.89-1.25.64-1.14.9,1.82-.59.21.41l-.14.06c.9-.12,1.62-.86,3.64-1.65l-3.91,2.28,1.63-.83c-.04.06-.13.18-.79.51,1.17-.47.7-.39,1.78-.87-1.4.91.91.07-1.68,1.4,1.27-.57.89-.62,1.84-.89-2.79,1.44.58-.05-.65.72-1.48.66-.76.17-2.01.92,2.51-1.1-.43.5.09.37,1.99-.9.93-.15,1.67-.26-.67.28-.96.81-1.64,1.24l-.34.13c2.07-.77,1.74-.45,2.22-.48-1.24.45-1.74.6-2.31.75l.05.1c.67-.22,1.04-.31,1.3-.32l-1.56.52c.13.09,1.93-.34.95.18,1.48-.43,4.02-1.47,5.09-1.51-.79.25-2.15.67-2.49.71.11-.01.68-.13.35.02l-1.36.32c-.56.27,1.13-.29,1.03-.17-1.14.34-.79.3-1.7.55-.11.02.45-.2,0-.1-.18.14-.83.43-1.68.7.65-.19,1.53-.44,1.7-.42.13.13-1.36.43-1.93.66.8-.18,0,.11,1.72-.32,0,.05-.8.25-1.26.38.78-.12.29.26,2.11-.22l.12-.05s.05,0,.08,0h0s0,0,0,0c1.79-.07-.88.74-.1.85l-.59.08c.68.05.43.26,1.71.26,0,.05-1.07.2-1.78.23.45.07,1.12.06.15.26-1.04-.06-.91.07-.76-.07-.5.16-1.45.18.17.28-1.52-.01-1.91.1-1.46.15l1.09-.08c.22.06.09.12-.04.18l-1.99-.06c-1.22.05-.19.13.64.28.82.13,1.43.32-.6.16,1.38.21.99,0,2.61.21-.28.12-3.14-.16-3.14-.16-1.11-.1,2.87.55,2.09.58.7.12,2.58.43,3.2.73-.29.12-2.95-.48-3.5-.66-.05-.03.17,0,.41.05-.25-.09-.54-.18-1.3-.3l.7.15c-.72-.1-.66.01-1.8-.28.65.2,1.13.3,1.5.33-1.03-.15-.07.15-.76.06.21.06.5.13.73.2.25.07.45.13.44.14-.9-.1,1.27.47,1.51.72-1.05-.28-2.44-.87-1.62-.46-.72-.2-1.77-.65-2.32-.86,1.26.53-.87-.26-1.09-.37l-.24-.11c.06.03.09.04.13.06l1.19.52c-.23-.09-.24-.09-.78-.33.84.4,2.17.96,3.3,1.54-.67-.28.64.47-1.05-.38.61.21-1.7-.85-1.96-1.02.2.1.19.1-.03,0-.16-.08-.3-.15-.41-.21.22.12.21.11.35.19.65.35,1.48.8,1.44.82-.93-.53-1.78-1-1.47-.83,0,0-.02-.01-.01,0,.06.03.12.07.19.11.16.09.37.21.61.35.47.27,1.02.6,1.37.82-.73-.38.49.38.39.36l.35.17c.89.58.75.54.99.79-.69-.46-.44-.37-.76-.55.76.54.33.32-.15.03-.48-.29-1-.66-.52-.25-.58-.41-1.62-1.24-1.95-1.49.22.17.32.26.26.21-.03-.02-.25-.2-.17-.14.02.02.03.03.07.06h0c.07.06.13.11.18.16.15.13.24.21.34.3.2.18.39.35.89.84-.23-.25-.46-.48-.71-.72.53.45,1.04.92,1.54,1.4.06-.02-.63-.65-.43-.51.88.77.6.56,1.54,1.28-.86-.64-.63-.42-.37-.13.27.29.59.67.02.22l-2.58-2.43c-.58-.53-.23-.23.12.17.37.39.75.91.44.58.14.16.28.31.42.46.9,1.09.07.18.41.65-.63-.81-.89-1.15-1.31-1.69.09.12.13.18.22.3.21.31.4.6.95,1.42-.3-.42-.6-.85-.89-1.29-.33-.55,1.67,2.93,1.31,2.68-.57-1.16-.98-1.89-1.39-2.72-.01,0-.11-.19.26.54-.33-.67.63,1.46.12.45.2.48.7,1.62.6,1.55-.1-.23-.23-.54-.23-.54.23.54.22.78.77,1.97-.79-1.66-.82-1.6-.89-1.43-.05.16-.13.39-.56-1.14.02.4-.02.81-.1.91-.05-.35-.09-.58-.06-.46-.26-1.08.4,3.37.02,2.18-.29-1.89-.02-1.04-.15-1.75-.23-1.94-.23-1.8-.23-1.46,0,.34-.04.88-.12-.26v-.23c-.07-1.33-.06,1.48-.2,1.2,0,0,0-.34.02-.59-.11,1.98-.39,2.62-.62,3.16.22-1.51.15-.8.29-2.34-.08.21-.23,2.49-.45,2.89.04-.84.04-1.58.29-3.21l.1-.07c.25-2.13-.11.05-.11-.32l.16-.92c-.13.3-.63,2.59-.79,2.38l-.15.69c-.7,2.23.24-1.29-.33.36l.62-2.28c-.19.54-.89,2.11-1.22,2.47.7-1.62,1.1-2.43,1.45-3.41-.03-.03-.17.12-.6,1.21.1-.21.32-.75.21-.4-.66,1.74-1.15,2.56-1.29,2.44.89-2.11.94-2.41.95-2.59,0-.17-.07-.24.76-1.83-.43.73-.42.54-.25.21.16-.33.47-.78.37-.67-2.14,2.85-.08.07-2.34,2.95-.19.14-.17.08-.03-.11.42-.6.87-1.18,1.34-1.74.68-.75.62-.68,1.1-1.21l.04-.04s-.01.01-.01.01v.02s-.03.01-.03.01c0,0-.02.02-.03.03-.03.03-.03.03-.05.06l.02-.02s.05-.05-.03.03l-.29.31c-.34.35-.38.37-.27.25.15-.15.34-.33.54-.53-.03.03-.04.04-.09.08l.03-.03s-.03.03-.06.05c.2-.17.42-.36.65-.56l.02-.02s.09-.07-.11.08c-.37.27-.78.56-1.3.94.35-.26.97-.7,1.37-.99.18-.12-.46.31-1.01.59-.55.3-.97.41-.18-.03l.8-.41c-.23.12-1.52.73-.72.32.32-.16.66-.32.85-.41-.28.14-1.44.63-.97.39l.93-.39c.53-.26-.03-.02-.83.25-.8.27-1.82.56-2.14.57,2.51-.83,3.31-1.12,3.72-1.24l.36-.1c.16-.05-.37.07-1.09.17-.71.1-1.59.18-2.12.15,1.41-.24,1.71-.31,1.85-.39.13-.07.12-.15.93-.18-.48,0-2.06-.02-2.32-.06.54-.01-1.83-.19.59-.08h-.05c2.38.09,1.75.04,1.82,0l-3.16-.29c2.29.11,1.89.04,1.43-.14-.47-.16-.97-.41,1.05.02-.77-.2-.75-.23-1.51-.47l1.64.44c.44.05.65.12.28-.08l1.15.41c.1.04-4.59-1.7-4.64-1.86l2.37.91c0-.06.52.1.78.18.26.07.25.05-.75-.53.33.18.97.52,1.06.58.08-.02,1.54.78-1.45-1.01,1.95,1.17.22.04-.53-.61l1.38.95c-1.74-1.24-2.2-1.59-2.61-2.05.19.1,1.09.77.73.55.75.45-1.23-1.02-.43-.58l.81.69c.16.01-.3-.33-1.22-1.17-.46-.49.48.08,1.61,1.08-.69-.61-1.56-1.49-1.18-1.25.43.38.67.64.79.76.93.68-1.21-1.56.05-.49.39.38.57.57.71.7-.12.05-.25.07-.33-.02,1.12,1.06,1.35,1.21,2.85,2.72-.84-.81-2.5-2.71-1.93-2.25.11.11.21.22.37.38l.11.13c.12.1.03-.01-.13-.22.19.17.32.3.35.3.84.95.51.47.57.5-1.08-1.29-.86-1.13-1.79-2.16.08.09.12.16.14.24.03.04.03.07.09.15-.03-.04-.06-.08-.09-.12,0,.06,0,.11-.02.17-.54-.67-.96-1.26-.31-.58-.68-.85-1.35-1.73-1.67-2.15,1.59,1.74,2.46,2.67,3.35,3.82-.46-.83-.16-.66-1.77-3.39-.17-.38.55.73.83,1.14.14.28.09.26.32.65-.35-.73.07-.41-1.02-2.34.63.78.96,1.8.94,1.39l.31.6c1.01,1.47.39.19-.02-1.04-.44-1.21-.67-2.39.42-.38-.14-.25-.2-.36-.35-.7.63.83.67.3.84-.09.15-.4.43-.64,1.02.84.27.6-.03-.78-.15-1.85l.39,1.77c-.09-.69-.17-1.39-.24-2.08-.02-.78.29.3.53,1.22.25.92.41,1.67.37.21l-.18-1.21c.13.22.28-.75.38.65-.01-.22-.07-1.27.02-.64l.08.94c.04-.55.09-1.1.15-1.64.23.68.17,3.76.38,3.94.05-.37.22-2.77.19-3.4-.04-.05-.12-.59-.13-1.54l.12-.5c0-2.79.21-5.66-.29-7.6-.11.57-.2,1.14-.29,1.72l-.15-1.35.28-.09c-.2-1.27-.28-.14-.35.64-.06-.72-.13-1.22-.21-1.49-.07.89-.13,1.79-.17,2.68-.12-1.09,0-2.18-.26-2.76-.06,1.25.31,2.43.13,3.26-.24-1.25-.29-2.29-.38-1.19-.09-.71-.1-1.17-.05-1.5-.09.87-.42.4-.33,1.89-.35-1.54-.47.48-.82-2.14.03.64.01,2.1-.1,2.22-.25-3.17-.57-.09-1.13-3.43.33,2.84-.53,1.39-.52,3.03-.04-.22-.11-.68-.04-.55-.25-.18-.53-.99-.81-1.48.58,2.28.42,2.88.69,4.31-.87-2.1-.65-2.69-1.32-4.76.54,1.82.11,1.96.66,3.45-.6-1.28-.35-.6-1.05-2.42.89,2.8-.03.53.41,2.29-.73-1.28-.99-2.58-.98-1.62-.46-.79-.53-1.88-.53-1.88ZM246.83,409.7s-.02-.02-.02-.02c.02-.07.03-.13.04-.17,0,.04-.01.09-.02.19ZM246.43,410.11c.09,0,.16-.06.22-.13.42.41.82.85.76.86-.25-.3-.58-.45-.99-.74ZM254.92,418.16c.14.19-.08-.05-.31-.31-.01-.03-.04-.08-.1-.18-.04-.05-.09-.1-.13-.16.2.24.39.47.54.65Z"/><path class="cls-1" d="M253.53,416.44s-.06-.09-.07-.1c-.1-.1-.19-.2-.26-.28.11.14.22.28.33.41,0-.01,0-.02,0-.03Z"/><path class="cls-1" d="M259.33,418.43h-.04c.07,0,.13-.02.23-.05-.08.02-.13.03-.2.05Z"/><polygon class="cls-1" points="239.45 416.42 239.86 416.51 239.51 416.37 239.45 416.42"/><path class="cls-1" d="M264.22,414.62c.14-.06.28-.12.39-.18-.1.04-.24.11-.39.18Z"/><path class="cls-1" d="M264.15,413.43l.49-.39c-.28.2-.41.31-.49.39Z"/><path class="cls-1" d="M264.55,412.28c-.27.12-.47.21-.66.29h-.01s.67-.29.67-.29Z"/><path class="cls-1" d="M266.16,428.9s0,.05.04.09c.21.28.15.14-.04-.09Z"/><path class="cls-1" d="M264.41,422.61c.3.1.58.2.76.28.14-.06.19-.12-.76-.28Z"/><path class="cls-1" d="M261.35,435.7v-.03s-.04.01-.06.02h.06Z"/><path class="cls-1" d="M265.1,423.1c.35-.02.29-.1.07-.21-.12.05-.31.09-.07.21Z"/><path class="cls-1" d="M263.46,408.68l.04-.07c-.1.06-.17.1-.23.14l.19-.07Z"/><path class="cls-1" d="M263.26,408.75l-.19.07s.03.02.19-.07Z"/><path class="cls-1" d="M262.66,408.96l.41-.14s.01-.09-.41.14Z"/><path class="cls-1" d="M263.34,410.02l.54-.29c-.12.06-.29.16-.54.29Z"/><path class="cls-1" d="M263.66,410.22c.08-.14,1.03-.82.64-.73l-.43.23c.82-.4-1.15.94-.22.5Z"/><path class="cls-1" d="M257.6,414.91l.33-.42c-.56.34-1.32.78-1.5.77-1.6,1.13,1.27-.72,1.17-.35Z"/><path class="cls-1" d="M257.04,415.92c-.32.03-.86.4-1.19.55.57-.19.71-.24,1.19-.55Z"/><path class="cls-1" d="M258.19,419.88l-1.53.1c.22.04.59-.04,1.53-.1Z"/><polygon class="cls-1" points="266.14 420.79 267.09 420.66 265.69 420.58 266.14 420.79"/><polygon class="cls-1" points="255.19 420.72 254.98 420.68 255.53 420.79 255.19 420.72"/><path class="cls-1" d="M255.12,422.26l.51,1.82c-.07-.34-.67-2.37-.51-1.82Z"/><path class="cls-1" d="M253.85,424.11c.2-.92.33-1.52.06-.63,0,.13-.14.86-.06.63Z"/><polygon class="cls-1" points="254.2 419.94 254.83 420.03 254.31 419.93 254.2 419.94"/></svg>