<?xml version="1.0" encoding="UTF-8"?><svg id="Capa_1" xmlns="http://www.w3.org/2000/svg" viewBox="0 0 147.1 136.96"><defs><style>.cls-1{fill:#4166a8;}</style></defs><path class="cls-1" d="M115.51,80.9c.06-.09,0-.28-.17-.23l-.1.34.27-.11Z"/><path class="cls-1" d="M114.25,80.39c-.2.18-.42.48-.26.77.18-.33.24-.21.44-.6.18-.05.32.08.3.2.06-.09.28.05.36-.17-.25-.24-.55-.22-.84.01-.07-.07-.02-.16,0-.22Z"/><path class="cls-1" d="M96.72,80.98l.11.04s-.07-.03-.11-.04Z"/><path class="cls-1" d="M85.9,80.68c.08,0,.12-.03.12-.06-.08.02-.14.03-.12.06Z"/><path class="cls-1" d="M84.08,80.2s.07.02.11.03c-.04-.03-.08-.05-.11-.03Z"/><path class="cls-1" d="M96.72,80.98l-.29-.1c-.02.11.15.08.29.1Z"/><path class="cls-1" d="M111.9,81.38c.06-.02.11-.06.15-.1-.05.02-.1.03-.15.05v.05Z"/><path class="cls-1" d="M101.48,80.52h.09s.05-.09.07-.14l-.15.14Z"/><path class="cls-1" d="M105.14,80.25c-.08,0-.09.28-.12.4.04-.12.1-.18.17-.2,0-.05-.02-.12-.05-.2Z"/><path class="cls-1" d="M110.99,80.31l.1-.05s-.07.03-.1.05Z"/><path class="cls-1" d="M98.86,80.58s-.02-.08-.04-.1c0,.04.02.07.04.1Z"/><path class="cls-1" d="M31.69,23.32s.03,0,.05,0c-.03-.02-.05-.03-.05,0Z"/><path class="cls-1" d="M33.31,19.12v.06c.06,0,.12.02.17.02l-.17-.08Z"/><path class="cls-1" d="M80.77,79.53s0,0,.01,0c.09-.02.04-.02-.01,0Z"/><path class="cls-1" d="M52.14,69.76c.14.4-.65-.05-.38.47.02-.12.65-.1.38-.47Z"/><path class="cls-1" d="M111.81,81.36s-.1.01-.15.01c.07,0,.12,0,.15-.01Z"/><path class="cls-1" d="M51.76,70.23h0s.03.05.03.05c-.01-.02-.02-.03-.03-.05Z"/><path class="cls-1" d="M73.14,78.5c0,.05.03.1.05.14,0-.03,0-.07-.05-.14Z"/><path class="cls-1" d="M78.75,79.86l-.14-.05c.05.03.1.05.14.05Z"/><path class="cls-1" d="M70.15,78.2c-.07-.04-.09-.09-.2-.08,0,.02.01.03.02.04.05-.03.1-.03.17.03Z"/><path class="cls-1" d="M67.15,77.35s.03.05.04.07c.03,0,.07.01.1.02l-.14-.09Z"/><path class="cls-1" d="M31.75,33c.08-.07.16-.12.25-.16-.2.06-.28-.41-.25.16Z"/><path class="cls-1" d="M111.89,81.23c-.01.07-.04.11-.08.13l.1-.02s0-.08-.02-.1Z"/><path class="cls-1" d="M69.46,80.31l-.48-.17c.13.06.31.13.48.17Z"/><path class="cls-1" d="M36.65,55.39l-.08-.09s.04.08.08.09Z"/><path class="cls-1" d="M67.51,79.78c-.06-.12-.14-.21-.22-.27-.03.01-.05.02-.08.05l.3.22Z"/><path class="cls-1" d="M32,32.84h0s0,0,0,0Z"/><path class="cls-1" d="M31.27,29.51c0,.48.36.23.58.33.11.57-.27.27-.46.47.1.36.44.63.43.9-.06.02-.08.07-.16.01.29.37.05,1.13.43,1.56-.03.03-.06.05-.09.06.18-.08.37-.1.5-.09.01.21.25.39,0,.48,0-.13-.09-.14-.17-.2l.11.22c-.34.22-.13-.3-.39-.29.13.44.42.94.35,1.28-.34.09-.15-.78-.43-.32l.11-.53c-.52.42.03-.32-.53.07-.08.7.21.77.15,1.46.2.14.28-.07.47.08.4.95-.8.83-.31,1.52.24.17.68.21.5.73l-.4-.14c.03.67.59.33.39,1.05-.16-.11-.18-.51-.21-.41-.26.48.25.3.28.65l-.33.11c.11.71.48,1.46.64,2.23-.11-.03-.23-.15-.31.05.28.97.3,2.11.26,3.11l.36.31c.01.08-.1.18-.17.1-.03.39.19-.02.34.14.07.2-.11.31-.22.2.39.6.91,1.73.8,2.48l-.12-.11c.03.56.74.44.6,1l-.07-.08c.17,1.18.86,2.33.72,3.33.46.02.25,1.17.82,1.03-.02.73-.22.6-.01,1.56.08.25.5.2.68.46l-.28.13.47.26-.24.36.19.24c-.03-.12.02-.29.11-.31.3.36.29,1.11.16,1.19l.75.85c-.12.04-.24-.11-.38-.2.55.37-.24.25.27.59.03-.1.18-.05.24-.07-.05.33.25.87.57,1.21l-.23.03c.4.72.97,1.44,1.51,2.18-.11-.32.24-.47.42-.27l-.21.27c.27.03-.06-.3.35-.15.17.3-.17.4-.37.3l.34.27c-.06.08-.16.03-.28.08.26.02.16.78.59.77l-.06.08c.52.76.92.98,1.4,1.56.23-.17.36.1.68.12.27.49.52,1.07.99,1.54.42.24.27-.06.53-.03-.16.2.31.66-.06.54.57.55.74.7,1.61,1.22,0-.15-.06-.27.04-.29.16.09.22.36.12.43h-.05c1.04.48,1.44,2.26,2.48,2.43h-.06c.3.11.59.24.89.35.31.29-.32,0-.17.31,1.06.25,1.23.99,2.06,1.24.11.97,1.9,1.21,2.38,2.05l.05-.18c.28-.04.18.22.3.34.05-.13-.12-.26.04-.27,1.71.78,3.23,2.14,4.92,3.1.62.34.75-.67,1.37.09l-.36.2c.72.13,1.4.38,2.06.67.66.29,1.32.57,2.03.64-.1.04-.14.14-.27.09.19.32,1.02.38,1.08.19.2.09-.01.18.08.32.23.23.79-.04.87.23.01.04-.1.05-.16.05.22-.05.84.29.75-.02.46.28.98.18,1.33.46.34-.21.81.4,1.01,0-.16.43.78.59,1.15.47-.14.1.24.21.07.36.36.09.72.1.71-.14.54.7,1.45-.12,1.67.65,1.14.02,2.18.03,3.17.11-.11.44-1.09-.16-1.13.32.97-.02,1.56-.27,2.47-.04.23.1-.17.17-.26.24.96-.05,1.8.33,2.66.18,0,.04-.1.08-.19.1.17,0,.37.11.38-.09l-.17.04c-.22-.33.73-.54.77-.69-.35.55.8.24.27.93.11-.03.26-.11.25-.25.16.06.2.14.02.28.6-.04.41-.28.95-.22-.01.1-.12.13-.19.23.29-.16.58-.33,1.02-.21-.03.06.01.14-.12.13.78.04,1.36-.39,2.19-.14-.28.41.28.16.3.54l.46-.08-.17-.19c.4.03.77-.22,1.1-.07l-.31.13.75-.02-.42-.17c.41-.17-.02-.47.51-.34-.11.03.4.03.59.25h0c.2-.11.41-.23.7-.12.07.12-.08.41-.03.49.21-.3.94-.05,1.2-.37-.08.07-.09.27-.07.31l.17-.25c.18.09.21.13.17.28.56.06-.16-.48.49-.26-.05.02-.03.06-.14.09.66.12,1.28-.14,1.89,0,.18.38-.53.08-.33.4.88-.04,1.82-.44,2.67-.35l-.16-.04c.11-.53.63.26,1.06,0-.1.04-.13.3-.11.24.58.07,1.19-.15,2.06-.34l-.11.14c.35.12.9.05,1.28.1.11-.14.32-.13.18-.32,1.17.74,2.16-.49,3.19.1-.12,0-.28.13-.19.13l.85-.17c-.08-.23-.12-.13-.31-.3.1-.14.34-.26.55-.27-.38.17.02.37.2.49-.03-.07.02-.15,0-.22.47.39.05-.47.68-.23l-.03.12c.23-.08.43-.25.68-.23.12.26-.24.14-.24.36.35-.04.65-.55.98-.3-.14.08-.35.1-.5.18.36.29.4.21.65.24h-.03s.6.1.6.1l-.16-.08c.39-.72.88-.19,1.43-.68-.54.47-.08.26-.1.56.16.07.39.15.33.24.26-.26.48.16.84-.22.02.1.3-.01.25.24.35-.1-.1-.16-.08-.29.53-.37,1.33.3,2.1-.21.67-.24.77-.58,1.4-.79.23.14-.15.37-.15.37.36.12.62.07.93-.07-.06.09.01.16.12.26.26-.05.15-.37.5-.25-.05.11-.11.29-.23.41.3-.11.59-.32.91-.43.1.16-.17.27-.28.39.35-.11.92-.23,1.01-.51l-.24-.08c.13-.02.09.22,0,.28-.29.24-.45-.06-.48-.15l.22-.08c-.28-.55-.91.17-1.37.17l.16-.43-.44.38c-.11-.1-.2-.33.03-.41-.35-.18-.28.17-.58-.03-.03-.03-.02-.05,0-.07l-.31.15c.06-.09-.08-.29.13-.24-.59-.19-.9.39-1.15.09l.05-.03c-.79.2-.05.31-.63.71l-.46-.72-.06.31c-.08,0-.25-.02-.23-.14-.29.23.06.13-.1.34-.42-.25-1.09.21-1.21-.27-.13.24.39.15-.02.34-.16-.51-.48.12-.86-.09.09-.28.45-.16.07-.37-.19.47-.71-.05-1.01.06,0,.37-.66.2-1.16.35.02-.12-.98-.14-1.46-.24v-.06c-.06.37-.56.33-.91.42,0-.22.06-.31.25-.42l-.34.02c-.07.12-.18.19-.39.24l.07-.28c-.45.04-.89.37-1.47.21-.02.26.49.69-.11.89-.03-.14-.06-.37.1-.44-.05.02-.18.12-.29.07l.23-.24c-.27-.09-.13.2-.34.19,0-.2-.16-.14-.14-.29.05-.02.19.07.26,0-.24-.03-.53-.13-.63-.28.03.11.01.27-.16.3-.45.03-.16-.23-.43-.32-.1.14-.39,0-.39.3-.13,0-.16-.13-.21-.21-.23.14-1.08.07-.81.38l.06.02s-.02,0-.04.01h0s0,0,0,0c-.76.31-1.59-.13-2.34,0v-.1c-.45.12-1,.07-1.32.29-.13,0-.32-.18-.26-.3-.34.08-.38.19-.88.02.35-.17-.12-.15.36-.13-.45-.09-.55-.24-1.03.02.17-.25-.33-.32-.55-.25l.31.19c-.24.03-.45,0-.66-.02l.12-.33c-.9-.42-1.66.67-2.34-.04-.25.22.49.18.27.45-.42-.06-.84-.56-.97-.56-.57-.21-.56.46-1.15.32.07.12.13.45-.33.53-.42-.07-.49-.53-.22-.61.1,0,.15.04.14.08.14-.03.32-.07.16-.21l-.06.12c-.2-.13-.78-.16-.63-.34-.32.09-.15.19.08.26-.53-.21-.84-.06-1.38-.21.08.07.15.21.07.21-.8-.2-.37.2-.93.21-.3-.21.15-.42-.42-.32-.33-.15-.04-.32.1-.4-.52.18-.92-.23-1.2-.3l.27-.07c-.16.04-.29.03-.42.02l.13.25c-.15-.06-.28-.07-.27-.17-.18.14.08.4-.26.59-.19-.14-.64.05-.68-.27.64.18-.04-.32.52-.31-.11.02-.24,0-.39-.05-.02-.04.03-.06.07-.08-.59-.35-.32.32-.97.24.1-.17-.11-.35-.22-.33.26.03.09.31-.17.42-.4-.19-.46.05-.68,0l.24.09c-.11.16-.31.12-.61.13,0-.14.27-.05.18-.13-.36.26-.67-.43-1.15-.29-.19-.15.03-.33-.14-.44-.53.15-.5-.32-1.05-.21.11.26.15.21-.26.38l.88-.03-.61.26c.26.04.57-.07.72,0-.29.15-.26.1-.16.31-.3-.41-.74.11-1.11-.21l.11-.58c-.56-.37-1.14.1-1.91-.2l.24.15c-.15.21-.5-.06-.77-.02.06-.19-.08-.29-.17-.44-.02.15-.57-.14-.73.23l-.3-.33c-.61-.25-.85.39-1.45.18.24-.16,0-.36.44-.42-.2-.04-.38-.13-.41,0-.09-.15-.63.11-.77-.12-.11.06-.19.25-.41.18-.01-.05.03-.09.03-.09-.03.09-.39.03-.25.3-.47-.75-1.76-.44-2.15-1.13-.46-.07-1-.18-1.4-.29.04-.05.03-.09.1-.05-.48-.36-.52.42-1.07,0-.21-.41.38-.05.23-.23.13-.64-.77-.18-1.05-.69h.11c-.24-.32-.86-.04-1.34-.3,0,0,.05-.04.04-.09-.47.17-1.17,0-1.7-.12.25-.17.28-.03.28-.31-.23-.06-.1.41-.57.29-.09-.18-.35-.45-.28-.71l.41.17c-.06-.42-.53-.23-.71-.38l.09-.13c-.64-.24-.81.11-1.46-.22l.02.14c-.53.18-.21-.33-.7-.26l.07-.41c-.28-.04-.99-.09-1.45-.24.38-.13.94,0,1.32,0-.23-.12-.8-.38-1.01-.28.11.02.27,0,.34.09-.43.13-.88.06-1.34-.19.44-.61-1.08-.86-1.11-1.56-.95-.2-1.48-1.06-2.39-1.6-.02.7-.27-.16-.56.38-.23-.11-.31-.17-.3-.21-.14-.24-.27-.5-.4-.74-.04-.25.27.03.33-.09-.41-.36-.03-.35-.22-.69-.07.22-.34.14-.53-.11l.18.48c-.81-.19-.22-.8-1.02-.99h.31c-.39-.14-1.1-.92-1.72-.78,0-.1.03-.28.19-.21-.68-.63-1.9-.99-2.23-1.7l.16-.06c-.16-.09-.42,0-.47-.26.05-.04.16-.06.1-.12-.11-.02-.52-.13-.61-.37l.25.02c-.48-.79-1.25-.73-1.86-1.22.32-.28-.03-.93-.2-1.25l.06-.03c-.63-.84-1.43-1.13-2.13-1.85.01-.39-.24-.83-.55-1.3-.28-.48-.6-1-.74-1.48,0,.17-.31.16-.44.03-.04-.24-.6-.39-.23-.56l.04.07c.24-.34-.06-.7-.22-1.03l-.49.2c.11-.61-.25-1.12-.58-1.61-.31-.49-.61-.93-.4-1.31-.22-.16-.33-.42-.55-.58l.27-.1c-.18-.62-.25-.94-.6-1.65l.25.08c-.14-.42-.97-.24-1.13-.64l.36-.26c-.24-.75-.14-1.61-.73-2.24.06,0,.19-.02.24.1-.08-.36-.09-1.45-.62-1.18.37-.11-.18-.79-.43-1.17h.29c-.42-.27-.52-.26-.72-.73.01-.13.2-.15.16.02.06-.42-.32-.25-.28-.75l.21.14c-.07-.41-.15-.35-.4-.54-.17-.23-.07-.79.17-.89-.16-.03-.4-.21-.37-.47.09-.05.16.03.2.07.07-.71-.5-.96-.29-1.47.09-.02.13-.06.15-.1.07.54.14.98.11.94.25-.04.22-.48.63-.19-.26-.31-.76-.85-.69-1.29.02-.02.04-.05.08-.07l.03.04c.01-.1-.02-.19-.08-.26.02-.14.04-.23.03-.36.2-.08.05-.51.03-.73-.28.05-.27-.24-.46.05.02-.04.04.04.07.18.01.03.02.07.04.09h-.03c.02.13.05.32.09.53-.16-.15-.31-.32-.18-.58-.19-.09-.39-.19-.49-.25.35-.35.51-.95.74-1.05-.21-.65-.26-1.56-.81-1.95-.08-.19.14-.23.22-.31.06.11.06.24.14.29-.16-.37-.12-1.13-.5-1.2.14-.49.36.25.25-.41l.12.08c.52-1.32-1.03-2.09-.31-3.57-.05.1-.07.15-.13.17.31-1.66-.33-3.42.25-5.05.12-.46-.11-.52-.28-.81l.31-.09-.33-.5c-.24-.7.79-1.16.35-2.05l-.21.1c.05-.31-.07-1,.16-.93-.04-.03-.21-.11-.09-.23h.16s-.22-.79-.22-.79c.15-.59.62.13.7-.74-.04-.33-.4-.95-.52-.83-.02.13-.12.33-.28.33l-.06-.3c-.46-.08-.92-.34-1.29.37l.25.53-.24.15v-.43c-.22.23-.04.4.08.58-.12.03-.21.1-.26.2l.41.53c-.19.05-.35-.24-.47.09.19.25.42-.2.53.19-.23.23-.39.15-.23.45-.12.03-.2-.03-.24-.15.13.26.03.68.27.82-.27.24.03.86-.41.82.1.09.32.46.33.7-.51-.45-.06.88-.62.74.46.33.17,1.16.42,1.73-.04-.03-.11-.1-.09-.15-.05.32-.19.41-.28.61.39.05.47.54.71.81-.38.38-.46-.24-.82-.13.32-.01.31.68.57.55-.24.3-.12.25-.44.41.49.06.08.28.38.53-.24.43-.46.11-.31.58-.15.23-.33-.2-.33-.2ZM32.83,40.73h0c-.02-.09-.04-.18-.05-.23.01.05.03.11.05.23ZM32.97,41.67c0-.12-.03-.26-.05-.41.09-.05.2-.03.2.07-.07-.04-.09.19-.15.34ZM34.63,39.44c.06.14,0,.19-.04.22-.01-.07-.03-.15-.07-.25h-.04c.06,0,.11,0,.15.03Z"/><path class="cls-1" d="M34.23,39.23s-.02-.03-.03-.06c-.02.03-.04.06-.05.09l.09.04v-.08Z"/><path class="cls-1" d="M96.85,81.02h-.02s.03.02.04.03c-.01-.01-.01-.02-.02-.03Z"/><polygon class="cls-1" points="36.08 54.47 36.14 54.44 36.05 54.39 36.08 54.47"/><path class="cls-1" d="M102.05,81.77s.03.05.07.07c0-.02-.03-.04-.07-.07Z"/><path class="cls-1" d="M104.28,81.7l.32.08c-.14-.05-.24-.07-.32-.08Z"/><path class="cls-1" d="M106,81.73c.02-.05.02-.09.03-.12h0s-.02.12-.02.12Z"/><path class="cls-1" d="M78.62,81.74s-.05,0-.07,0c-.16.04-.05.03.07,0Z"/><path class="cls-1" d="M86.81,81.8c-.09.05-.18.09-.27.12.14.03.26.04.27-.12Z"/><polygon class="cls-1" points="69.52 80.33 69.52 80.33 69.46 80.31 69.52 80.33"/><path class="cls-1" d="M86.17,81.9c.14.07.26.06.38.02-.12-.02-.26-.06-.38-.02Z"/><path class="cls-1" d="M113.43,81.29h.08s0-.03,0-.04l-.09.04Z"/><path class="cls-1" d="M113.52,81.24l.09-.04s-.08,0-.09.04Z"/><path class="cls-1" d="M113.79,81.12l-.19.09c.07,0,.15,0,.19-.09Z"/><path class="cls-1" d="M111.16,81.34l-.02.1s.02-.06.02-.1Z"/><path class="cls-1" d="M110.47,81.42c.17,0,.43.18.65.1v-.08c-.08.16-.51-.2-.65-.02Z"/><path class="cls-1" d="M107.51,80.39l.58.04c-.11-.1-.25-.24,0-.28-.75-.27.17.23-.59.24Z"/><path class="cls-1" d="M105.71,80.35c.31-.07-.01-.16,0-.22-.19.11-.24.14,0,.22Z"/><path class="cls-1" d="M92.82,80.86l.03-.26c-.24.04,0,.1-.03.26Z"/><polygon class="cls-1" points="90.34 82.16 90.57 82.32 90.68 82.09 90.34 82.16"/><polygon class="cls-1" points="88.92 80.31 89.03 80.28 88.63 80.36 88.92 80.31"/><path class="cls-1" d="M67.75,77.27l-.02.32c.17,0,.3-.34.02-.32Z"/><path class="cls-1" d="M59.02,74.24c-.02-.18-.21-.38-.43-.31.18.11.31.3.43.31Z"/><polygon class="cls-1" points="39.44 55.61 39.62 55.72 39.38 55.46 39.44 55.61"/><path class="cls-1" d="M117.34,88.39c.04.08.18.22.2.15l-.19-.27v.12Z"/><path class="cls-1" d="M118.02,88.6c-.06-.16-.19-.42-.43-.62.16.28.06.19.27.52-.02.07-.14-.02-.22-.11.04.08-.11,0,0,.18.22.14.3.09.23-.13.06.04.11.12.14.17Z"/><path class="cls-1" d="M122.37,85.4h-.05s.04,0,.05,0Z"/><path class="cls-1" d="M124.97,83.32s0,.05.02.08c0-.03,0-.06-.02-.08Z"/><path class="cls-1" d="M125.63,83.21s-.03,0-.04,0c.03.01.05.02.04,0Z"/><path class="cls-1" d="M122.37,85.4l.14.02c-.07-.08-.09-.03-.14-.02Z"/><path class="cls-1" d="M118.04,87.51s0,.06.02.1c0-.02,0-.04.01-.06l-.03-.04Z"/><path class="cls-1" d="M121.45,86.58l-.02.02s.05.07.07.12l-.05-.13Z"/><path class="cls-1" d="M120.65,87.37s-.15-.22-.23-.32c.07.1.09.15.09.18.04.04.08.09.14.14Z"/><path class="cls-1" d="M118.99,88.19v.05s0-.03,0-.05Z"/><path class="cls-1" d="M122.09,86.09s.06.05.07.07c-.02-.03-.05-.05-.07-.07Z"/><path class="cls-1" d="M112.16,73.44s0-.03,0-.05c-.01.03-.02.05,0,.05Z"/><polygon class="cls-1" points="111.09 71.85 111.11 71.84 111.14 71.69 111.09 71.85"/><path class="cls-1" d="M126.65,82.78h0s0,.03,0,0Z"/><path class="cls-1" d="M128.75,73.62c.07.27-.27.27-.14.58,0-.11.27-.39.14-.58Z"/><path class="cls-1" d="M118.09,87.52s.02-.02.03-.03c-.02,0-.03.02-.03.03Z"/><path class="cls-1" d="M128.6,74.2h0s.01.03.01.03c0-.01,0-.02-.01-.03Z"/><path class="cls-1" d="M128.32,81.06s-.07-.06-.1-.08c.02.02.05.04.1.08Z"/><path class="cls-1" d="M126.72,81.95h.06s-.05,0-.06,0Z"/><path class="cls-1" d="M128.74,80.15s.06.02.06-.03c-.01,0-.02-.01-.03-.02.02.04.02.06-.03.05Z"/><path class="cls-1" d="M129.49,79.38s-.04-.01-.06-.02v.04s.06-.01.06-.01Z"/><path class="cls-1" d="M115.07,73.77c0-.08,0-.17,0-.26-.02.2-.17.25,0,.26Z"/><path class="cls-1" d="M118.15,87.63c-.04-.06-.06-.09-.06-.11v.03s.04.06.06.08Z"/><path class="cls-1" d="M127.29,78.47l.12-.05s-.08.02-.12.05Z"/><path class="cls-1" d="M121.91,74.84l-.04.03s.03,0,.04-.03Z"/><path class="cls-1" d="M127.64,78.13c.09.05.15.07.19.08-.01-.02-.02-.04-.04-.06l-.15-.02Z"/><path class="cls-1" d="M115.07,73.51h0s0,0,0,0Z"/><path class="cls-1" d="M113.97,74.01c.14.03.13-.35.19-.55.19-.08.04.28.06.48.12-.08.26-.4.34-.37,0,.06,0,.09-.02.16.16-.27.34.04.53-.3,0,.03,0,.07,0,.09,0-.19.03-.37.06-.5.07,0,.16-.21.14.03-.04-.01-.06.08-.09.15l.08-.09c0,.35-.11.1-.15.36.15-.09.35-.35.44-.24-.03.34-.25.07-.17.39l-.14-.15c.03.55-.09-.05-.07.53.19.13.26-.13.45,0,.08-.18.03-.28.11-.46.35-.29.09.88.38.47.09-.21.18-.64.3-.39l-.11.37c.19.07.2-.53.37-.24-.06.14-.18.1-.15.15.09.32.13-.2.23-.18l-.03.34c.22-.02.49-.22.74-.25-.03.1-.09.2-.05.31.32-.12.63.14.88.39l.16-.27s.03.14-.01.19c.09.13.04-.18.11-.29.07-.01.06.18,0,.26.24-.21.65-.44.8-.09l-.05.08c.14.14.28-.56.38-.27l-.04.05c.33.18.76-.02.96.46.12-.41.32.24.43-.34.15.32.08.42.33.66.07.04.17-.35.27-.39l-.05.3.18-.3v.37s.11-.06.11-.06c-.03-.02-.05-.15-.03-.24.16-.12.3.27.28.42l.36-.21c-.03.12-.09.15-.14.23.22-.28-.02.33.18.07,0-.07.04-.18.05-.24.05.2.23.23.37.17l-.06.21c.23.09.52-.02.79.03-.08-.11,0-.47.08-.5l-.02.33c.08-.19-.06-.13.08-.36.09.05,0,.38-.07.47l.14-.09c0,.1-.05.14-.07.26.08-.19.16.36.29.02v.1c.26.05.4-.05.62-.03.05-.28.12-.2.23-.42.15.11.29.36.49.37.16-.12.08-.23.17-.38-.03.25.17.26.04.43.24,0,.3,0,.63-.16-.02-.11-.04-.16-.01-.24.06-.03.1.13.08.25l-.02.02c.39-.33.64.86.99.38l-.02.02.32-.23c.12.06-.11.18-.04.35.37-.37.44.13.69-.11,0,.39.1.4.2.38.1-.01.18-.06.05.14l.1-.15c.11-.14-.04.09-.07.13.09-.11.09-.13.15-.21.13-.04.16.1.07.2-.07.11-.24.13-.33.15-.04.04.89.22.45.27l-.31-.12c.32.34-.19.48-.08.92-.05-.06-.14-.11-.12-.14-.24-.07-.14.2.01.32-.05.03-.15-.09-.25-.12-.15-.03.15.33-.07.21-.03-.02-.05-.06-.06-.08.06.11-.16.15.09.29-.18.02-.07.27-.26.24.18.26-.26.06.04.38-.31-.32-.42-.11-.33.11-.07-.12-.15-.05-.25-.22-.08.08-.1.21.07.37-.52-.26-.02.6-.57.16-.09.4-.21.73-.36,1.01-.29-.34.22-.26-.11-.6-.09.33.05.73-.24.83-.1,0-.1-.17-.13-.25-.09.33-.44.34-.46.69-.03-.03-.04-.08-.04-.13-.03.04-.13.03.01.18v-.07c.26.17.27.6.36.72-.33-.49-.28.06-.68-.59,0,.05.04.15.13.25-.06,0-.13-.05-.2-.2-.06.2.13.32.01.43-.07-.07-.07-.12-.13-.22.07.2.14.4-.02.43-.03-.05-.1-.1-.07-.12-.16.18.05.65-.27.68-.23-.37-.16-.05-.42-.32l-.03.18.16.1c-.09.08,0,.35-.15.33l-.04-.17-.12.2.19.02c.04.23.33.34.14.37,0-.05-.09.08-.29-.04h0c.03.13.07.26-.06.25-.1-.07-.26-.32-.33-.37.16.27-.15.25.01.55-.03-.07-.16-.22-.2-.25l.13.22c-.1-.02-.13-.05-.23-.17-.16.08.36.32.07.3,0-.03-.03-.05-.03-.1-.22.06-.18.38-.4.41-.29-.24.06-.18-.2-.37-.15.23-.11.71-.36.81h.06c.33.42-.32-.07-.25.21,0-.05-.17-.25-.13-.2-.19.05-.18.34-.27.64l-.07-.12c-.16-.02-.25.13-.38.16.07.12,0,.15.16.27-.78-.35-.22.75-.88.48.03-.03-.01-.15-.04-.13l-.11.27c.17.16.12.08.28.18.07.12.08.25.03.3-.01-.19-.25-.28-.37-.34.05.05.09.12.14.17-.38-.21.29.36-.03.28l-.07-.1c-.01.09.05.26-.03.28-.2-.18-.03-.14-.17-.31-.07.08.18.52-.07.38-.02-.09.03-.13.02-.22-.29-.16-.24-.1-.33-.08h.01s-.23.01-.23.01l.09.03c.37.61-.12.28.05.73-.16-.44-.15-.21-.34-.44-.09-.03-.21-.06-.25-.13.1.24-.23-.05-.08.3-.07-.07-.07.05-.22-.14-.03.13.13.11.21.21.1.36-.57-.03-.44.47-.03.28.16.55.12.8-.15-.07-.2-.3-.2-.3-.18-.04-.22.04-.22.19-.04-.08-.11-.12-.2-.18-.04.07.2.3.02.26-.06-.09-.16-.24-.2-.35-.01.13.04.33.03.46-.13-.11-.13-.23-.18-.34-.03.13-.11.31.04.53l.12.02s-.17-.16-.18-.21c-.07-.22.16-.02.23.05v.09c.42.38.14-.26.26-.32l.23.35-.12-.35c.1.06.27.22.26.31.21.09-.03-.17.19-.06.03.02.04.04.05.06v-.16c.03.08.2.21.11.2.29.06,0-.42.26-.23v.03c.09-.27-.18-.24-.28-.63l.6.48-.19-.24s.08-.03.15.07c-.07-.22-.1-.09-.19-.27.28.13.16-.32.51.02-.12-.2-.21-.06-.22-.26.38.36.05-.17.3-.06.15.22-.02.19.22.29-.25-.38.23-.07.24-.2-.24-.27.05-.25.09-.44.07.1.35-.05.55-.05l.04.05c-.22-.29-.07-.34-.03-.47.14.17.19.24.21.36l.08-.07c-.06-.1-.08-.17-.06-.25l.16.22c.09-.1,0-.43.25-.41-.16-.2-.58-.44-.56-.69.1.1.26.27.26.35,0-.02-.03-.12.03-.1l.1.22c.13.02-.1-.17-.04-.2.13.15.13.07.23.2,0,.03-.1-.02-.06.05.08-.02.22,0,.34.1-.08-.08-.18-.2-.15-.25.09-.1.19.15.32.17-.07-.12.09-.08-.1-.3.03-.03.13.07.19.12-.03-.14.22-.25-.05-.43h-.03s0-.01,0-.02h0s0,0,0,0c-.02-.37.47-.2.56-.45l.07.07c.03-.18.18-.26.12-.48.03-.03.19.07.26.17.03-.13-.04-.22.19-.2.04.2.13.09,0,.17.16-.03.29.07.22-.23.13.22.29.17.29.07l-.19-.07c.03-.08.09-.1.16-.13l.2.27c.48.11-.08-.85.53-.49-.1-.22-.22-.02-.36-.27.13-.05.55.21.58.19.26.02-.2-.47.02-.5-.1-.07-.32-.29-.3-.47.13-.05.45.26.45.39-.02.03-.05.01-.08-.02,0,.06,0,.13.11.2l-.07-.1c.13.05.25-.08.35.09,0-.15-.1-.17-.19-.17.24.02.2-.17.4-.2-.06-.03-.18-.12-.15-.13.28-.06-.07-.24.02-.39.19.07.26.34.29.12.16.02.23.22.26.32-.04-.27.32-.08.41-.11v.13c0-.08.03-.1.06-.13l-.19-.15c.06,0,.09-.03.16.05-.07-.15-.29-.27-.36-.49.13.05.06-.23.29,0-.22.06.23.22.13.37,0-.05.03-.08.09-.08.03.02.04.05.04.08.33.08-.17-.32-.02-.45.1.15.26.22.26.17-.06.05-.23-.19-.26-.35.19.02.04-.17.1-.2h-.1c-.1-.15-.04-.17,0-.27.1.1,0,.13.07.15-.13-.3.38.09.35-.16.13.05.23.24.32.27-.04-.28.29.07.28-.18-.19-.15-.16-.1-.23-.35l-.09.3-.1-.37c-.06.05-.03.23-.09.23-.07-.2-.04-.15-.2-.27.32.19.02-.3.28-.21l.39.44c.32.07.05-.45.34-.51l-.13-.02c-.13-.2.09-.13.09-.25.13.15.21.17.32.24-.1-.11.15-.11-.1-.42l.26.12c.22-.06-.2-.57-.01-.65.1.2.26.24.26.45.05-.04.12-.05.03-.16.11.07-.04-.32.13-.22-.04-.09-.17-.25-.1-.29.03.02.07.07.07.07-.07-.07,0-.18-.2-.29.59.3.38-.44.89-.23.06-.16.12-.35.19-.46.04.04.08.06.05.07.27-.05-.39-.43-.1-.48.33.09.07.19.21.21.56.35.08-.27.48-.2v.05c.27.01-.05-.38.08-.53,0,0,.05.03.09.05-.24-.28-.23-.53-.26-.73.22.14.1.13.35.18,0-.09-.4-.12-.41-.3.15,0,.3-.08.57-.03,0,.06-.02.11-.04.17.37.03.05-.22.13-.29l.15.05c.02-.3-.38-.35-.32-.64l-.12.03c-.39-.15.22-.14-.08-.28l.39-.1c-.11-.12-.43-.32-.58-.44.32-.03.52.17.72.31-.02-.13-.12-.42-.33-.4.05.03.17.05.12.12-.35-.05-.53-.13-.63-.29.34-.18.3-.33.21-.49-.1-.15-.24-.3-.12-.59-.52-.07-.77-.6-1.22-.67,0,.61-.13-.02-.24.59-.09.02-.12,0-.12-.04l-.19-.41c-.03-.19.1-.12.12-.25-.18-.08-.04-.27-.13-.45-.01.22-.12.3-.2.2l.09.3c-.3.28-.12-.54-.41-.26l.11-.18c-.14.09-.45-.08-.64.39-.01-.07-.01-.24.05-.28-.28-.12-.73.41-.9.08l.05-.14c-.06.03-.14.26-.18.1.01-.06.05-.14.02-.16-.04.05-.19.24-.24.14l.09-.16c-.25-.24-.5.33-.75.4.07-.43-.13-.61-.23-.7v-.06c-.31-.11-.6.27-.93.39-.11-.5-.61-.3-.87-.61.03.09-.06.34-.12.37-.06-.1-.25.27-.17-.13h.02c0-.39-.15-.31-.27-.34l-.1.52c-.18-.81-.83.15-.88-.55-.09.12-.18.1-.28.22l.05-.28c-.19-.1-.28-.16-.54-.13l.08-.19c-.14-.04-.31.78-.44.77l.03-.42c-.24-.03-.43-.44-.73-.1.01-.06.04-.18.08-.19-.11-.03-.4-.35-.45.23.06-.37-.25-.08-.4.07l.06-.27c-.17.33-.19.43-.36.5-.03-.04,0-.23.04-.15-.1-.16-.14.25-.26.07l.08-.17c-.12-.04-.13.05-.23.25-.1.1-.23-.11-.21-.36-.04.15-.14.34-.21.26,0-.1.04-.15.06-.18-.18-.22-.36.27-.47-.02.01-.09,0-.14,0-.17.17.03.3.07.28.09.04-.25-.09-.32.08-.65-.14.17-.39.56-.5.42,0-.03,0-.05,0-.09l.02-.03s-.06-.01-.09.03c-.04-.05-.06-.08-.1-.09.02-.21-.14-.14-.2-.16-.04.28-.12.22-.07.46,0-.02.02-.03.06-.04.01,0,.02,0,.03-.02v.02s.1,0,.16,0c-.08.13-.15.24-.2.08-.07.17-.13.35-.17.43-.03-.4-.17-.64-.16-.88-.23.12-.5.02-.71.52-.07.06-.04-.16-.05-.25.04-.05.08-.03.11-.1-.14.11-.35,0-.44.36-.12-.19.14-.32-.07-.3l.05-.11c-.3-.65-.8.82-1.12,0,.02.05.04.07.03.14-.45-.41-1.09.14-1.5-.46-.12-.13-.18.1-.29.27l.02-.3-.2.32c-.25.22-.24-.79-.58-.36v.21c-.09-.05-.32.07-.27-.16-.02.04-.06.2-.09.09l.02-.16-.28.23c-.16-.14.13-.61-.13-.69-.11.04-.35.41-.33.52.04.01.09.11.06.27l-.1.07c-.09.46-.24.92-.07,1.27l.2-.26v.23s-.12,0-.12,0c.04.22.12.04.19-.08,0,.12,0,.21.02.26l.22-.41c-.01.18-.13.35-.04.46.1-.19,0-.41.14-.53.04.22,0,.39.11.22,0,.12-.04.19-.08.24.1-.13.21-.03.29-.27.03.27.27-.03.19.41.04-.1.19-.32.26-.33-.21.5.26.07.13.63.17-.45.38-.15.59-.38-.02.04-.05.11-.06.08.09.05.09.2.14.3.07-.38.24-.45.36-.68.06.39-.14.44-.17.81.04-.31.25-.28.26-.55.05.25.06.12.05.45.09-.48.1-.07.22-.35.09.26-.04.46.13.33.04.16-.11.31-.11.31ZM117.47,73.72h0s-.06,0-.07.01c.02,0,.04,0,.07-.01ZM117.75,73.76s-.08-.03-.12-.03c0-.1.03-.19.06-.18-.03.06.03.13.06.22ZM117.46,71.74c.05-.03.06.02.05.08-.02,0-.05,0-.08.02v.03c0-.05.02-.1.03-.14Z"/><path class="cls-1" d="M117.32,72.09s-.01.02-.02.02c0,.03.01.05.02.07l.03-.08h-.02Z"/><path class="cls-1" d="M122.31,85.39h0s-.02,0-.04-.02c.01,0,.02.01.03.02Z"/><polygon class="cls-1" points="121.57 74.92 121.58 74.85 121.55 74.91 121.57 74.92"/><path class="cls-1" d="M120.49,85.73s-.04-.03-.06-.04c.01.01.04.03.06.04Z"/><path class="cls-1" d="M119.94,86.14h-.14c.07,0,.11,0,.14,0Z"/><path class="cls-1" d="M119.45,86.38s.05.07.07.1h0s-.07-.1-.07-.1Z"/><path class="cls-1" d="M125.44,80.58s0-.01,0-.02c0-.07-.01-.03,0,.02Z"/><path class="cls-1" d="M124.03,82.72c-.01-.06-.03-.11-.03-.15-.05.01-.08.03.03.15Z"/><polygon class="cls-1" points="127.28 78.48 127.28 78.48 127.29 78.47 127.28 78.48"/><path class="cls-1" d="M124.09,82.49c-.07-.01-.09.02-.09.07.04-.01.09-.02.09-.07Z"/><path class="cls-1" d="M117.68,87.8h-.03s.02.03.03.04v-.04Z"/><path class="cls-1" d="M117.68,87.85v.04s.02-.02,0-.04Z"/><path class="cls-1" d="M117.68,87.98v-.09s-.04.02,0,.09Z"/><path class="cls-1" d="M118.28,87.44l-.06-.08s.03.05.06.08Z"/><path class="cls-1" d="M118.42,87.28c-.05.02-.24-.08-.25.02l.05.06c-.08-.13.28.08.2-.08Z"/><path class="cls-1" d="M119.91,87.63l-.19.06c.1.06.22.14.18.21.38.09-.2-.15,0-.27Z"/><path class="cls-1" d="M120.43,87.38c-.04.1.11.12.14.17-.02-.11-.03-.14-.14-.17Z"/><path class="cls-1" d="M123.38,84.74l.16.2c.03-.08-.07-.07-.16-.2Z"/><polygon class="cls-1" points="123.06 83.25 122.9 83.18 123.03 83.37 123.06 83.25"/><polygon class="cls-1" points="124.61 84.31 124.61 84.35 124.64 84.2 124.61 84.31"/><path class="cls-1" d="M129.55,79.69l-.25-.19c0,.08.26.33.25.19Z"/><path class="cls-1" d="M130.78,76.5c.16-.04.26-.17.1-.24-.02.1-.14.19-.1.24Z"/><polygon class="cls-1" points="122.73 72.55 122.8 72.45 122.68 72.52 122.73 72.55"/></svg>