<?xml version="1.0" encoding="UTF-8"?><svg id="Capa_1" xmlns="http://www.w3.org/2000/svg" viewBox="0 0 400 400"><defs><style>.cls-1{fill:#fff;}</style></defs><path class="cls-1" d="M90.5,206.59c.42.4.79.88,1.27,1.17.15.09.9-.43.88-.52-.16-.57-.37-1.2-.76-1.63-.5-.56-1.17-.99-1.81-1.41-.12-.08-.48.12-.65.27-.11.1-.17.41-.09.54.29.48.64.93,1.16,1.59Z"/><path class="cls-1" d="M315.78,216.78c-2.04-.76-1.36-2.8-2.16-4.1-.04-.07.09-.35.12-.35,2.14.26.88-1.3.73-1.73-1.07-3.12.38-5.93.9-8.85.17-.95,0-1.95,0-2.93-.39,0-1.07-.1-1.12.03-.42,1.11-1.6,2.08-.58,3.51.28.39.02,1.16-.03,1.76,0,.02-.57.05-.58,0-.35-1.42-2.76-2.71-.3-4.34.1-.06.04-.63-.03-.65-2.88-.72-1.7-2.85-1.61-4.59,0-.12-.91-1.39-1.07-1.55-.12-.12-.25-.34-.21-.46.3-.9.6-1.8.99-2.66.25-.54,2.73-.26.57-1.69-.21-.14-.14-.73-.19-1.11-.84,1.64-1.19,0-1.69-.29-.38-.21-.65-.61-.97-.93.49.07.98.14,1.47.21.51.07,1.02.14,1.54.21-.46-.61-.79-1.46-1.4-1.75-.81-.39-1.83-.33-2.77-.47-.48.08-.96.15-1.43.23-.03-.23-.05-.47-.08-.7.44.15.88.3,1.43.36.14-1.08.31-2.22-1.31-1.21-.22.14-.72-.16-1.08-.26-1.59-.46-3.16-1.04-4.78-1.34-1.97-.37-4-.45-5.99-.77-1.94-.31-3.86-.74-5.78-1.17-1.79-.4-3.55-.88-5.34-1.28-.26-.06-.71.06-.85.26-.43.61-.51.69-.96.45-.38-.21-.79-.56-1.17-.55-1.79.04-3.58.21-5.37.29-.35.02-.71-.13-1.07-.21.25-.2.49-.43.76-.61.45-.29.93-.54,1.39-.81-.77-.29-1.53-.79-2.3-.82-.83-.03-1.67.46-2.52.59-.49.08-1.06-.01-1.52-.2-1.08-.42-1.97-1.53-3.31-.29-1.12,1.04-2.83,1.68-4.07.78-1.77-1.28-3.48.03-5.14-.46-.52-.16-1.56-.26-1.58-.19-.54,2.16-1.69.4-2.46.34-1.72-.13-3.45-.36-5.12-.77-.53-.13-1.27-.93-1.26-1.41.03-1.29-.6-1.11-1.39-.94-.32.07-.66.03-.99.05-1.08.08-2.29-.11-3.2.33-1.12.55-1.83.4-2.86-.13-.87-.45-2.02-.51-3.03-.47-1.36.06-2.71.44-4.08.55-.33.03-.71-.47-1.06-.72.41-.15.82-.31,1.23-.43.43-.12.88-.19,1.32-.29-.37-.3-.73-.62-1.11-.91-.3-.22-.71-.33-.94-.6-.65-.79-.76-.58-1.09.29-.44,1.16-.9,3.01-2.66.98-.17-.2-.71-.13-1.07-.09-1.33.13-2.66.31-3.99.44-.46.05-.92.02-1.39.03.35-.29.78-.53,1.04-.9.32-.45.49-1,.73-1.51-.49-.07-1.02-.3-1.46-.18-.84.22-1.61.73-2.46.93-.71.17-1.9.38-2.17.03-1.32-1.73-2.24-1.42-3.28.21-.24.38-.88.56-1.38.66-.13.03-.62-.65-.55-.86.15-.41.58-.73.9-1.07.03-.03.18.04.19.02.26-.47.51-.94.76-1.41-.39.11-.79.2-1.17.33-.65.23-1.46.86-1.9.67-1.22-.55-1.64.11-2.17.92-.21.31-.61.5-.92.75.17-.38.38-.75.5-1.15.06-.23.02-.53-.08-.75-.05-.12-.31-.19-.48-.22-1.97-.36-4.21.29-5.75-1.69-.15-.19-.99.15-1.52.25.68,1.74-1.19,1.81-1.65,1.73-.8-.14-1.68-.92-2.12-1.67-.39-.67-.26-1.22-1.4-.83-.99.34-2.23.14-3.33-.03-1.63-.26-3.23-.72-4.84-1.08-1.77-.4-3.62-.59-5.28-1.25-1.23-.49-2.21-1.65-3.52-.23-.13.14-.6.18-.72.07-1.35-1.35-3.63.12-4.94-1.78-.43-.63-2.02-.83-2.96-.64-1.05.21-1.74.15-2.48-.59-.32-.32-.85-.42-1.29-.61.17.31.33.62.49.94-.3.07-.68.3-.89.19-1.11-.54-2.13-1.31-3.28-1.7-.81-.27-1.78,0-2.67-.05-.77-.05-1.67-.5-1.59.92,0,.13-.31.28-.47.43-.1-.2-.23-.39-.29-.6-.54-2.06-1.84-2.38-3.6-.98-.28.22-1.1.19-1.35-.05-1.98-1.92-2.59-2.01-5.01-.9-.5.23-1.25-.04-1.87-.17-.16-.03-.24-.39-.36-.6.42-.12.83-.26,1.26-.36.4-.09.81-.13,1.21-.19-.1-.23-.14-.6-.31-.67-.46-.19-1.01-.45-1.44-.34-1.45.38-2.87.92-4.3,1.38-.29.1-.62.23-.91.18-1.21-.18-2.36-1.77-3.63-.1-.25-.33-.61-.63-.74-1-.49-1.46-1.71-1.58-2.89-1.5-2.05.14-3.85,1.05-6.19.44-2.24-.58-4.62-.72-6.99-.78.42-.22.85-.52,1.29-.91,1.44-1.29,3.36-2.25,5.13-3.22,1.71-.93,3.5-1.67,5.24-2.55.08-.04.12-.81-.11-.92-1.51-.78-.28-1.64.78-2.48,1.77-1.39,3.58-2.74,5.44-4.29.95-.6,1.89-.94,2.68-1.49.55-.37.9-1.02,1.29-1.56.05-.07-.17-.34-.34-.35-.46-.02-.96.05-1.44.08.56-.25,1.11-.51,1.67-.74,2.55-1.02,2.45-2.75,2.44-4.11-.01-1.6-1.73-1.69-3.36-.83-3.55,1.88-7.43,3.63-10.37,6.13-2.57,2.18-5.31,3.59-8.07,5.02-1.81.94-2.88,1.41-2.62,3.15.16,1.08-.1,2.63-2.24,3.01-1.78.32-2.64,1.37-2.65,2.45-.01,1.27.04,2.95.86,3.56-1.2.09-2.42.41-3.5.87-.42.18-.13,1.74-.42,2.57-.37,1.05-.81,2.19-1.55,2.96-1.68,1.73-2.08,3.99-2.47,6.1-.38,2.07.16,4.29.15,6.45,0,1.07-.34,2.14-.55,3.2-.21,1.04-.75,2.1-.64,3.09.31,2.72-.64,4.77-3.26,5.47-2.27.61-3.11,1.94-3.16,4.14-.03,1.2-.32,2.4-.5,3.6-.16,1.09-.32,2.18-.48,3.26-.42,2.89-.85,5.77-1.24,8.66-.03.21.28.46.27.69-.04.63-.11,1.26-.26,1.87-.61,2.45-1.39,4.87-1.83,7.35-.4,2.28-.47,4.63-.64,6.95-.27,3.57-.44,7.14-.76,10.71-.51,5.68-1.1,11.36-1.65,17.03-.25,2.56-.41,5.13-.74,7.68-.15,1.21-.76,2.37-.86,3.58-.14,1.78.04,3.58-.02,5.37-.06,1.83-.35,3.66-.34,5.49.01,1.26.57,2.67-1.64,2.16-.1-.02-.39.26-.37.3.47,1.12-.51,2.41-.26,3.07.99,2.7.91,5.35.71,8.13-.17,2.23.15,4.49.18,6.73.02,1.36.02,2.75-.2,4.08-.41,2.56-1.02,5.09-1.47,7.64-.13.7.02,1.45-.01,2.18-.08,1.76.51,4.14-.41,5.14-2.14,2.32.05,5.18-1.63,7.49-.6.83-.12,2.61.16,3.89.96,4.47,1.69,8.98,5,12.62,1.86,2.05,3.2,4.62,1.84,7.66-.13.28.11.73.16,1.1.15.99.31,1.97.44,2.97.14,1.12.16,2.27.4,3.36.21.97.77,1.86.98,2.83.66,3.03,4.46,6.67,7.38,7.16,1.96.33,3.87.93,5.81,1.41,2.15.53,4.27,1.2,6.45,1.52,1.51.22,3.09-.12,4.64-.05.66.03,1.38.35,1.92.74,1.23.9,2.41,1.07,3.75.3.36-.21.92-.39,1.27-.26,1.89.69,3.73,1.51,5.62,2.2.35.13.86-.09,1.26-.24.12-.05.24-.55.16-.62-.18-.15-.57-.3-.71-.21-1.06.69-1.33-.25-1.79-.81.65-.27,1.28-.72,1.95-.79,1.83-.18,3.67-.25,5.51-.28,3.01-.06,6.02-.02,9.02-.1,1.98-.05,4.03,1.26,5.97-.31.25-.2.91.05,1.37.18,1.08.29,2.01.91,3.3.27.86-.43,2.1-.26,3.15-.13,3.05.37,6.08.98,9.13,1.25,1.33.12,2.71-.53,4.07-.54,1.98,0,3.97.22,5.95.43,1.61.17,3.5-1.7,4.85.62.02.03.42-.16.64-.25.82-.31,1.66-.56,2.46-.92,2.13-.97,4.28-1.15,6.58-.65,2.19.47,4.43.69,6.66.98.2.03.44-.32.67-.35,1.4-.16,2.83-.5,4.2-.35,2.5.27,4.96,1.11,7.46,1.22,2.34.1,4.44,1.48,7.11.48,1.76-.66,4.13-.59,6.4-.31,3.09.39,6.2.92,9.32,1.15,3.34.25,6.71.2,10.06.28,1.8.04,3.63.83,5.41-.2.19-.11.47-.11.7-.07,2.91.53,5.82,1.08,8.74,1.6.22.04.47-.17.71-.2,1.55-.22,3.1-.43,4.65-.63,1.55-.21,3.14-.26,4.65-.65,2.35-.6,4.64-1.43,6.96-2.15.12-.04.26.03.4.05,2.35.33,4.7.87,7.05-.03.23-.09.69.16.91.38,1.78,1.77,3.7,1.07,5.64.4.35-.12.75-.29,1.09-.23,2.14.41,3.9-.73,5.8-1.32.39-.12.9.11,1.35.19-.08.36-.18.73-.24,1.09-.05.28-.06.57-.08.85.28,0,.74.11.81-.01.26-.45.39-.97.58-1.46.46-1.17.91-2.35,1.38-3.52.12-.28.5-.6.44-.8-.79-2.5,1.52-4.18,1.66-6.45.1-1.67.52-3.33.86-4.97.29-1.42.67-2.83,1.02-4.24.56-2.29.93-4.58.26-6.93-.14-.5.12-1.16.3-1.71.61-1.87,2-3.83,1.74-5.56-.37-2.42,1-3.45,2.16-4.86.11-.13.12-.34.18-.52-.26-.03-.69-.17-.77-.07-1.04,1.46-.93.25-.94-.42-.02-1.06.18-2.13.06-3.17-.12-1.06.97-2.1.03-3.15.27-.09.55-.14.8-.27.45-.23.99-.42,1.27-.79.13-.17-.23-.73-.38-1.12-.1-.26-.3-.52-.31-.78-.06-1.3,1.36-2.57.08-3.92-.07-.07.02-.4.13-.51,1.27-1.34,2.46-2.67,1.04-4.64-.13-.17.18-.69.33-1.03.61-1.35,1.26-2.68.78-4.25-.35-1.15-.67-2.31-.9-3.49-.06-.31.31-1.02.43-1.01,1.09.09,1.67.07.43-.91-.16-.13-.34-.52-.31-.55,1.66-1.36-.21-3,.37-4.66.53-1.52-.07-3.55.21-5.41.69-4.63,1.1-9.29,1.69-13.93.16-1.25.59-2.46.8-3.7.06-.35-.21-.77-.33-1.15-.22.16-.52.28-.63.49-.27.52-.42,1.1-.7,1.61-.17.32-.47.57-.71.85-.22-.55-.71-1.16-.61-1.64.19-.82.86-1.52,1.11-2.34.37-1.21.96-2.57.72-3.71-.54-2.65-.69-2.76.64-4.43.08-.1-.16-.46-.25-.7-.19-.5-.32-1.03-.58-1.49-.82-1.44,1.14-3.63-1.27-4.64-.05-.02-.04-.45.06-.51,2.69-1.75,1.76-4.92,1.82-7.04.07-2.5.36-5.23-.17-7.82-.07-.34.08-.74.14-1.1.25-1.59.6-3.17.66-4.77.01-.3-1.16-.6-1.75-.97-.19-.12-.28-.46-.36-.71-.41-1.31-.86-2.6-1.18-3.93-.12-.5.07-1.08.12-1.63.24.29.42.72.72.85.78.34,1.6.57,2.43.77.15.04.39-.32.59-.5-1.36-1.33.03-2.23.43-3.36.21-.6-.01-1.92-.36-2.05ZM121.67,300.68c.2-.68,1.39-.91,1.13-1.99-.03-.14.36-.55.54-.54,2.4.19,3-2.32,4.72-3.13.74.32,1.08.64,1.41.96-.42.09-.92.06-1.25.28-.45.3-.91.73-1.13,1.21-.18.4-.15,1.3.03,1.38.62.25,1.35.26,2.04.32.78.06,1.57.04,2.34.15.15.02.27.51.34.8.02.11-3.7.94-3.85.91-1.06-.26-2.12-.52-3.19-.73-.17-.03-.57.26-.55.31.09.31.28.59.42.88.39.81.96,1.6,1.09,2.46.07.47-.6,1.05-.94,1.58-.42-.29-.98-.48-1.23-.87-.49-.78-.76-1.74-2-1.14,0-.95-.18-1.95.07-2.82ZM129.93,306c-.75.67-1.64,1.18-2.48,1.75-.81,2.02-1.58,3.65-2.45,5.23-.16.29-.71.35-1.09.52-.14-.46-.48-.96-.4-1.37.73-3.48,3.66-5.28,5.95-7.57.08-.08.53.05.53.11.03.46.18,1.12-.06,1.34ZM122.2,304.61c-.2.44-.41.88-.61,1.31-.4-.4-.81-.81-1.21-1.21.88-.03,1.35-.07,1.82-.1ZM121.8,308.96c-.4-.09-.61-.37-.81-.66.18-.12.36-.23.54-.35.09.34.18.67.27,1.01ZM121.09,315.18c.3.44.47.97.69,1.47-.33-.2-.66-.39-.97-.61-.16-.11-.28-.27-.42-.41.11-.29.65-.53.71-.44ZM119.39,324.69c.36.11.73.21,1.09.32-.3.5-.61,1.01-.91,1.51-.2-.75-.19-1.29-.19-1.83ZM114.12,341.77c.27-.1.53-.2.8-.31.07.27.14.54.21.81-.61-.17-.81-.33-1.01-.5ZM115.17,339.01c0-.17.07-.37.18-.51.24-.32.52-.6.78-.9,0,.41.01.82.02,1.23.11.7.02,1.2-.08,1.69-.27-.05-.74-.05-.78-.17-.13-.42-.12-.89-.12-1.34ZM116.65,345.46c-.38-.2-.74-.64-.86-1.05-.07-.23.37-.61.57-.93.33.26.68.49.99.78.18.17.28.42.41.63-.38.47-.84.71-1.11.57ZM119.78,336.04c-.48.58-.96,1.17-1.44,1.76-.73-.76-1.61-1.43-2.11-2.32-.17-.3.57-1.17,1-1.7.09-.11.68.07.95.24.63.42,1.21.91,1.81,1.38.07.35-.07.49-.2.64ZM127.52,352.33c-1.23.19-2.57.06-3.7.49-2.03.77-2.49-1.05-3.57-1.84-.16-.11-.14-.46-.21-.69.24,0,.51-.06.71.03.62.29,1.29.56,1.79,1,1.33,1.17,2.34,1.13,3.1-.57.73.08,1.07.12,1.37.25.31.14.66.32.81.59.09.15-.15.72-.3.74ZM124.76,340.66c-.5.32-1.16.4-1.75.57.2-.45.33-.95.61-1.35.15-.22.53-.3.81-.44,1.79.46.66,1.01.34,1.21ZM124.57,332.5c.51-.61,1.08-1.6,2.07-.53.02,1.29-1.25,2.26-1.85,1.72-.25-.22-.39-.98-.22-1.19ZM126.68,328.49c-1.49.58-3.83,2.93-4.09,4.38-.11.59-.41,1.14-.62,1.7-.29-.55-.73-1.08-.82-1.67-.16-1.06-.36-2.22-.1-3.22.28-1.07.89-2.15,2.46-2.01.45.04.96-.65,1.45-1.01-.45-.05-.9-.09-1.35-.14-.25-.52-.19-1-.37-1.12-.42-.27-.96-.36-1.45-.53.76-.66,1.45-1.42,2.28-1.96.93-.6,1.97-1.1,3.02-1.45.95-.32,1.98-.43,2.98-.55.16-.02.38.35.57.54-.23.21-.44.46-.69.63-1.1.74-2.24,1.42-3.31,2.19-1.21.87-.47,1.38.4,1.85.38.21.73.47,1.09.71-.48.57-.85,1.41-1.46,1.65ZM128.52,335.81c-.09-.09-.17-.17-.26-.26.34-.32.67-.63,1.01-.95-.12.54-.43.88-.75,1.21ZM129.4,334.06c-.23-.14-.46-.28-.69-.42.18-.22.37-.44.55-.66.31.36.22.72.13,1.08ZM129.09,331.6c.07-.48.15-.96.22-1.44.45.47.91.94,1.36,1.41-.66.14-1.12.09-1.58.03ZM130.03,319.21c.08-.32.07-.74.27-.95.46-.48,1.02-.85,1.55-1.27.01.69.03,1.37.04,2.06-.75.19-1.31.17-1.86.16ZM136.21,337.41c-.08,0-.17-.14-.25-.22.73-.33,1.46-.65,2.19-.98.06.48-.03.93-.23.99-.54.16-1.14.17-1.71.21ZM137.61,348.6c.14-.19.29-.38.43-.57.37.3.74.6,1.12.9-.51.16-1.03-.09-1.54-.33ZM139.56,347.32c.17-.61.33-.81.5-1.01.1.27.2.53.31.8-.27.07-.54.14-.81.21ZM142.4,329.75c-.14.24-.26.48-.41.71-.93,1.44-1.84,2.89-2.82,4.3-.27.39-.73.64-1.1.96-.11-.78-.59-1.8-.27-2.28,1-1.45,2.07-3.24,3.55-3.86,1.61-.68,1.69-2.11,2.64-3.03,1.19-1.15,2.68-2.24,3.26-3.68.42-1.03.21-2.2,1.67-2.39.38-.05.78.14,1.18.22-.09.33-.15.67-.27,1-.29.84-.47,1.75-.92,2.5-1.75,2.91-3.65,5.73-5.34,8.68-.38.66-.1,1.7-.17,2.55,0,.07-.4.11-.61.17-.31-1.44-.45-2.68-.49-3.93,0-.33.42-.65.45-1,.03-.3-.23-.62-.36-.93ZM142.39,346.04c.12-.18.23-.36.35-.54.29.2.58.4.86.61-.54.11-.88.02-1.21-.06ZM148.07,337.74c-.16,1.34-.89,1.81-2.13,1.7-1.69-.14-1.25.79-.85,1.69.15.33.33.65.49.97-.73.19-1.45.44-2.18.52-.17.02-.62-.63-.57-.89.16-.85.5-1.66.77-2.49.27-1.03.51-1.67.82-2.28.21-.41.53-.77.8-1.16.16.36.23.94.5,1.05.47.2,1.08.22,1.61.14.97-.15.85-.21.74.74ZM149.84,335.38c-.16-.06-.38-.34-.42-.31-.4.29-.34,1.91-1.22.57-.35-.54.04-2.36.35-2.43,2.6-.58,1.79-2.68,2.11-4.26.61,1.69.87,3.37.99,5.06.09,1.25-.49,1.88-1.82,1.37ZM151.88,170.25c-.28-.53-.36-.85-.44-1.17.28.12.55.23.83.35l-.39.83ZM165.14,202.62c.22.18.44.36.67.55-.4.4-.81.41-1.21.41.18-.32.36-.63.54-.95ZM162.56,169.71c.55.05,1.09.22,1.64.35-.34.2-.47.18-.6.21-.46.07-.92.16-1.38.24.11-.28.25-.8.34-.79ZM154.53,222.1c.01-.46.1-.92.17-1.38.29.66.37,1.11.45,1.57-.22-.06-.63-.13-.63-.19ZM155.68,217.69c-.17.28-.71.34-1.08.5.08-.55,0-1.21.29-1.61.4-.54,1.08-.88,1.64-1.31,0-.81-.06-1.22.02-1.61.05-.23.32-.41.49-.61.23.29.73.7.66.85-.61,1.3-1.27,2.57-2.02,3.79ZM158.11,223.56c-.04.15-.44.21-.67.31-.11-1.04-.21-2.09-.32-3.13.6.06,1.23.03,1.8.2.58.17,1.1.53,1.64.81-2.02.21-2,.22-2.45,1.82ZM166.21,266.56c-.73.17-.98-.12-.78-.73.14-.41.56-.73.85-1.09.02.29.07.58.06.87-.01.32-.08.63-.13.94ZM166.64,210.05c-.45.93-1.36,1.93-.23,3.05.08.08-.14.51-.27.76-.23.42-.69.81-.7,1.23-.07,2.25-2.12,2.93-3.34,4.22-.8.84-4.7-.55-4.68-1.62.02-.84.71-1.71,1.23-2.48.69-1.02,2.02-2.1-.6-2.17-.1,0-.2-.26-.3-.4.15-.05.32-.07.43-.16.4-.3,1.17-.73,1.12-.94-.54-2.21,1.01-3.29,2.28-4.54.72.05,1.16-.02,1.33.16.66.68.99.84.9-.35-.02-.31.08-.64.12-.95.24.19.46.41.72.56.38.22.83.33,1.15.6.17.14.25.7.17.75-.64.41-1.13.78.12.82,1.52.05.95.63.56,1.46ZM285.63,212.25c.17.2.46.38.49.6.1.6.09,1.21.12,1.82-.3-.2-.6-.4-.9-.61.1-.88.2-1.35.29-1.82ZM285.64,217.2c.17.27.34.53.5.8-.34.1-.67.21-1.01.31.03-.5.27-.81.51-1.11ZM279.73,204.43c-.09.45-.17.91-.26,1.36-.5-.44-.59-.89-.69-1.33.32,0,.63-.02.95-.03ZM269.18,188.91c-.4.24-.81.48-1.21.72-.07-.4-.13-.81-.2-1.21.74.16,1.08.33,1.41.49ZM258.7,196.29c.28-.36.61-.67.92-1.01-.04.36.01.78-.16,1.05-.24.38-.65.65-.98.97-.06-.47.04-.78.22-1.01ZM252.29,186.81c.11.19.35.52.32.55-.51.45-1.06.85-1.6,1.27-.24-.29-.34-.45-.32-.47.53-.46,1.06-.9,1.6-1.35ZM244.97,191.4c1.74-.21,1.93-1.7,2.86-2.55.25-.23.76-.17,1.14-.25-.27.82-.44,1.7-.84,2.44-.3.56-.9.95-1.36,1.41-.87.8-.49,1.86-1.79,2.41-1.43.59-1.85-.08-2.55-.73-.09-.08,0-.54.15-.68.77-.75,1.52-1.95,2.39-2.06ZM241.61,185.29c.16.32.53.78.43.93-.26.4-.73.67-1.11.99-.07-.27-.15-.54-.22-.81.43-.51.67-.81.9-1.12ZM239.25,184.4c.3.18.57.39.85.59-.51.03-.82-.15-1.13-.32.09-.1.25-.29.27-.27ZM235.59,184.81c.29-.03.59.12.89.18-.41.34-.63.61-.81.58-.42-.07-.81-.28-1.21-.44.38-.11.75-.29,1.13-.33ZM207.4,187.82c-.09.58-.18.76-.27.95-.18-.32-.36-.63-.54-.95h.81ZM204.37,186.4c-.15.39-.5.57-.86.76-.05-.17-.1-.34-.15-.51.34-.08.67-.17,1.01-.25ZM183.17,245.56c.66-.29,1.11-.37,1.56-.46-.15.72-.18,1.5-.51,2.12-.09.16-1.1-.17-1.68-.28.21-.46.42-.92.64-1.38ZM174.68,339.15c-1.05.92-2.12,1.82-3.2,2.71-.05.04-.22-.07-.34-.11.18-.09.35-.19.53-.28.28-.52.35-.85.45-1.17.15-.47.2-1.16.53-1.34.52-.28,1.23-.24,1.86-.29.05,0,.23.44.18.48ZM178.71,334.7c-.31.61-.78,1.15-1.19,1.72-.13.88-.21,1.39-.42,1.83-.15.31-.48.53-.72.79-.27-.36-.85-.84-.77-1.04.56-1.37,1.21-2.72,1.97-4,.2-.34.87-.42,1.32-.61-.06.44,0,.94-.19,1.31ZM179.13,253.14c-.36.48-.72.96-1.07,1.44.02-.65-.2-1.46.11-1.91.63-.94.62-2.48,2.18-2.67.66-.28,1.12-.36,1.58-.44-.29.35-.59.69-.87,1.05-.65.84-1.29,1.69-1.92,2.53ZM181.6,335.15c-.13.57-.29,1.12-.45,1.68-.1.34-.21.67-.32,1-.3-.29-.85-.6-.84-.87.04-.66.35-1.31.55-1.96.49-.32.77-.44,1.05-.56,0,.24.05.48,0,.71ZM184.64,331.37c-.08-.34-.17-.67-.25-1.01-1.64-.9-2.51-.46-2.85,1.16-.07.36-.43.66-.65.99-.04-.41-.12-.81-.13-1.22-.02-1.17-.08-2.43,1.45-2.73,1.09-.22,1.93.19,2.18,1.39.25.55.51.91.76,1.26-.17.05-.34.1-.51.16ZM185.39,187.62c-.41-.4-.41-.8-.42-1.2.27.12.54.25.81.37-.13.27-.26.55-.39.82ZM188.02,331.97c-.79.29-1.37.38-1.96.47.14-.32.23-.86.44-.92.56-.15,1.17-.09,1.76-.11-.08.19-.17.37-.25.56ZM192.06,319.86c.36-.58.73-.75,1.09-.93.04.25.08.49.12.74-.4.06-.81.13-1.21.19ZM192.47,237.78c-1.67.94-2.82,2.81-4.17,4.29-.19.21-.19.59-.29.88-.13.4-.27.79-.4,1.19-.27-.39-.78-.79-.76-1.16.07-1.09-.27-2.52,1.66-2.56.27,0,.54-1.08.77-1.67.18-.45.16-1.1.47-1.34,1.87-1.44,3.8-2.8,5.72-4.16.25-.18.72-.44.8-.36.27.25.41.65.6.99.14-.75.3-1.49.42-2.24.06-.35.04-.7.05-1.06.37.13.74.27,1.12.4.23.08.46.15.69.22-.12-.24-.2-.53-.38-.7-1.23-1.17-.38-2.35.29-3.14.89-1.05,1.98-.62,2.71.49.1.16.22.45.15.55-.92,1.36-1.87,2.7-2.81,4.05-1.73,2.71-4.18,3.95-6.65,5.35ZM203.61,272.03c.13-.09.63.37.96.57-1.01,1.01-2.02,2.03-3.03,3.04-1.07-1.01-1.61-1.64.16-2.08.71-.18,1.23-1.08,1.91-1.53ZM202.55,198.6c.54-.16,1.08-.36,1.63-.48.32-.07.66-.01,1-.01-.07,1.09-.31,1.98-.62,2.86-.1.29-.35.52-.53.78-.49-1.05-.98-2.1-1.48-3.15ZM200.94,276.94c-.2.11-.4.21-.61.32-.34.48-.43.81-.64,1.02-.39.4-.84.74-1.27,1.11.08-.69-.06-1.52.29-2.02.34-.49,1.17-.64,1.8-.89.07-.03.28.3.42.46ZM195.29,282.71c.02-.47.23-.74.45-1.01.12.12.24.24.36.36-.27.22-.54.43-.81.65ZM198.6,331.65c.31-.23.62-.46.92-.69.58.22.76.45.95.67-.62,0-1.25.01-1.87.02ZM201.21,281.63c-.08.36-.18.72-.27,1.08-1.42.2-2.64.24-3.85.14-.22-.02-.4-.59-.59-.91.55-.27,1.07-.61,1.65-.81.66-.23,1.36-.34,2.04-.5.41-.09.83-.17,1.25-.26-.07.42-.14.83-.22,1.25ZM201.6,279.25c-.64-.79-.33-1.31.75-1.18.41.67.62,1.13.83,1.59-.54-.12-1.31-.07-1.58-.41ZM208.55,276.68c-.35.18-.76.25-1.1.44-.32.19-.6.47-.86.74-.42.45-.8.94-1.19,1.41-.28-.45-.47-.99-.85-1.32-1.98-1.68.14-2.67.62-3.93.74-1.24,1.06-2.54,1.87-3.26,1.02-.91,2.52-1.95,3.7-1.83,1.33.13-.29,1.44-.06,2.27.05.18-.38.7-.62.72-2.27.18-2.51,2.1-3.2,3.64-.1.23-.19.46-.28.69.28,0,.55-.01.83-.03.36-.02.73-.05,1.09-.05.02,0,.1.47.04.5ZM215.27,267.16c-.73.54-1.24.94-1.81,1.17-.18.07-.7-.25-.77-.48-.1-.32.06-.73.12-1.1-.41.13-.82.35-1.25.39-.98.1-2.13-.53-2.81.79-.05.1-.88-.19-1.35-.3.26-.35.45-.8.79-1.04,1.13-.8,2.26-1.65,3.51-2.22.73-.33,2.1-1.66,2.23.74.04.7.88,1.36,1.35,2.04ZM215.1,260.93c.08-.08.24-.22.24-.22.32.33.63.66.94,1-.53-.13-.86-.45-1.19-.78ZM224.56,325.65c-.44.36-1.4.64-1.77.41-1.31-.81-1.56.2-1.91.94-.43.91-.31,1.62.95,1.66.2,0,.4.34.57.55.27.34.5.71.75,1.06-.43-.04-.96.07-1.26-.14-1.51-1.06-2.39.01-3.09,1-.69.97.03,2.96,1.11,3.2.61.14,1.35-.22,2.02-.4.39-.1.75-.29,1.13-.43-.13.46-.14,1.04-.43,1.34-.31.32-.89.5-1.36.54-1.64.11-1.81,1.14-1,2.09.86,1,.06,1.01-.41,1.47-.73.71-1.5,1.49-1.91,2.39-.55,1.19-1.34,1.29-2.12.62-1.52-1.3-3.13-1.88-5.16-1.81-.61.02-1.39-1.2-1.83-1.99-.16-.29.43-1.02.73-1.53.25-.43.58-.81.87-1.22,2.5-3.13,5.43-5.36,8.36-7.59.49-.37.73-1.06,1.17-1.52,1.38-1.44,2.68-2.98,4.97-3.06.67-.02,1.3-.71,1.97-1.05.25-.12.56-.11.85-.16-.07.24-.07.54-.22.7-.96,1-1.89,2.05-2.96,2.92ZM217.36,263.53c.18.12.36.23.54.35-.2.29-.4.58-.61.86-.11-.54-.02-.87.06-1.21ZM230.39,328.5c-1.15,1.08-2.52,1.92-3.8,2.86-.43-1.05-.54-2.1-.46-3.14.04-.52.5-.99.65-1.52.4-1.4,2.66-2.62,4-2.01.5.23,1.27.97,1.19,1.19-.36.94-.85,1.94-1.57,2.61ZM232.54,203.77c-.04-.2-.07-.4-.11-.61.67-.05,1.14.1,1.62.25-.5.12-1.01.24-1.51.36ZM236.63,200.15c.12.23-.02.89-.12.9-.67.1-1.5.32-1.99.03-.42-.25-.71-1.16-.65-1.73.13-1.18-1.45-3.87-2.65-4.03-.23-.03-.63.39-.79.69-.56,1.05-1.67,1.27-2.31.41-1.4-1.86-2.62-1.93-4.43-.29-.27.24-.66.35-.99.52,0-.37.02-.75-.02-1.12-.02-.22-.12-.44-.19-.66-.18.06-.39.08-.53.18-.62.46-1.25.93-1.82,1.45-.21.19-.27.55-.4.83.33.06.66.18.97.15.43-.05.86-.35,1.26-.29.26.04.45.52.67.81-.27.17-.52.46-.8.48-.83.06-1.67.1-2.49,0-1.92-.22-3.79.71-4.7,2.41-.06.11-.27.13-.4.22-.54.37-1.25.64-1.57,1.15-1.04,1.64-1.44,1.68-2.45-.06-.44-.75-.81-1.55-1.22-2.32.45-.18-1.8-2.03.61-.99.11-.29.41-.67.31-.84-.7-1.28-3.12-2.19-4.54-1.81-.43.12-.9.28-1.31.2-.66-.11-1.29-.4-1.94-.62.34-.73.51-1.67,1.07-2.13.89-.73,2.02-1.2,3.1-1.65,1.46-.6,2.71-2.88,2.3-4.31-.02-.09.65-.37,1-.56,2.24-.99,4.21-1.84,5.66-3.62,1.24-1.51,2.84-2.2,4.83-1.64,1.62.46,2.66-.68,3.85-1.42.32-.2.86-.63.93-.56.94.89,2.06,1.72,2.6,2.82.36.74,1.68,2.49-.81,2.7-.12.01-.33.41-.3.44.94.98,1.89,1.94,2.88,2.86.08.07.48-.22.73-.34-.16-.15-.33-.29-.49-.44-.37-.34-.74-.69-1.1-1.03,1.25.04.31-2.56,2.19-1.81.33.13.78,0,1.11.14.55.24,1.07.56,1.53.94.12.1.03.59-.1.82-.7,1.22.34,1.46,1.04,1.71.43.15,1-.1,1.5-.2,1.71-.32,3.4-.81,5.12-.88.55-.02,1.14,1.06,1.71,1.64-.43.36-.81.94-1.29,1.05-1.92.45-1.07,1.78-.94,2.82.08.67.48,1.29.6,1.96.13.72,1.41,1.47.13,2.19-1.3.73-2.67,1.34-4.04,1.94-.36.16-.82.09-1.23.13.3.23.71.41.87.72ZM238.09,334.8c.54-.11.88-.02,1.21.06-.12.18-.23.36-.35.54-.29-.2-.58-.4-.86-.61ZM240.26,338.65c-.24.17-.63.19-.94.17-.1,0-.18-.35-.27-.53.42-.15.84-.31,1.27-.46.26.28.18.65-.05.82ZM241.64,271.61c-.11-.2-.22-.39-.33-.59.54,0,1.08,0,1.62-.01.1,1.79-.89.11-1.29.61ZM246.68,221.34c-.44-.56-.64-1.3-.92-1.97.17.02.37-.01.51.07.38.2.74.45,1.1.68.4.37.61.54.81.7-.52.19-1.39.65-1.5.51ZM251.27,217.88c-1.54,1.32-3.14.46-4.75.48-1.66.02-3.33.45-4.98.77-.48.09-.93.42-1.39.63.11-.68.19-1.37.36-2.04.06-.22.38-.37.55-.58,2.04-2.57,4.08-5.15,6.12-7.73,2.06-2.46,3.91-4.72,5.77-6.98.26-.31.53-.64.86-.85.77-.48,1.58-.9,2.37-1.34-.28.74-.63,1.46-.81,2.22-.11.47.02,1.44.1,1.45.94.09,2.02.3,2.81-.06.85-.39,1.61-1.23.41-2.37-.62-.59-1.26-1.68.57-1.78.34-.02.75-.27.97-.54,1.79-2.26,3.57-4.54,5.3-6.85.81-1.07,1.1-1.14,2.03-.17,1.14,1.18,3.79,1.58,5.3.93.43-.18,1.04.05,1.56.09-.08.45-.22.9-.21,1.35,0,.59.35,1.62.18,1.71-1.78.89-1.34,2.51-1.7,3.98-.29,1.18-1.45,2.43-2.55,3.04-.77.43-2.12-.09-3.19-.32-.26-.06-.35-.68-.62-.95-.25-.27-.67-.63-.94-.58-.65.13-1.43.31-1.84.77-1.01,1.12-1.65,2.65-2.8,3.57-1.41,1.13-2.44,2.23-2.96,4.06-.52,1.83-1.38,3.68-2.56,5.16-.99,1.24-2.72,1.87-3.97,2.94ZM254.24,225.77c-.15.47-.5.74-.85,1.01-.12-.19-.24-.37-.36-.56.4-.15.81-.3,1.21-.45ZM260.42,339.85c-2.22.06-4.45.31-6.65.15-.4-.03-1.12-1.76-.92-2.48.38-1.34,1.18-2.64,2.07-3.74,1.11-1.38,2.49-2.56,3.75-3.82.52-.25.9-.2,1.14-.36,2.23-1.43,4.23-.6,6.03.77.47.35.48,1.39.6,2.13.55,3.45-2.62,7.28-6.03,7.37ZM272.76,339.5c-2.23-.13-4.48.02-6.72.06-.3,0-.6-.02-.89-.02.28-.16.56-.32.83-.5.8-.54,1.57-1.16,2.41-1.62.43-.23,1.01-.34,1.5-.27,1.05.15,2.09.44,3.13.68,1.09.66,2.43,1.8,2.35,1.92-.92,1.28-1.72-.2-2.61-.25ZM276.48,202.3c.1-.69.23-1.4.51-2.04.1-.25.61-.32.93-.48.19.45.37.91.56,1.36-.52.87-1.05,1.35-1.57,1.82-.15-.22-.45-.47-.42-.66ZM278.47,218.1c-.51.3-1.01.61-1.52.91,0-.6-.08-1.22.01-1.8.18-1.06.46-2.09.7-3.14.67-.88,1.47-1.23,1.97-1.84.68-.83,1.12-1.86,1.66-2.8-.37.04-.75.07-1.12.12-.28.04-.56.1-.83.15.11-.27.15-.69.35-.79,1.44-.71,1.51-1.99,1.67-3.35.04-.37.88-.65,1.35-.97.2.38.6.76.57,1.12-.07,1.08-.39,2.14-.45,3.22-.07,1.18-.04,2.37.11,3.54.17,1.38.71,2.74.69,4.11,0,.59-.97,1.53-1.61,1.64-.79.13-1.68-.52-2.55-.68-.29-.05-.66.36-1,.57ZM282.07,329.34c-.16.27-.51.42-.78.62.18-.72.37-1.04.55-1.36.09.25.32.59.23.74ZM281.25,326.25c-.35.41-1.11.46-1.69.67.1-.4.17-.81.31-1.19.46-1.28.86-2.6,1.45-3.82,1.08-2.24,2.28-4.42,4.99-5.07.27-.07.57,0,.86,0-.17.26-.31.55-.51.79-.48.54-.96,1.08-1.49,1.57-1.39,1.28-2.07,2.96-2.66,4.69-.54.93-.75,1.77-1.25,2.36ZM284.17,332.42c-.09.3-.03.64-.04.97-.27-.25-.81-.54-.77-.73.17-1.04.48-2.06.75-3.09.27.13.55.26.82.39-.26,1.09-.54,1.76-.76,2.46ZM286.78,326.73c-.35.51-1.65.39-2.53.51-.12.02-.39-.26-.39-.4,0-.19.15-.48.32-.55.57-.23,1.17-.39,1.76-.58,1.27-.59,1.06-1.12.35-1.69-.19-.15-.27-.46-.4-.69.41-.15.8-.37,1.22-.41.19-.02.63.33.61.44-.24,1.16-.32,2.46-.94,3.38ZM287.19,315.66c.12-.28.16-.69.36-.8.39-.2.88-.23,1.33-.34-.17.23-.35.46-.52.69-.52.28-.85.36-1.17.44ZM289.57,318.45c.87.25,1.35.5,1.82.75-.36.31-.7.64-1.08.91-.11.08-.42.02-.52-.09-.41-.45-.78-.95-1.16-1.43.32-.05.63-.09.95-.14ZM293.56,337.35c-.97-.03-1.95-.13-2.89-.36-.45-.11-.81-.58-1.22-.89.53-.36,1.03-.97,1.6-1.04,1.13-.15,2.41-.35,3.16.96.37.44.54.67.71.91-.45.15-.91.44-1.36.43ZM296.24,296.59c.25-.25.5-.5.75-.76.15.34.3.67.46,1.01-.54.05-.87-.1-1.21-.25ZM302.93,195.66c-.15-.39-.29-.78-.44-1.18.47-.06.74.08,1.01.22-.19.32-.38.64-.57.96ZM305.71,215.86c-.19-.35-.32-.73-.48-1.1.32.26.66.5.95.8.11.11.1.35.15.53-.34.06-.53-.06-.62-.23Z"/><path class="cls-1" d="M91.76,204.12c.32-.72.64-1.45.76-2.38-.44.64-.89,1.27-1.29,1.93-.02.03.35.29.53.45Z"/><path class="cls-1" d="M156.52,132.09c-.27.07-.54.14-.81.21.1.27.2.53.31.8.17-.2.33-.4.5-1.01Z"/><path class="cls-1" d="M215.44,49.28c-.22-.16-.45-.31-.67-.47-.03.3-.07.61.1,1.11.19-.21.38-.43.57-.64Z"/><path class="cls-1" d="M256.06,115.74c.26-.55.52-1.1.78-1.65-.45-.07-.9-.13-1.35-.2.12.55.25,1.1.57,1.85Z"/><path class="cls-1" d="M226.31,143.76c.83.33,1.64.76,2.51.94.23.05.64-.62.93-.98.33-.4.64-1.18.95-1.17.55.01,1.09.49,1.63.77.79.41,1.51,1.73,2.45.04.18-.33,1.23-.26,1.88-.23.73.04,1.47.43,2.17.33,1.23-.17,2.48-.45,3.6-.95.57-.26,1.31-1.55,1.23-1.63-1.26-1.25-1.62-3.62-4.1-3.41-.75.06-1.52-.13-2.28-.15-.88-.02-1.52-.08-1.29-1.31.15-.83,0-1.75-1.28-.96-1.74,1.09-3.42.63-5.11-.18-1.01-.48-2.06-.97-3.15-1.2-2.67-.56-5.37-.96-8.05-1.48-.53-.1-1.2-.36-1.46-.76-.6-.96-1.07-1.5-2.38-.99-.87.34-1.99.01-2.99.07-.21.01-.4.41-.59.62.28.08.58.11.84.25.8.42,1.59.87,2.38,1.32.07.04.09.19.13.29-.72-.15-1.46-.25-2.17-.45-.59-.18-1.15-.48-1.81-.83-.89-.55-1.68-1.33-2.5-1.37-2.44-.12-4.89.05-7.33.11-1.3.03-2.6,0-3.88.15-.39.05-.71.64-1.07.98.41-.07.81-.18,1.22-.19.34,0,.68.11,1.02.17-.15.31-.22.8-.46.91-.61.29-1.32.37-1.95.61-.81.3-.99.16-1.03-.66-.02-.49-.29-.96-.44-1.44-.35.16-.68.35-1.04.47-.77.25-1.56.6-2.33.6-.32,0-.63-.83-.95-1.28.21-.1.41-.23.62-.28.19-.04.42.07.6.02.14-.04.24-.24.35-.36-.44-.07-.88-.22-1.32-.21-1.31.04-2.61.16-3.92.17-.13,0-.21-.62-.42-.83-.24-.23-.61-.3-.93-.45-.03.27-.08.53-.09.8,0,.23.04.46.06.7-.18-.13-.37-.24-.54-.38-1-.77-2.24-.8-2.69.26-.43,1-.45,2.5,0,3.46.47.99,1.69,1.67,2.67,2.37,1.47,1.05,3.59,1.14,4.48,3.05.29-.15.57-.32.87-.45.4-.17.81-.32,1.23-.43.07-.02.28.23.31.38.13.6.33.71.97.52.23-.07.5-.11.72-.05,2.23.68,4.44,1.45,6.69,2.05,1.31.34,3.62.96,3.89.5,1.33-2.23,2.73-.76,4.15-.54.89.14,1.92,1.46,2.71-.17.31.15.76.22.89.46.86,1.6,2.24,1.82,3.57.55.38-.36.81-.95,1.21-.94,2.11.06,4.21.26,6.31.45.47.04.91.34,1.37.36,1.32.07,2.66-.03,3.97.12.6.07,1.14.57,1.71.87-.68.21-1.37.41-2.04.64-.23.08-.44.23-.67.35ZM199.66,132.8c-.2-.35-.39-.7-.59-1.06.54.06.85.31,1.17.55l-.59.5ZM209.16,132.69c-.55-.08-1.08-.25-1.62-.39.21-.16.43-.31.64-.47.61,0,1,.19,1.39.37-.14.17-.3.5-.42.48Z"/><path class="cls-1" d="M282.25,154.68c2.96,1.04,6.05,1.94,9.09,2.89.62.19,1.28.41,1.92.46,2.39.18,4.82.11,7.16.48,2.22.35,2.47.44,2.37-.77-.02-.29.17-.57.27-.86.35.19.66.49,1.04.55.99.18,2.22.47,2.94.3.49-.12.69-1.05.31-1.45-1.18-1.26-2.49-2.53-4.15-3.6-.91-.59-2.84-1.2-3.94-1.11-3.91.31-7.01-.21-9.34-2.49-.29-.29-1.15-.66-1.59-.64-3.36.17-6.12-1.6-9.76-1.52-5.3.11-7.36,1.25-5,4.47,3.16,1.14,5.86,2.29,8.7,3.29Z"/><path class="cls-1" d="M260.17,137.42c.35.1,1.13.03.97-.26l-1.33-.19.36.46Z"/><path class="cls-1" d="M262.59,135.37c-.65-.34-1.78-.73-2.99-.48,1.28.33.75.42,2.27.77.16.3-.42.53-.9.49.34.1-.28.47.55.62,1.02-.4,1.05-.9.2-1.4.29-.12.64-.01.88,0Z"/><path class="cls-1" d="M262.92,106.12c.08-.06.12-.13.14-.21l-.14.21Z"/><path class="cls-1" d="M260.57,87.76c-.12-.1-.22-.19-.33-.12.07.13.21.15.33.12Z"/><path class="cls-1" d="M260.7,84.14c-.02.08-.02.14-.03.21.09-.11.14-.2.03-.21Z"/><path class="cls-1" d="M263.06,105.91l.36-.54c-.43.02-.29.29-.36.54Z"/><path class="cls-1" d="M259.32,131.4c.07.1.19.18.35.25-.06-.08-.11-.16-.15-.24-.07,0-.13,0-.21-.01Z"/><path class="cls-1" d="M264.91,113.88v.15c.17.03.35.06.56.08l-.56-.23Z"/><path class="cls-1" d="M263.92,119.91c.47.06.69.15.78.27.21,0,.47-.04.79-.1.04-.14-1.08-.14-1.58-.16Z"/><path class="cls-1" d="M264.77,109.41c.17-.03.31-.06.39-.1-.14.01-.27.05-.39.1Z"/><path class="cls-1" d="M167.05,124.37c-.08-.01-.13-.02-.2-.03.11.05.18.07.2.03Z"/><path class="cls-1" d="M160.57,130.59l-.05-.11c-.21-.04-.42-.07-.62-.1l.67.2Z"/><path class="cls-1" d="M260.03,78s0,.02-.01.03c.18.1.12.03.01-.03Z"/><path class="cls-1" d="M213.09,56.12c.73.92-.81,1.4.24,2.39-.15-.42.6-1.84-.24-2.39Z"/><path class="cls-1" d="M259.47,131.24c-.01-.08-.03-.17-.02-.25-.03.11-.03.19.02.25Z"/><path class="cls-1" d="M253.07,65.83c-.15.13-.25.26-.34.39.09-.07.2-.17.34-.39Z"/><path class="cls-1" d="M256.55,75.65l.03-.29c-.05.13-.05.22-.03.29Z"/><path class="cls-1" d="M248.5,62.05c0-.1-.02-.18-.19-.21-.03.05-.05.09-.06.14.12-.03.21-.03.25.07Z"/><path class="cls-1" d="M248.5,62.05s0,.1.01.15c0-.07,0-.12-.01-.15Z"/><path class="cls-1" d="M243.62,58.13c-.01.09,0,.17,0,.26.07.02.15.03.21.05l-.21-.31Z"/><path class="cls-1" d="M168.46,109.04c.8.12.88.9,1.04.02-.34.03-.69.01-1.04-.02Z"/><path class="cls-1" d="M259.96,131.38c-.28-.02-.43-.07-.49-.15.01.06.04.12.06.17.17.01.33.01.42-.03Z"/><path class="cls-1" d="M241.7,67.89l-.28-.56c.03.2.14.39.28.56Z"/><path class="cls-1" d="M185.13,77.98l-.02.22c.06-.03.08-.1.02-.22Z"/><path class="cls-1" d="M240.15,65.81c0,.2,0,.39-.02.59.17-.37.23-.61.23-.79-.07.06-.13.11-.21.2Z"/><path class="cls-1" d="M187.19,76.94c-.01-.09-.02-.17-.02-.25,0,.07,0,.15.02.25Z"/><path class="cls-1" d="M159.16,130.4c.06-.21.46-.51,1.09-.45l.26.53c1.84.32,3.68.92,5.13-.1l-1.02-.97.93-.15-.04.7c.89-.29.18-.63-.29-.98.48,0,.83-.08,1.03-.22l-1.66-1.05c.74,0,1.39.56,1.86.07-.77-.49-1.67.15-2.12-.56.89-.28,1.56-.07.91-.64.49,0,.77.14.96.35-.51-.49-.08-1.12-1.03-1.48,1.1-.26-.06-1.43,1.68-1.13-.4-.19-1.26-.93-1.28-1.32,1.98,1.02.34-1.4,2.55-.85-1.79-.81-.52-1.96-1.4-3.04.14.08.42.23.31.29.24-.48.83-.52,1.24-.78-1.54-.35-1.74-1.19-2.6-1.8,1.61-.33,1.73.72,3.2.79-1.25-.2-1.03-1.3-2.11-1.29,1.01-.29.53-.32,1.85-.31-1.91-.47-.24-.5-1.34-1.13,1.08-.49,1.83.2,1.4-.67.66-.23,1.21.57,1.21.57.18-.74-1.35-.65-2.14-.99-.21-.99,1.16-.19,1.96-.33-.25-.64-1.48-1.36-1.33-1.77.24.02.35-.04.62.13-1.01-.86.34-1.76-.92-2.81.14-.02.27-.01.38,0-.75-.07-1.48-.23-2-.39.07-.34-.74-.86.23-.75-.08.2.29.31.56.49l-.31-.46c1.43.03.34.6,1.33.85-.25-.79-1.15-1.89-.63-2.32,1.34.25.11,1.35,1.47.96l-.72.68c2.24-.08-.28.45,2.1.46.66-.95-.35-1.35.31-2.3-.66-.44-1.1-.22-1.76-.67-.89-1.9,3.63-.21,2.22-1.81-.78-.54-2.38-1.17-1.27-1.68l1.38.73c.46-.95-1.92-1.26-.61-2,.51.38.24.96.46.86,1.37-.3-.69-.76-.49-1.28l1.33.33c.18-1.11-.33-2.6-.13-3.87.35.21.68.57,1.16.44-.03-1.67,1.42-3,2.77-3.98l-.81-1c.07-.11.59.01.73.24.66-.32-.66-.35-.95-.8.07-.33.8-.09,1.02.25-.22-.67-.38-1.56-.27-2.35.09-.79.53-1.4,1.34-1.56l.2.35c.82-.47-1.6-2.03-.27-2.15l.1.24c.65-.68,1.07-1.53,1.6-2.26.52-.73,1.15-1.34,2.24-1.37-1.18-1.23,1.7-.88-.07-2.45,1.56-.06,1.69.43,3.17-.13.34-.19-.71-1.38-.55-1.89l.91.83-.49-1.35,1.29.79.08-.53c-.17.07-.65-.12-.89-.39.1-.9,1.77-.6,2.21-.14l.52-1.8c.23.3.23.55.24.82-.01-.93.98,1.04.81-.24-.26-.15-.43-.6-.58-.8.79.32,1.42-.26,1.75-.9l.42.74c1.07-.47,1.76-1.71,2.84-2.46-.59-.07-1.31-1.36-1.05-1.72l.82,1.02c-.2-.81-.62-.21-.68-1.31.52-.13,1.06,1.1,1.04,1.6l.29-.69c.23.32.21.56.44,1.01-.19-.82,1.52.63,1.13-.77l.22.32c1.14-.58,1.46-1.26,2.41-1.77-.45-1.03.04-.97-.02-1.94.45,0,.96.11,1.47.17.52.08,1.02.1,1.46-.11.45-.77-.14-.96-.07-1.7.4.94,1.28.52,1.04,1.39,1.07-.51,1.35-.67,2.57-1.89-.27-.36-.51-.49-.51-.85.23-.24.73.25.83.73l-.04.12c.63-.96,1.78-.52,2.85-.06,1.07.44,2.04.83,2.51-.33l-.06.12,1.2-1.36c.68.05-.25.83.33,1.37,1.24-1.92,2.42-.16,3.53-1.43,1.34,2.86,3.47-.63,5.01,1.17l-.14-.7c.29-.72.46.37.72.51-.08-.55-.43-.61-.25-1.01,2.89-1.12,6.19.6,9.29,1.12,1.13.14.49-3.71,1.99-2.07l-.35,1.34c1.11-.84,2.31-.88,3.37-.85,1.07.02,2,.12,2.92-.46-.14.29-.17.69-.34.67.28.97,1.19.2,1.37-.56.22.14-.08.71-.03,1.12.13.6,1.02-1.01.88-.04-.03.15-.16.27-.23.33.32-.39.64.36.93-.71.11.34.35.32.6.34.25.02.5.06.48.46.47-.43.58-.16.7.04.12.2.25.35.87-.27-1.21,1.33-.25,1.75.67,1.53-.5.26-.19.65-.86,1.03.31.32.85.46,1.53-.18-.56,1.04.05,1.13.6,1.29.55.15,1.01.33.02,1.34,1.68.88,3.1,1.9,4.24,3.04-1.57.81-1.03-1.38-2.63-.37,1.41.82,3.12.87,3.42,2.37-.04.45-.79.17-1.13.2.66.47.96,1.12,1.26,1.73.27.63.55,1.23,1.27,1.63-.15.06-.38.01-.56-.05.16.21,0,.65.74.29l-.31-.14c.92-.87,2.7-.05,3.3-.24-2.34.51,0,1.44-3.03,1.94.21.09.66.14,1.15-.1-.05.3-.33.49-.99.49.74.7,1.43.07,1.71.87-.37.14-.58.04-1.04.12.87.11,1.75.25,1.69,1.04-.24.04-.5.23-.57.03.27.55.94.87,1.52,1.25.55.39,1,.84.86,1.61-1.76.15-.4.62-1.8,1.13l.64.56.6-.49c.16.62,1.39.85,1.07,1.52l-.72-.29c.22.35.39.72.59,1.08l.37-.82c.91.43,1.8-.58,1.62.37-.19-.13.15.64-.61,1.2h0c.54.19,1.11.39.88.95-.43.24-1.63.31-1.91.46,1.29,0,.72,1.37,2.09,1.47-.33-.06-1.1.11-1.24.19l1.04.03c-.25.37-.4.45-1.02.54.01.92,1.79-.7,1.22.53-.1-.07-.24,0-.43-.13-.19,1.14,1.09,1.91.78,2.99-1.42.57-.52-.78-1.7-.21.52,1.33,2.29,2.58,2.18,4.01l.12-.28c2.14-.14-.87,1.19.21,1.73-.18-.15-1.2-.05-.96-.04-.21.99.79,1.84,1.65,3.19l-.57-.11c-.41.62-.11,1.5-.29,2.13.56.12.51.47,1.27.18-2.86,2.17,2.02,3.41-.42,5.31-.02-.2-.51-.43-.5-.28l.62,1.37c.91-.18.54-.23,1.23-.58.56.14,1.02.51,1.05.86-.66-.6-1.48.11-1.98.43.28-.07.6,0,.88-.04-1.59.86,1.86,0,.82,1.09l-.49-.02c.27.36.93.67.82,1.1-1.06.24-.52-.38-1.4-.35.1.57,2.09,1.02,1.06,1.6-.31-.23-.34-.58-.65-.81-1.22.64-.9.69-1.07,1.12l.03-.04-.51,1,.33-.27c2.82.58.57,1.44,2.44,2.33-1.77-.87-1.01-.11-2.22-.13-.33.26-.69.65-1.03.56,1,.42-.73.79.72,1.38-.39.04-.02.49-1,.42.33.58.67-.17,1.16-.13,1.36.88-1.55,2.21.32,3.48.79,1.12,2.11,1.3,2.78,2.35-.62.37-1.43-.26-1.43-.26-.56.59-.45,1.02.01,1.56-.34-.1-.63.02-1.06.19.11.43,1.43.26.86.85-.44-.09-1.14-.2-1.58-.41.37.51,1.11,1,1.47,1.53-.68.15-1.04-.31-1.48-.48.32.59.64,1.54,1.72,1.71l.28-.29c-.24.08-.87,0-1.03-.13-.85-.5.36-.75.75-.78l.26.38c2.28-.43-.4-1.52-.28-2.29l1.67.29-1.4-.76c.43-.18,1.36-.31,1.61.06.81-.57-.6-.47.3-.97.14-.06.22-.03.29.01l-.51-.53c.35.1,1.17-.12.94.22.94-.99-1.28-1.53-.03-1.93l.1.08c-.6-1.33-1.23-.1-2.69-1.06l2.99-.77-1.23-.09c.04-.14.12-.42.61-.38-.85-.49-.53.1-1.33-.17,1.09-.7-.58-1.81,1.36-2.04-.94-.2-.69.66-1.36-.02,2.08-.29-.39-.81.54-1.45,1.09.14.54.74,1.48.09-1.84-.29.35-1.21-.03-1.71-1.46.05-.65-1.09-1.19-1.93.49.03.69-1.67,1.17-2.51h.25c-1.48-.05-1.25-.9-1.6-1.48.88-.04,1.24.04,1.65.34l-.05-.57c-.48-.1-.74-.26-.94-.61l1.11.06c-.12-.76-1.42-1.42-.77-2.46-1.02.04-2.78,1.02-3.54.07.55-.09,1.49-.21,1.74.03-.08-.08-.48-.27-.26-.47l.96.32c.37-.48-.79-.16-.74-.52.79-.07.54-.31,1.17-.32.08.08-.3.34.02.45.11-.41.53-.94,1.11-1.16-.44.08-1.06.1-1.19-.18-.14-.75.92-.36,1.27-.84-.57-.13-.05-.67-1.23-.56-.02-.22.52-.32.83-.44-.56-.34-.35-1.82-1.55-1.23l-.07.11s-.03-.04-.06-.06c-1.29-1.13.31-2.74-.36-3.94l.39-.06c-.55-.69-.5-1.65-1.44-2.05-.04-.22.62-.64,1.1-.63-.39-.53-.84-.51-.35-1.46.78.46.57-.31.6.51.2-.81.79-1.1-.41-1.71,1.04.09,1.16-.81.78-1.11l-.61.67c-.21-.38-.21-.74-.2-1.12l1.35-.07c1.24-1.91-3.29-2.2-.91-3.98-1-.19-.45.99-1.59.88.03-.74,1.66-1.93,1.62-2.16.46-1.17-2.12-.42-1.9-1.55-.42.26-1.62.7-2.24.09-.01-.73,1.69-1.4,2.17-1.06.08.16-.04.28-.2.32.23.18.5.43.92,0l-.48.04c.38-.48.05-1.44.86-1.43-.6-.41-.82,0-.93.45.38-1.1-.42-1.41-.28-2.48-.2.23-.69.53-.73.38.13-1.53-1.04-.32-1.53-1.16.52-.75,1.7-.37.82-1.09.25-.72,1.14-.54,1.59-.43-1.18-.54-.02-1.78-.05-2.33l.53.32c-.31-.19-.39-.41-.47-.64l-.79.59c.06-.32-.02-.54.35-.68-.68-.05-1.4.77-2.39.55.32-.52-.87-.84.25-1.43.01,1.24,1.13-.59,1.67.26-.21-.12-.28-.34-.23-.67.12-.09.26-.06.35-.02.64-1.48-1.51.05-1.94-1.02.71-.14,1.13-.77.91-.89.18.44-1,.67-1.67.5.21-.9-.7-.56-.8-.94l-.06.51c-.71.15-.77-.21-1.18-.58.16-.09.27-.09.35-.06-.63-.29.89-1.71-.13-2.01.26-.54,1.18-.62,1.32-1.06-1.24-.39.41-1.32-.71-1.82-.72.69-.49.62-1.62.47l1.31,1.06-1.69-.24c.2.41.98.59.97.91-.91-.06-.67-.12-1.28.43.98-1.21-1.31-.7-.78-1.79l2.09-1.11c.42-1.52-2.03-1.13-2.25-2.66l-.11.61c-.9.32-.57-.69-1.13-.88.69-.38.79-.78,1.1-1.22-.48.34-.51-.94-1.9-.18l.5-1.12c-.34-1.25-2.62.17-3.08-.87.89-.25,1-1.02,1.98-.76-.23-.32-.35-.7-.78-.37.24-.51-1.52-.18-1.2-.94-.37.1-1.03.62-1.27.25.08-.15.29-.27.29-.27-.28.26-.86-.12-1.22.76.48-1.28-.21-1.87-.94-2.33-.74-.47-1.48-.8-1.48-2-.98-.26-2.15-.46-2.96-.64.12-.21.12-.38.25-.25-.96-1.04-1.26,1.98-2.24.94-.4-1.37.78-.56.48-1.1.17-1.3-.27-1.29-.79-1.14-.52.15-1.09.45-1.46-.33l.22-.13c-.62-.94-1.66.88-2.62.7,0,0,.05-.23,0-.39-.69,1.32-1.89,1.79-2.77,2.2.24-1.03.39-.55.18-1.58-.4.16.18,1.65-.61,1.97-.28-.55-.87-1.01-.99-2.11l.75-.09c-.44-1.41-.97.09-1.38-.15l.03-.62c-1.15.25-1.1,1.82-2.35,1.76l.15.47c-.61,1.59-.61-.85-1.23.34l-.28-1.57c-.43.4-1.5,1.61-2.28,1.95.39-1.19,1.3-1.84,1.85-2.57-.45.01-1.52.2-1.7.99.17-.16.38-.56.57-.33-.48,1.27-1.16,1.92-2.04,1.95-.05-3.07-2.36-.62-3.21-2.92-1.49,1.25-3.22-.19-5.09.21.95,2.28-.54.14-.12,2.55-.4.21-.57.19-.63.04l.1.09s-.07-.07-.11-.1h0c-.5-.42-1-.85-1.5-1.26-.42-.66.34-.6.22-1.13-.99-.04-.55-.97-1.29-1.51.26.84-.15,1.29-.75,1.05l.95.99c-1.13,1.5-1.49-1.87-2.65-.34l.3-.84c-.62.59-2.62.46-2.89,2.56-.18-.25-.49-.86-.22-1.11-1.77.07-3.18,2.92-4.77,2.11l-.04-.61c-.26.26-.21,1.24-.77.79-.05-.24-.05-.61-.21-.6-.11.25-.5,1.26-1.01,1.06l.14-.75c-.93-.13-1.43.48-1.81,1.23-.39.74-.66,1.6-1.23,2.03-.64-1.64-2.11-1.63-2.85-1.62l-.08-.24c-.98.29-1.6,1.03-2.13,1.83-.27.4-.51.82-.76,1.23-.25.43-.5.85-.81,1.23-.96-.53-1.95-.25-2.86.3-.93.53-1.87,1.2-2.96,1.31.43.09.78,1.13.62,1.45-.59-.05-.16,1.7-1.12.39l.14-.08c-1.23-1.03-1.67-.11-2.24.32l1.29,1.68c-1.67-.57-2.46.4-2.95,1.43-.53,1.01-.93,1.94-2.28,1.36.09.68-.32,1.04-.18,1.73l-.84-.76c-.99.75-1.49,1.14-2.23,2.48l-.44-.74c-.6.64,1.89,2.8,1.53,3.46l-1.49-.81c-.78,1.2-2.91,1.61-2.37,3.65-.2-.15-.59-.45-.53-.69-.38.56-2.33,1.72-.19,2.66-1.31-.74-.89,1.22-.67,2.19l-.93-.63c.97,1.25,1.3,1.45,1.26,2.42-.22.12-.88-.24-.5-.36-.84.37.7.96-.21,1.46l-.5-.6c-.4.61-.03.73.54,1.44.19.59-.85,1.1-1.8.79.52.34,1.12,1.04.69,1.31-.37-.1-.53-.34-.6-.45-1.17.82.5,2.15-.84,2.49-.35-.12-.54-.14-.67-.12.4-.88.76-1.57.81-1.47-.94-.41-1.42.26-2.48-.87.47.9,1.58,2.51.88,3.04-.11,0-.21,0-.37-.03l-.08-.12c-.16.13-.12.31,0,.51-.24.17-.41.27-.51.48-.83-.21-.74.69-.91,1.04,1.07.35.73.76,1.76.63-.1.03-.1-.11-.06-.37-.01-.07,0-.14-.05-.19.02.02.05.04.08.06.06-.25.15-.57.26-.93.43.49.77.95.04,1.13.61.43,1.24.88,1.53,1.11-1.65-.04-2.8.64-3.77.47.25,1.33-.44,2.8,1.37,4.11.16.39-.69.19-1.05.21-.15-.24-.05-.45-.31-.64.31.79-.36,1.95,1.03,2.5-.86.62-1.19-.82-1.25.35l-.4-.27c-1.43.78-.76,1.93-.17,3.05.61,1.13,1.16,2.23-.6,3.1.22-.13.32-.19.57-.17-.98,1.23-.97,2.73-1.03,4.19-.02.45-.06.89-.13,1.32,0,0,0,0,0-.01-.28.13-.56.25-.63.58.17,0,.35-.01.52-.02-.19.79-.54,1.53-1.26,2.2-.56.71.36.95.98,1.54l-1.22-.03,1.24,1.04c.83,1.3-3.23,1.54-1.54,3.3l.83-.07c-.23.5.23,1.72-.68,1.51.14.07.81.29.37.43l-.63-.07.9,1.43c-.58.94-2.47-.49-2.78.96.17.58,1.62,1.78,2.07,1.63ZM171.51,97.12c0-.08.02-.19.05-.38.01,0,.02,0,.02,0-.03.16-.05.29-.07.37ZM172.12,95.34c-.11.15-.21.36-.3.58-.38-.1-.73-.3-.65-.43.21.17.56-.07.95-.15ZM163.65,95.62c-.06-.3.18-.31.4-.26-.02.12-.04.27-.03.47.03.02.08.05.12.08-.19-.1-.37-.19-.49-.29Z"/><path class="cls-1" d="M255.99,75.57c-.12,0-.21-.01-.28-.04.13.07.19.2.28.04Z"/><path class="cls-1" d="M255.66,75.52s.03.01.05.02c-.02,0-.03-.01-.05-.02Z"/><path class="cls-1" d="M261.76,134.02l-.09.1c.06-.02.11-.05.09-.1Z"/><path class="cls-1" d="M164.88,96.57s.05.08.04.13c.11-.02.21-.03.29-.06-.1-.07-.21-.14-.3-.21-.01.05-.02.09-.03.14Z"/><path class="cls-1" d="M262.92,106.12s-.08.06-.15.09c.05-.03.09-.03.13-.05l.02-.04Z"/><polygon class="cls-1" points="184.44 79.48 184.23 79.29 184.32 79.55 184.44 79.48"/><path class="cls-1" d="M259.87,115.08c-.1.02-.2.06-.28.13.07-.01.17-.07.28-.13Z"/><path class="cls-1" d="M259.85,118.77l-.37.54c.21-.24.31-.41.37-.54Z"/><path class="cls-1" d="M259.43,121.63c.2.03.35.03.48.03,0,0,0,0,0,0l-.49-.03Z"/><path class="cls-1" d="M249.77,78.93s-.05-.06-.09-.07c-.3-.13-.15-.02.09.07Z"/><path class="cls-1" d="M256.54,90.34c-.23-.08-.46-.17-.62-.27-.02.25,0,.43.62.27Z"/><path class="cls-1" d="M241.73,67.95s0,0,.02-.01c-.02-.02-.03-.03-.04-.05l.03.06Z"/><path class="cls-1" d="M255.78,89.47c-.16.29-.06.46.14.6.02-.21.08-.46-.14-.6Z"/><path class="cls-1" d="M259.22,134.07c.07,0,.13,0,.18.01l-.14-.15-.05.14Z"/><path class="cls-1" d="M259.4,134.09l.14.15c0-.07-.01-.13-.14-.15Z"/><path class="cls-1" d="M259.83,134.55l-.29-.32c0,.11-.03.25.29.32Z"/><path class="cls-1" d="M259.31,130.13c.09.02.22.03.41.03l-.41-.03Z"/><path class="cls-1" d="M259.57,129.02c-.09.28-.86.7-.59,1.08l.33.03c-.61-.16.96-.86.27-1.11Z"/><path class="cls-1" d="M264.47,124.08l-.3.98c.43-.18,1.01-.43,1.12.01,1.26-1.27-.96.29-.83-.99Z"/><path class="cls-1" d="M264.97,121.04c.23.51.63-.03.88-.02-.41-.31-.51-.39-.88.02Z"/><path class="cls-1" d="M262.81,99.25l1.02-.12c-.22-.38-.39.06-1.02.12Z"/><polygon class="cls-1" points="256.86 96.17 256.32 96.66 257.27 96.66 256.86 96.17"/><polygon class="cls-1" points="263.64 92.36 263.13 91.77 263.46 92.22 263.64 92.36"/><path class="cls-1" d="M245.19,57.91l-.57,1.13c.39,0,1.29-1.11.57-1.13Z"/><path class="cls-1" d="M227.47,56.7c-.2-.62-.66-1.01-.91-.38.36.07.74.55.91.38Z"/><polygon class="cls-1" points="180.33 68.82 180.06 69.52 180.34 69.37 180.33 68.82"/></svg>